<svg xmlns="http://www.w3.org/2000/svg" width="660" height="329" viewBox="0 0 660 329">
    <defs>
        <linearGradient id="a" x1=".003%" x2="99.998%" y1="50%" y2="50%">
            <stop offset="0%" stop-color="#FBCFBC"/>
            <stop offset="100%" stop-color="#FBCFBC"/>
        </linearGradient>
        <linearGradient id="b" x1=".003%" x2="99.998%" y1="50%" y2="50%">
            <stop offset="0%" stop-color="#FBCFBC"/>
            <stop offset="100%" stop-color="#FBCFBC"/>
        </linearGradient>
        <linearGradient id="c" x1=".003%" x2="99.998%" y1="50%" y2="50%">
            <stop offset="0%" stop-color="#FBCFBC"/>
            <stop offset="100%" stop-color="#FBCFBC"/>
        </linearGradient>
        <linearGradient id="d" x1=".003%" x2="99.998%" y1="50%" y2="50%">
            <stop offset="0%" stop-color="#FBCFBC"/>
            <stop offset="100%" stop-color="#FBCFBC"/>
        </linearGradient>
        <linearGradient id="e" x1=".003%" x2="99.998%" y1="50%" y2="50%">
            <stop offset="0%" stop-color="#FBCFBC"/>
            <stop offset="100%" stop-color="#FBCFBC"/>
        </linearGradient>
        <linearGradient id="f" x1=".003%" x2="99.998%" y1="50%" y2="50%">
            <stop offset="0%" stop-color="#FBCFBC"/>
            <stop offset="100%" stop-color="#FBCFBC"/>
        </linearGradient>
        <linearGradient id="g" x1=".003%" x2="99.998%" y1="50%" y2="50%">
            <stop offset="0%" stop-color="#FBCFBC"/>
            <stop offset="100%" stop-color="#FBCFBC"/>
        </linearGradient>
        <linearGradient id="h" x1=".003%" x2="99.998%" y1="50%" y2="50%">
            <stop offset="0%" stop-color="#FBCFBC"/>
            <stop offset="100%" stop-color="#FBCFBC"/>
        </linearGradient>
        <linearGradient id="i" x1=".003%" x2="99.998%" y1="50%" y2="50%">
            <stop offset="0%" stop-color="#FBCFBC"/>
            <stop offset="100%" stop-color="#FBCFBC"/>
        </linearGradient>
        <linearGradient id="j" x1=".003%" x2="99.998%" y1="50%" y2="50%">
            <stop offset="0%" stop-color="#FBCFBC"/>
            <stop offset="100%" stop-color="#FBCFBC"/>
        </linearGradient>
        <linearGradient id="k" x1=".003%" x2="99.998%" y1="50%" y2="50%">
            <stop offset="0%" stop-color="#FBCFBC"/>
            <stop offset="100%" stop-color="#FBCFBC"/>
        </linearGradient>
        <linearGradient id="l" x1=".003%" x2="99.998%" y1="50%" y2="50%">
            <stop offset="0%" stop-color="#FBCFBC"/>
            <stop offset="100%" stop-color="#FBCFBC"/>
        </linearGradient>
        <linearGradient id="m" x1=".003%" x2="99.998%" y1="50%" y2="50%">
            <stop offset="0%" stop-color="#FBCFBC"/>
            <stop offset="100%" stop-color="#FBCFBC"/>
        </linearGradient>
        <linearGradient id="n" x1=".003%" x2="99.998%" y1="50%" y2="50%">
            <stop offset="0%" stop-color="#FBCFBC"/>
            <stop offset="100%" stop-color="#FBCFBC"/>
        </linearGradient>
        <linearGradient id="o" x1=".003%" x2="99.998%" y1="50%" y2="50%">
            <stop offset="0%" stop-color="#FBCFBC"/>
            <stop offset="100%" stop-color="#FBCFBC"/>
        </linearGradient>
        <linearGradient id="p" x1=".003%" x2="99.998%" y1="50%" y2="50%">
            <stop offset="0%" stop-color="#FBCFBC"/>
            <stop offset="100%" stop-color="#FBCFBC"/>
        </linearGradient>
        <linearGradient id="q" x1=".003%" x2="99.998%" y1="50%" y2="50%">
            <stop offset="0%" stop-color="#FBCFBC"/>
            <stop offset="100%" stop-color="#FBCFBC"/>
        </linearGradient>
        <linearGradient id="r" x1=".003%" x2="99.998%" y1="50%" y2="50%">
            <stop offset="0%" stop-color="#FBCFBC"/>
            <stop offset="100%" stop-color="#FBCFBC"/>
        </linearGradient>
        <linearGradient id="s" x1=".003%" x2="99.998%" y1="50%" y2="50%">
            <stop offset="0%" stop-color="#FBCFBC"/>
            <stop offset="100%" stop-color="#FBCFBC"/>
        </linearGradient>
        <linearGradient id="t" x1=".003%" x2="99.998%" y1="50%" y2="50%">
            <stop offset="0%" stop-color="#FBCFBC"/>
            <stop offset="100%" stop-color="#FBCFBC"/>
        </linearGradient>
        <linearGradient id="u" x1=".003%" x2="99.998%" y1="50%" y2="50%">
            <stop offset="0%" stop-color="#FBCFBC"/>
            <stop offset="100%" stop-color="#FBCFBC"/>
        </linearGradient>
        <linearGradient id="v" x1=".003%" x2="99.998%" y1="50%" y2="50%">
            <stop offset="0%" stop-color="#FBCFBC"/>
            <stop offset="100%" stop-color="#FBCFBC"/>
        </linearGradient>
        <linearGradient id="w" x1=".003%" x2="99.998%" y1="50%" y2="50%">
            <stop offset="0%" stop-color="#FBCFBC"/>
            <stop offset="100%" stop-color="#FBCFBC"/>
        </linearGradient>
        <linearGradient id="x" x1=".003%" x2="99.998%" y1="50%" y2="50%">
            <stop offset="0%" stop-color="#FBCFBC"/>
            <stop offset="100%" stop-color="#FBCFBC"/>
        </linearGradient>
        <linearGradient id="y" x1=".003%" x2="99.998%" y1="50%" y2="50%">
            <stop offset="0%" stop-color="#FBCFBC"/>
            <stop offset="100%" stop-color="#FBCFBC"/>
        </linearGradient>
        <linearGradient id="z" x1=".003%" x2="99.998%" y1="50%" y2="50%">
            <stop offset="0%" stop-color="#FBCFBC"/>
            <stop offset="100%" stop-color="#FBCFBC"/>
        </linearGradient>
        <linearGradient id="A" x1=".003%" x2="99.998%" y1="50%" y2="50%">
            <stop offset="0%" stop-color="#FBCFBC"/>
            <stop offset="100%" stop-color="#FBCFBC"/>
        </linearGradient>
        <linearGradient id="B" x1=".003%" x2="99.998%" y1="50%" y2="50%">
            <stop offset="0%" stop-color="#FBCFBC"/>
            <stop offset="100%" stop-color="#FBCFBC"/>
        </linearGradient>
        <linearGradient id="C" x1=".003%" x2="99.998%" y1="50%" y2="50%">
            <stop offset="0%" stop-color="#FBCFBC"/>
            <stop offset="100%" stop-color="#FBCFBC"/>
        </linearGradient>
        <linearGradient id="D" x1=".003%" x2="99.998%" y1="50%" y2="50%">
            <stop offset="0%" stop-color="#FBCFBC"/>
            <stop offset="100%" stop-color="#FBCFBC"/>
        </linearGradient>
        <linearGradient id="E" x1=".003%" x2="99.998%" y1="50%" y2="50%">
            <stop offset="0%" stop-color="#FBCFBC"/>
            <stop offset="100%" stop-color="#FBCFBC"/>
        </linearGradient>
    </defs>
    <g fill="none" fill-rule="evenodd">
        <path fill="#DBF1FB" d="M105.63 173.138c-4.097 3.466-11.034 2.892-14.491-1.196-12.325-14.578-1.434-50.676 21.524-45.484 8.61 1.948 15.085 11.746 11.198 20.287-2.185 4.801-7.983 7.276-10.747 11.81-2.856 4.689-3.053 10.835-7.485 14.583m438.97-52.73c1.33 1.883 2.293 4.297 1.505 6.458-.56 1.54-1.93 2.68-3.432 3.362-3.141 1.428-6.876 1.09-10.08-.192-3.203-1.283-5.97-3.428-8.62-5.622-1.166-.965-2.355-1.993-2.974-3.367-.446-.99-.564-2.091-.605-3.174-.069-1.893.081-3.809.644-5.62.738-2.372 2.154-4.477 3.642-6.477 2.22-2.986 5.4-6.478 9.589-5.762 2.558.438 3.12 1.88 3.168 4.249.052 2.613-.571 5.143.425 7.682 1.312 3.344 4.695 5.573 6.737 8.463M422.042 18.528c-1.17.667-2.671.842-4.048.574a5.764 5.764 0 0 1-1.995-.779c-4-2.56-2.444-7.334 2.642-6.88 4.102.367 8.045 4.44 3.4 7.085m-10.922 20.23c-.197 3.074-2.713 5.691-5.679 7.049-2.964 1.357-6.338 1.68-9.632 1.912-4.756.338-10.2.294-13.428-2.98-2.226-2.258-2.8-5.603-2.282-8.63 1.297-7.597 6.327-15.217 15.632-14.19 6.948.766 15.806 10.32 15.389 16.838m-211.03 6.863c-11.87-2.649-15.65 9.634-15.215 18.375.084 1.702.185 3.46.984 4.982 1.132 2.156 3.504 3.482 5.916 4.17 3.907 1.114 8.115.85 12.097.017 2.538-.531 5.14-1.354 6.94-3.152 7.277-7.262-1.866-22.416-10.722-24.392m-50.488 283.377c-21.723.21-54.076-11.675-48.591-38.266 3.716-18.023-11.691-34.946-14.483-53.102-3.218-20.921 8.545-43.095 28.636-53.984 7.158-3.878 15.514-6.646 20.446-12.72 15.21-18.729-10.375-41.991-.583-67.013 5.623-14.367 22.241-22.364 44.33-20.992 22.683 1.41 44.433-2.728 47.297-23.045 2.315-16.424 2.155-27.908 19.654-41.966 29.246-23.497 102.02-26.621 116.8 17.369 4.282 12.743 16.582 40.679 59.12 17.028 33.122-18.414 111.584 2.839 86.538 56.053-9.875 20.98 9.527 27.754 39.739 38.591 22.539 8.084 41.441 48.714-4.766 83.524-6.617 4.985 8.879 19.165 15.331 24.322 37.178 29.715 2.196 73.387-32.66 74.201 0 0-355.085-.215-376.808 0"/>
        <path fill="url(#a)" d="M556.205 277.136c-.501.15-5.067 1.5-6.377 1.57a11.19 11.19 0 0 0-.364.025c1.22-.616 2.86-1.664 2.786-2.806-.12-1.779-9.23-27.612-15.388-36.588a27.78 27.78 0 0 0-.35-.496 6.694 6.694 0 0 1-.529-.903h10.499c.164.233.34.478.525.73l.493.669c1.746 2.36 3.99 5.347 4.827 8.233 1.149 3.958 2.743 24.117 3.19 27.035.158 1.033.42 1.876.688 2.531"/>
        <path fill="url(#b)" d="M530.218 276.393a9.978 9.978 0 0 0-.06 2.591c-.569.052-5.725.51-7.108.332-.132-.015-.26-.03-.387-.043 1.458-.37 3.483-1.082 3.754-2.209.397-1.654-2.529-30.483-4.526-37.727-.068-.25-.136-.473-.202-.67a4.755 4.755 0 0 0-.255-.622l-.004-.012 9.626-.034c.048.211.109.434.174.668.059.214.125.439.194.67.872 2.902 2.447 7.094 2.432 10.557-.02 4.066-3.208 23.577-3.638 26.499"/>
        <path fill="#5CD6EA" d="M547.707 237.939h-12.114l-2.744-18.614.188 18.666-1.642.008-8.454.035-2.567.011s-1.636-13.64-2.69-26.128a539.47 539.47 0 0 1-.267-3.305c-.513-6.698-.79-12.647-.46-15.376a2008.764 2008.764 0 0 1 2.322-18.196v-.001c.383-2.877.685-5.055.789-5.564v-.009c.602-2.931 2.55-10.86 2.76-11.717l.014-.054.003-.014.002-.008 6.27-1.29.254-.053h11.314l.407.14 1.035.36 4.34 1.503-4.551 23.69-.11.58s.25.477.646 1.326a59.41 59.41 0 0 1 1.877 4.52c1.253 3.398 2.569 7.909 2.892 12.496.66 9.336.486 36.994.486 36.994"/>
        <path fill="url(#c)" d="M550.417 183.22c-4.408 6.388-24.731 7.809-24.731 7.809s-1.311 1.794-2.4 2.91c-.567.579-1.071.974-1.302.84a.594.594 0 0 1-.085-.079c-.001-.003-.005-.005-.005-.007-.569-.665-.84-3.265.368-5.34 1.25-2.146 20.226-10.304 20.226-10.304 1.558-10.326 1.937-17.538 3.978-20.716 0 0 1.381.47 2.557 1.858a6.697 6.697 0 0 1 1.411 2.827c1.598 6.75 1.685 17.735-.017 20.202"/>
        <path fill="url(#d)" d="M522.847 157.673l-.001.008-.005.014-.012.054-2.76 11.717-.001.01a298.15 298.15 0 0 1-.79 5.563c-.597 3.948-1.408 8.713-1.979 9.724a6.124 6.124 0 0 1-.355.525c-2.344 3.206-13.833 16.419-13.833 16.419v6.61s-3.158.485-4.182 0c-2.155-1.018-.841-6.215-.287-7.66 2.595-6.79 10.829-19.636 10.829-19.636 1.643-6.267 3.366-10.852 5.009-14.206 4.484-9.158 8.367-9.142 8.367-9.142"/>
        <path fill="#4F3F38" d="M546.56 146.266c-.472 2.646-2.159 6.405-4.433 10.564l-1.035-.36c-.339-.646-1.42-3.258-1.13-9.91.117-2.664 2.114-6.861 1-7.789-1.776-1.473-3.22 1.813-3.22 1.813s-1.433-1.382-3.074-2.942c-1.638-1.56-2.595-2.867-2.595-2.867 0 .038-.018.514-3.174 3.118-2.1 1.734-4.75 3.447-4.75 3.447s-.68 2.303 1.59 6.9c1.145 2.321 4.933 3.134 4.933 3.134s.208 1.225-.175 2.45a8.059 8.059 0 0 1-1.38 2.558l-6.27 1.291s-3.883-.017-8.367 9.142c-.802-1.71-1.53-3.46-1.502-5.248.102-6.57 7.89-7.021 1.742-15.841-5.604-8.039 1.715-18.4 9.396-20.11 7.68-1.711 9.111.529 9.111.529s2.742-1.556 8.072 1.144c4.877 2.471 7.003 9.165 5.26 18.977"/>
        <path fill="url(#e)" d="M541.092 156.47c.062.118.1.17.1.17s-.273 5.162-7.448 4.681c-4.007-.268-4.85-4.68-4.85-4.68s.086-.092.223-.259a8.064 8.064 0 0 0 1.38-2.558c.383-1.225.174-2.45.174-2.45s-3.787-.813-4.931-3.134c-2.27-4.598-1.591-6.9-1.591-6.9s2.65-1.713 4.75-3.447c3.156-2.604 3.174-3.08 3.174-3.118 0 0 .957 1.306 2.596 2.867 1.64 1.56 3.072 2.942 3.072 2.942s1.445-3.286 3.221-1.813c1.114.928-.884 5.126-1 7.789-.29 6.652.791 9.264 1.13 9.91"/>
        <path fill="#C1BEBC" d="M585.822 231.325a6.349 6.349 0 0 1-1.863 4.499 6.347 6.347 0 0 1-4.498 1.862h-13.369l6.218 59.875c.001.012.002.02.001.033.325 3.235-1.523 5.805-4.31 6.195-2.917-.39-5.583-2.96-6.297-6.195l-12.946-59.908H371.845l-12.947 59.908c-.715 3.235-3.382 5.805-6.296 6.195-2.788-.39-4.635-2.96-4.311-6.195a.066.066 0 0 1 .001-.033l6.216-59.875h-15.97a6.362 6.362 0 0 1-4.497-10.858 6.34 6.34 0 0 1 4.497-1.863H579.46a6.36 6.36 0 0 1 6.36 6.36"/>
        <path fill="#C1BEBC" d="M604.933 260.099h18.697v-31.335h-18.697v31.335zm25.802-31.335a5.26 5.26 0 0 0 5.26-5.26v-7.008a5.261 5.261 0 0 0-5.26-5.262h-31.387a5.26 5.26 0 0 0-5.26 5.262v7.007a5.26 5.26 0 0 0 5.26 5.26h.23V260.1H579.53c-2.22 0-4.019 2.372-4.019 5.305v.633c0 2.932 1.8 5.305 4.019 5.305h1.926l-3.152 30.398c-.002.007-.003.011-.002.017-.164 1.647.774 2.956 2.191 3.155 1.482-.2 2.836-1.508 3.2-3.155l6.564-30.415h32.176l6.565 30.415c.363 1.647 1.717 2.956 3.199 3.155 1.416-.2 2.356-1.508 2.191-3.155.002-.006 0-.01 0-.017l-3.153-30.398h.019c2.22 0 4.018-2.373 4.018-5.305v-.633c0-2.933-1.798-5.305-4.018-5.305h-2.269v-31.335h1.75z"/>
        <path fill="url(#f)" d="M568.147 302.09l.056-.43c-.63.001-2.134.001-5.412-.003h-.018c-.546 0-1.064.016-1.556.046.107-3.314.262-7.637.473-12.357h10.27a444.048 444.048 0 0 0-3.813 12.745"/>
        <path fill="url(#g)" d="M558.505 302.08l.056-.42c-.631.001-2.135.001-5.413-.003h-.018c-.546 0-1.066.016-1.557.046.108-3.314.264-7.637.474-12.356h10.27a443.762 443.762 0 0 0-3.812 12.734"/>
        <path fill="#1B1937" d="M558.56 301.66l-.055.42-.035.267-.634 4.775h-14.003s-.766-4.894 7.74-5.42c.491-.03 1.01-.045 1.557-.045h.018c3.278.004 4.782.004 5.413.003"/>
        <path fill="#262362" d="M568.203 301.66l-.056.431-.035.256-.634 4.775h-15.246s.478-4.896 8.985-5.42c.492-.03 1.01-.045 1.556-.045h.018c3.278.004 4.782.004 5.412.003"/>
        <path fill="#95BDEF" d="M594.501 235.977s-30.875 2.789-36.994 9.706c-2.35 2.657-5.51 43.664-5.51 43.664h23.112c4.74-12.373 3.896-28.069 3.896-28.069l29.228-.106c17.166 0 15.31-18.017 14.466-24.491l-5.82-44.643c-.284-2.522-2.02-7.96-4.557-7.96l-11.763-3.666s-9.355 21.016-6.058 55.565"/>
        <path fill="#D1EFFF" d="M596.81 240.892c-.263.044-26.238 4.488-31.505 8.403-2.632 1.958-3.204 36.812-3.615 40.051h-1.116c.1-10.177.794-38.755 4.036-40.986 5.635-3.878 30.925-8.434 32.005-8.617l.194 1.149z"/>
        <path fill="url(#h)" d="M613.215 185.393c4.744 2.807-2.394 27.893-5.223 29.734-4.58 2.981-28.365 7.332-29.3 7.424-.936.091-12.027 0-12.027 0s1.013-3.85 4.22-3.827c1.282.01 6.78 0 6.78 0s22.853-11.568 22.905-12.301c.053-.733 4.227-18.01 4.948-19.058 1.008-1.466 4.215-4.032 7.697-1.972"/>
        <path fill="#ED3F4B" d="M572.803 218.727l6.189-10.718c.272-.471.137-.853-.302-.853s-1.016.382-1.288.853l-6.188 10.718h1.59z"/>
        <path fill="#FFA33A" d="M545.1 224.827h35.386v-2.187h-35.385z"/>
        <path fill="url(#i)" d="M600.559 180.412c.183-.31.348-.634.491-.976.085-.197.161-.395.227-.603.377-1.15.674-2.462.813-3.908v-.005a12.671 12.671 0 0 1-2.464-.29l-.006-.002c-.835-.193-1.517-.48-1.973-.855-4.038-3.336-1.31-11.727-.224-14.455 0 0 3.564-4.347 8.978-3.67.153.018.3.043.442.065l.106.02c-.003.157-.009.314-.015.473.774 3.209 4.855 5.61 4.77 9.193-.001.056-.005.112-.007.169-.1 1.7-1.141 3.177-1.788 4.754-.65 1.574-.787 3.664.547 4.724.252.2-.052 4.358 3.172 9.225l-13.069-3.86z"/>
        <path fill="#4F3F38" d="M625.096 174.295c-1.005.903-2.366 1.299-3.698 1.52-2.405.397-6.846.52-9.217-.044a7.113 7.113 0 0 1-.883-.262 3.085 3.085 0 0 1-.842-.463c-1.334-1.06-1.196-3.15-.547-4.725.646-1.575 1.688-3.053 1.787-4.753.004-.057.007-.114.007-.169.085-3.584-3.995-5.984-4.77-9.193.007-.16.013-.316.016-.473l-.105-.02c-.143-.023-.29-.047-.442-.065-5.416-.678-8.98 3.669-8.98 3.669-1.085 2.728-3.813 11.12.226 14.455.455.377 1.136.663 1.972.855l.006.003c.569.204 1.305.257 2.464.29v.005a2.16 2.16 0 0 1-.437.462c-.49.377-1.134.448-1.739.56-3.664.678-8.905.649-11.715-.522-1.006-.42-1.958-1.064-2.515-2-.555-.938-.638-2.204-.003-3.09.15-.211.345-.411.398-.666.108-.498-.342-.92-.6-1.357-.545-.917-.262-2.138.392-2.977.653-.84 1.607-1.38 2.535-1.898-1.342-.755-1.505-2.956-.283-3.899.54-.418 1.232-.577 1.834-.895.605-.317 1.171-.916 1.075-1.592-.053-.384-.31-.706-.473-1.056-.638-1.387.311-3.088 1.663-3.793 1.351-.704 6.009-1.56 7.531-1.465 2.613.168 4.94-.406 7.133 1.028 3.38-1.225 6.778-.238 9.258.434.597.162 1.235.447 1.476 1.015.286.67-.087 1.465.123 2.16.235.774 1.107 1.166 1.908 1.267.802.098 1.634.006 2.403.253 1.664.537 2.456 2.832 1.472 4.277-.155.23-.352.447-.41.719-.198.917 1.086 1.305 1.885 1.8.91.56 1.373 1.755 1.079 2.783-.24.842-.925 1.588-.818 2.453.08.636.569 1.133.833 1.713.556 1.233.007 2.752-1 3.656"/>
        <path fill="url(#j)" d="M460.201 281.984s1.61-27.22.138-30.41c-1.953-4.235-5.498-9.751-5.498-9.751s-8.48 3.338-8.521 6.276c-.193 13.684 9.782 40.46 10.578 42.526l3.303-8.64z"/>
        <path fill="#205B98" d="M460.201 281.984l3.463 3.2c.606.56.81 1.432.515 2.203l-4.848 12.665s-5.693-2.433-2.433-9.842c2.92-6.636 3.303-8.226 3.303-8.226M498.672 259.033c-8.094.23-34.002 0-34.002 0l-9.829-17.21 16.492-6.28.09-12.233.035-4.577-.594-4.123-2.831-19.675 6.61-1.772 4.8 25.57h12.097l-3.99-25.57 6.874 1.772 2.178 19.988.416 3.81s.675 2.396 1.555 6.02c2.717 11.189 7.375 34.074.1 34.28"/>
        <path fill="#EF4955" d="M468.032 194.935c-7.144.563-10.442 19.675-10.442 19.675h13.27l-2.828-19.675zM474.643 193.164h12.906l4.13 25.57h-12.237zM494.31 193.88c7.143.563 15.611 20.73 15.611 20.73h-13.269l-2.342-20.73z"/>
        <path fill="url(#k)" d="M471.458 218.733l-.035 5.957c-1.581.085-11.146.318-12.866-1.093-2.75-2.254-.967-8.987-.967-8.987h13.274l.594 4.123z"/>
        <path fill="url(#l)" d="M508.955 223.597c-1.283 1.054-6.94 1.19-10.382 1.157-.88-3.624-1.555-6.021-1.555-6.021l-.416-3.81.046-.313h13.274s1.782 6.733-.967 8.987"/>
        <path fill="url(#m)" d="M477.858 193.746l-3.344-.567-.173-6.414s-3.093-1.177-4.35-3.308c-2.299-3.907-.39-10.38-.39-10.38.2-1.23.468-2.317.795-3.274l4.444 2.111c2.962 1.869 1.929 5.089.994 8.058-1.656 5.248 1.399 6.148 2.156 8.721.363 1.232.295 3.147-.132 5.053"/>
        <path fill="#EFC375" d="M496.27 200.755c-3.262 4.519-21.971-.742-20.992-1.687 1.226-1.18 2.115-3.248 2.58-5.322.427-1.906.496-3.82.132-5.053-.757-2.573-3.812-3.473-2.156-8.721.935-2.97 1.968-6.189-.994-8.058l-4.443-2.111-1.486-.706s.35-9.508 11.207-8.973c9.273.456 12.88 2.086 15.032 5.02 1.78 2.43 3.436 8.278-.508 14.56-2.118 3.374-1.48 8.734.91 10.183 2.98 1.808 3.393 7.162.717 10.868"/>
        <path fill="#C1BEBC" d="M529.176 271.74l3.666 35.344a.044.044 0 0 1 0 .019c.192 1.91-.896 3.427-2.54 3.657-1.716-.23-3.288-1.748-3.71-3.657l-7.614-35.283h-5.47l3.656 35.264a.053.053 0 0 1 .001.019c.19 1.91-.897 3.427-2.54 3.657-1.718-.23-3.289-1.748-3.71-3.657L503.3 271.82h-11.093l-7.614 35.283c-.421 1.91-1.991 3.427-3.71 3.657-1.642-.23-2.731-1.748-2.54-3.657a.044.044 0 0 1 0-.02l3.658-35.263h-5.47l-7.615 35.283c-.421 1.91-1.993 3.427-3.71 3.657-1.643-.23-2.73-1.748-2.54-3.657-.002-.007 0-.013.001-.02l3.667-35.379c-2.558-.556-4.487-3.046-4.487-6.032v-.736c0-3.401 2.495-6.15 5.571-6.15h60.857c3.077 0 5.57 2.749 5.57 6.15v.736c0 3.056-2.02 5.592-4.67 6.068"/>
        <path fill="#10215F" d="M325.041 328.95c-1.512.442-1.914-4.83-1.914-4.83s-5.496 4.83-10.958 4.83c-5.463 0 5.805-10.195 5.805-10.195l7.014.269.016.056c.23.76 2.67 9.102.037 9.87"/>
        <path fill="url(#n)" d="M333.825 248.99c-1.407 11.905-8.333 66.27-8.822 70.09a.679.679 0 0 0-.015-.056l-7.014-.27s-2.841-66.05-4.357-100.353l-.07-1.604c-.048-1.073.035-2.152.072-3.22h19.71a62.414 62.414 0 0 0-.431 3.22c-.06.58-.098 1.1-.116 1.553l-.002.056c-.308 9.121 2.504 18.243 1.045 30.583"/>
        <path fill="#10215F" d="M376.539 328.95c-1.514.442-1.914-4.83-1.914-4.83s-5.497 4.83-10.958 4.83c-5.104 0 4.392-8.896 5.662-10.066l.14-.129 6.72.257.294.012s2.814 9.12.056 9.925"/>
        <path fill="url(#o)" d="M376.189 319.013l-6.72-.258-.14.129c-.553-7.09-4.597-53.602-18.484-95.093-.057-.167-1.268-3.28-2.099-5.484-.421-1.123-.745-2.011-.764-2.16-.1-.74-.223-1.7-.367-2.837h19.302c-.483 2.073-.78 3.219-.78 3.219s.385.63 1.005 1.73c2.152 3.817 7.168 13.296 8.907 21.627 2.193 10.514.22 76.46.14 79.127"/>
        <path fill="#ED8F14" d="M374.044 167.436c-1.501 20.43-5.45 38.917-7.136 46.14h-54.426l11.155-91.21.318-.002 35.15-.177s.252.252.696.73c4.347 8.578 15.947 21.33 14.243 44.519"/>
        <path fill="#F4815B" d="M364.867 134.533c-9.703-3.686-1.886-32.254-2.101-52.22-.2-18.527-5.166-21.759-16.009-28.222-.843-.5-1.722-1.026-2.639-1.576-4.086-2.458-6.147-6.214-7.183-10.822-1.034-4.608-1.229-13.485-7.79-13.138-9.589.507-14.392-2.952-15.785-4.183a5.577 5.577 0 0 1-.44-.425c.538-7.065 6.935-12.671 16.234-13.209 9.299-.533 17.582-.307 23.678 30.718 2.998 15.255 38.918 11.673 41.89 47 3.291 39.129-20.151 49.763-29.855 46.077"/>
        <path fill="url(#p)" d="M347.013 54.973s-3.654 4.761-8.747 4.761-6.812-2.61-6.812-2.61l-.433-1.306-.883-2.676c-.202-.608-2.01-5.452-1.997-5.46-.247.138-2.627 1.86-3.6 1.937-1.868.147-3.977-2.855-4.35-3.382-.518-.73-.93-1.521-1.364-2.301-.348-.625-.468-1.267-.75-1.917-.744-1.713-1.336-3.48-1.872-5.268a105.219 105.219 0 0 1-2.791-11.867c-.03-.17-.049-.34-.054-.512 1.393 1.232 6.196 4.69 15.785 4.183 6.561-.347 6.755 8.53 7.79 13.138 1.035 4.608 3.097 8.365 7.184 10.822.916.55 1.795 1.076 2.638 1.576l.08.277.176.605"/>
        <path fill="#9F4E29" d="M330.544 54.367l-2.403-6.685 6.647-8.379c.788 10.226-1.847 13.387-4.244 15.064"/>
        <path fill="#5CD6EA" d="M386.74 99.19c-1.564 3.327-3.599 7.756-4.958 11.13-.875 2.172-1.255 3.745-1.36 4.877-11.189-6.704-17.659-29.314-17.659-29.314s-6.317 24.218-4.395 33.265c.038.185.082.364.127.536.272 1.014.726 2.084 1.306 3.232-.445-.477-.696-.73-.696-.73l-35.151.177c-.1-.938-.233-1.917-.392-2.924-.922-5.853-4.596-12.854-6.571-19.372-.57-1.882-.998-3.724-1.178-5.487a16.55 16.55 0 0 1-.086-2.26c.11-3.248.223-5.292.326-6.56-.881 2.807-2.438 9.085-4.195 15.793-4.036 5.918-9.488 11.558-13.152 13.033a5.517 5.517 0 0 1-.94.293l-.007.001c-.15.033-.297.055-.438.065-.122.01-.24.015-.353.01-.61-.019-1.118-.245-1.497-.712-.891-1.098-1.062-2.992-.783-5.258.696-2.66 1.64-6.089 2.807-9.906 0-.004.002-.005.003-.008 4.19-13.72 11.233-32.442 19.821-38.407 4.06-2.82 8.089-4.594 13.393-5.783 0 0 2.852 3.192 7.3 3.192s7.64-4.158 7.64-4.158l-.153-.529c10.444.389 19.952 3.887 23.732 10.497 3.221 5.632 13.18 33.486 17.51 35.307"/>
        <path fill="url(#q)" d="M381.7 105.649c-.845 2.116-1.155 4.72-.82 6.475 2.057 10.777 36.74 25.001 45.129 28.295.691 2.392 2.226 7.495 3.596 10.51 2.515 5.537 6.756 3.454 6.756 3.454s-3.499-4.202-3.826-7.698c-.328-3.496 2.548 1.236 2.548 1.236s2.165-1.598-1.787-6.145c-3.065-3.528-6.586-5.893-6.588-5.885-14.975-13.647-22.875-19.522-27.92-24.29-3.321-3.136-8.746-6.704-12.35-9.518-2.82-2.204-3.596.71-4.737 3.566"/>
        <path fill="url(#r)" d="M335.401 68.212s-.005.137-.024.365c-.081.963-.42 3.555-1.757 4.335-.965.562-11.171 1.93-11.171 1.93s-1.4 5.564-3.89 12.599a139.106 139.106 0 0 1-2.566 6.716c-.058.139-.118.28-.18.423-.958 2.204-2.343 4.612-3.956 6.974-4.035 5.917-9.487 11.557-13.15 13.032a5.53 5.53 0 0 1-.942.293l-.006.002a3.246 3.246 0 0 1-.791.075c-.61-.02-1.117-.246-1.496-.713-.892-1.098-1.064-2.992-.784-5.258.365-2.977 1.506-6.6 2.807-9.906 0-.004.002-.005.003-.008a72.356 72.356 0 0 1 2.616-5.88c3.011-5.988 18.58-24.39 19.803-24.721 6.421-1.733 15.484-.258 15.484-.258"/>
        <path fill="url(#s)" d="M231.904 90.33l7.47 3.614c3.866.843 3.336-2.327 7-4.336.333-1.689.234-3.227-.502-4.47-2.37-4-21.263-20.676-25.842-24.639-6.614-5.722-10.176-4.536-10.176-4.536-1.687 2.936 7.885 23.293 7.885 23.293l14.165 11.075z"/>
        <path fill="#10215F" d="M205.894 326.149l1.751-.149s0-6.125 1.169-6.125c1.171 0 5.182 5.986 6.046 6.11 1.168.164 7.408 0 7.408 0s0-3.155-3.51-3.744c-1.235-.21-4.28-3.864-5.711-7.412l-.031-.075h-6.633a.85.85 0 0 1-.097.182c-.366.517-1.384.993-1.566 1.393-1.17 2.562 1.174 9.82 1.174 9.82M155.676 326.15l1.75-.148s0-6.125 1.17-6.125 5.182 5.985 6.045 6.107c1.169.166 7.409 0 7.409 0s0-3.153-3.51-3.743c-1.23-.208-4.97-3.831-6.426-7.362a5.541 5.541 0 0 1-.051-.125h-6.34c-.017.048-.04.096-.065.143-.278.534-.97 1.024-1.156 1.433-1.17 2.561 1.174 9.82 1.174 9.82"/>
        <path fill="url(#t)" d="M197.147 250.388c1.222 10.108 7.294 51.688 9.139 64.548a.852.852 0 0 0 .097-.183h6.633l.031.076c.52-11.834 2.295-52.137 3.605-81.424.053-1.17.103-2.325.155-3.459.147-3.29.287-6.413.418-9.3.022-.527.047-1.047.071-1.56l.003-.092c.039-1.013-.042-2.03-.075-3.04H197.64c.183 1.134.323 2.156.42 3.04.002.031.007.061.01.092.058.565.096 1.069.114 1.512l.001.053c.122 3.527-.244 7.055-.643 10.778-.12 1.136-.244 2.29-.36 3.47-.447 4.671-.731 9.719-.035 15.489"/>
        <path fill="url(#u)" d="M155.658 314.897c.025-.048.048-.095.065-.144h6.34c.016.042.033.085.051.127.677-9.838 2.79-34.13 15.293-79.07a720.84 720.84 0 0 1 2.832-9.923c.048-.166 1.26-3.19 2.084-5.33.24-.63.451-1.18.587-1.563.101-.286.166-.477.172-.54.092-.662.202-1.506.33-2.498h-19.079c.445 1.85.714 2.87.714 2.87l-.104.168c-.152.25-.468.77-.894 1.515-1.376 2.386-3.93 7.05-6.034 12.235-.461 1.136-.901 2.291-1.302 3.456h-.002c-.615 1.788-1.139 3.588-1.512 5.337-1.91 8.956-.077 59.284.46 73.36"/>
        <path fill="#10215F" d="M158.83 157.897c.027.642.062 1.294.108 1.953 1.381 19.876 3.667 49.08 5.341 56.106h54.071l-8.746-75.219-.39-3.362-1.176-10.106c-1.438-24.07 1.244-31.617 3.478-34.25l.006-.005c.723-.851 2.159-1.896 3.343-3.684 1.2-1.806 2.146-4.368 1.845-8.255-.561-7.298-3.904-23.328-4.283-25.13-.025-.11-.036-.166-.036-.166l-.022.005c-.537.117-10.31 2.244-19.698 2.237-8.44-.006-16.594-1.161-23.598-3.22 0 0 6.137 49.906 2.873 63.075-.544 2.195-7.342 8.582-10.954 21a54.664 54.664 0 0 0-.866 3.39c-.817 3.682-1.33 7.825-1.354 12.467-.007 1.03.012 2.084.058 3.164"/>
        <path fill="#FC7354" d="M188.787 115.327l.047.088a2.558 2.558 0 0 0-.043-.088h-.004z"/>
        <path fill="url(#v)" d="M147.017 98.762c-1.855 6.072-4.474 19.57.103 21.007 3.958 1.244 7.501-7.81 9.1-10.765 1.718-3.176 8.834-16.654 10.477-20.372 1.336-3.028 4.081-6.177 4.864-9.376.855-3.488.016-8.295-.137-11.84-.119-2.77.474-10.697-2.158-12.614 0 0-3.736.37-7.443 8.29-4.087 8.737-8.29 17.578-11.558 26.659-.626 1.742-2.095 5.235-3.248 9.011"/>
        <path fill="url(#w)" d="M122.647 168.76c.648-.479 4.293-3.515 4.382-3.591-.01.002-.04.01-.084.024 1.722-.513 3.967-5.18 4.895-6.547 2.467-3.64 4.833-7.348 7.183-11.064 2.286-3.613 4.712-7.194 6.448-11.051 1.282-2.847 16.627-29.006 6.064-30.663-3.134-.49-4.849-2.141-6.09-.034-3.648 6.197-6.541 19.537-9.624 25.985-2.838 5.938-5.571 11.927-8.285 17.923-1.416 3.129-3.837 6.79-4.533 10.18-.1.512-1.258.342-4.542 2.007-4.549 2.306-7.238 4.752-6.727 5.605.84 1.407 6.329-.255 11.532-1.26-.886.264-1.504.456-1.227.395.743-.162-3.23 1.786-3.946 2.149-1.714.873-.89 1.733-.89 1.733s4.786-1.305 5.444-1.79"/>
        <path fill="url(#x)" d="M293.35 71.82a4.33 4.33 0 0 1-.348-.03c-.947-.113-2.729-.508-2.67-.728.224-.82 4.305-1.7 4.893-1.595 1.225.223 2.732-.145 3.472-.865.273-.266.443-.581.454-.932 0 0-6.131-2.19-14.202.22-2.002.6-40.838 7.728-45.844 11.295-3.168 2.259-7.687 8.973-3.039 13.046 3.073 2.692 6.38 2.575 9.913 1.623 4.737-1.275 9.558-4.796 13.846-7.214 4.702-2.652 9.619-4.881 14.335-7.47 6.75-3.705 12.336-6.785 12.336-6.785s3.86 1.154 4.767 1.197c.57.026 1.726-.264 2.5-.481.452-.129.773-.23.773-.23s.038-1.013-1.186-1.052"/>
        <path fill="url(#y)" d="M169.266 54.801s11.207 3.388 23.405 3.516c12.965.136 19.688-2.606 19.688-2.606s-14.104-3.024-14.045-6.663l.04-3.524.054-4.918.002-.147h.004c.175 0 4.118.813 5.85-.273 1.132-.709 3.61-11.911 3.195-15.783-.293-2.723-.08-6.118-1.68-9.466-1.067-.953-2.738-1.08-6.066-.276-8.9 2.155-8.9 12.363-8.9 12.363s-.173-5.02-3.264-4.003c-3.091 1.02-.825 7.216-1.271 9.905-.692 4.165-3.247 7.624-3.247 7.624s.394 5.56-.507 9.252c-1.882 2.386-13.258 5-13.258 5"/>
        <path fill="#10215F" d="M205.782 14.939c-1.071-.956-2.732-1.045-6.068-.277-7.945 1.827-9.049 12.363-9.049 12.363s-.025-5.021-3.116-4.002c-3.092 1.02-.529 8.104-.975 10.79-.691 4.168-3.543 6.738-3.543 6.738-.131-.114-.264-.228-.395-.345 0 0 0-.002-.003-.003a29.204 29.204 0 0 1-1.589-1.52c-7.575-7.811-8.364-17.52-5.431-22.057a95.907 95.907 0 0 1 2.306-3.417s-6.827-1.334-8.302 3.965c-1.473 5.298 8.047 17.253 1.475 27.363-3.4 5.232-8.87 9.712-3.229 22.869 6.868 16.016-16.558 19.235-16.558 19.235s4.256-9.715-4.312-15.896c-7.65-5.518-8.325-18.913-.74-23.647 5.72-3.571 14.228-10.791 8.568-21.388-5.66-10.596 2.712-24.43 13.336-25.609 10.624-1.177 13.798 8.273 13.798 8.273 1.293-.343 13.699-3.988 21.473 3.113.894.817 1.68 2.037 2.354 3.452"/>
        <path fill="#FFF" d="M189.51 30.883c0 1.059-.85 1.917-1.897 1.917a1.908 1.908 0 0 1-1.898-1.917c0-1.06.85-1.917 1.898-1.917s1.897.858 1.897 1.917M185.266 49.09a1.71 1.71 0 0 1-1.7 1.717c-.939 0-1.7-.769-1.7-1.717 0-.949.761-1.718 1.7-1.718s1.7.77 1.7 1.718M188.698 49.09c0 .948-.76 1.717-1.7 1.717-.938 0-1.7-.769-1.7-1.717a1.71 1.71 0 0 1 1.7-1.718c.94 0 1.7.77 1.7 1.718"/>
        <path fill="#FFF" d="M192.044 49.09c0 .948-.76 1.717-1.7 1.717-.939 0-1.7-.769-1.7-1.717 0-.949.761-1.718 1.7-1.718.94 0 1.7.77 1.7 1.718"/>
        <path fill="#FFF" d="M195.356 49.09a1.71 1.71 0 0 1-1.7 1.717c-.94 0-1.7-.769-1.7-1.717 0-.949.76-1.718 1.7-1.718.938 0 1.7.77 1.7 1.718"/>
        <path fill="#FFF" d="M198.755 49.09a1.71 1.71 0 0 1-1.7 1.717c-.938 0-1.7-.769-1.7-1.717 0-.949.762-1.718 1.7-1.718.94 0 1.7.77 1.7 1.718"/>
        <path fill="url(#z)" d="M121.57 175.808c.418-2.023 1.928-9.68-1.426-10.519-2.177-.543-4.294 7.38-4.116 9.199-.401-4.057-2.653-3.806-2 .263.382 2.405.857 4.76.32 7.187-.804 3.644-2.962 6.838-4.672 10.098l-8.206 15.647s-8.027 4.166-8.835 4.646c.05 1.876.464 3.697.657 5.566.192 1.844.32 6.25.334 8.104.627-.18 14.559-10.9 14.559-10.9s2.063-2.678 2.638-4.132c.65-1.645 4.739-12.78 6.008-16.528 1.318-3.897 2.285-7.918 3.122-11.944.212-1.027 1.007-3.728 1.618-6.687"/>
        <path fill="#1588CF" d="M.035 285.322c.45 2.467 6.02 2.054 8.4 1.398 2.145-.593 4.356-1.53 4.765-1.708l1.268 6.941-5.629 1.552c1.011.693 1.775 1.86 2.041 3.315.512 2.805-1.027 5.615-3.433 6.279l8.669-2.39 3.693-1.018-.009-.05a3.78 3.78 0 0 0 .627-.12l4.028 2.282c1.884-.52 4.117-4.903 5.145-6.76 1.165-2.106 2.11-4.44 1.656-6.908l-1.354-7.418c.984-.695 12.51-8.923 11.667-11.951-.982-3.53-12.69 4.448-12.99 4.653 2.75-2.665 4.364-5.99 3.584-8.825a5.506 5.506 0 0 0-1.154-2.137 75.842 75.842 0 0 1-1.813-2.22c-.202-.258-.402-.512-.597-.763-.351-.45-.691-.887-1.023-1.31l-.16-.2c-.06-.075-.116-.15-.178-.223-.052-.067-.107-.133-.157-.197l-.418-.51c-.121-.142-.24-.284-.36-.421l.005-.003c1.027-.283 1.823-1.128 2.192-2.18v-.003a4.011 4.011 0 0 0 .16-2.04c-.343-1.88-1.953-3.04-3.596-2.588-1.497.412-2.506 2.026-2.406 3.737a4.435 4.435 0 0 0-.29-.137l-.222-.095a6.41 6.41 0 0 0-.462-.165 14.804 14.804 0 0 0-.233-.07 7.482 7.482 0 0 0-1.25-.234l-.209-.017c-.107-.01-.218-.014-.329-.02h-.222a6.4 6.4 0 0 0-.46.01 3.671 3.671 0 0 0-.22.012 9.754 9.754 0 0 0-.538.05l-.012.003a5.41 5.41 0 0 0-.224.029l-.104.014c-.063.012-.13.02-.195.034-.35.056-.712.133-1.09.231l-.08.018-.22.06c-.104.028-.196.059-.296.084-.034.011-.066.023-.1.03-.068.023-.14.044-.208.066-.263.085-.518.173-.763.27-.064.024-.126.046-.185.072l-.259.108-.186.081c-.051.023-.104.047-.154.072-.079.038-.157.074-.231.113-.09.043-.18.09-.265.136-.07.037-.143.076-.213.117-.103.058-.204.117-.305.177-.06.038-.119.075-.177.114a8.749 8.749 0 0 0-.776.557c-.09.074-.182.147-.268.221-.047.043-.097.085-.144.13l-.195.181c-.109.108-.215.216-.316.326a10.01 10.01 0 0 0-.23.252l-.16.19c-.561-1.469-1.97-2.302-3.403-1.907-1.643.452-2.694 2.344-2.35 4.225.05.276.128.534.229.774.521 1.259 1.674 2.023 2.912 1.896.055-.005.11-.011.165-.02l-.006.02c-.12.378-.238.769-.355 1.166-.006.028-.016.055-.024.082-.022.084-.048.174-.072.262-.032.1-.06.207-.088.31-.053.186-.103.367-.154.552-.068.245-.135.493-.204.748-.051.187-.103.375-.153.567-.35 1.274-.721 2.634-1.174 4.066-.285.899-.376 1.746-.298 2.535.269 2.87 2.711 4.98 5.946 5.993l.187-.093.019.116.007.042c-.02-.005-.045-.013-.065-.02-.05-.014-.098-.03-.148-.045-.717.368-2.638 2.128-4.833 2.627-2.658.602-7.461 2.179-6.97 4.87"/>
        <path fill="#B4ECFF" d="M24.91 270.655c-1.548 3.766-3.686 6.13-6.47 6.739-2.852.624-5.016-.288-6.71-3.107-1.625-2.703.445-6.312 5.533-7.61 5.254-1.34 8.929.862 7.648 3.978"/>
        <path fill="#205B98" d="M26.531 296.678c.512 2.805-1.026 5.616-3.435 6.28-.21.057-.419.097-.627.119-2.18.233-4.192-1.435-4.66-3.995a6 6 0 0 1 .694-4.07c.624-1.073 1.58-1.89 2.74-2.21 2.408-.663 4.776 1.071 5.288 3.876M10.88 296.82c.511 2.805-1.026 5.615-3.434 6.279l-.124.033c-2.364.57-4.66-1.152-5.163-3.908-.511-2.805 1.026-5.616 3.434-6.28 1.16-.319 2.308-.082 3.245.56 1.012.694 1.776 1.86 2.041 3.316M24.476 254.756c.048.039.094.08.14.122.064.056.13.113.191.172.154.137.303.281.451.432.04.037.078.076.117.116.312.317.62.655.928 1.014l.006-.002c1.025-.282 1.822-1.127 2.19-2.18l.002-.002a2.982 2.982 0 0 0-.046-.437c-.236-1.296-1.31-2.103-2.398-1.803-.999.275-1.66 1.386-1.58 2.568M5.343 259.65c.52 1.256 1.673 2.02 2.912 1.895.148-.471.305-.923.472-1.36.021-.055.04-.11.065-.166.08-.213.165-.422.257-.627.036-.085.073-.17.112-.256.028-.06.056-.123.085-.183-.34-1.11-1.323-1.768-2.322-1.493-.89.245-1.514 1.156-1.581 2.19M14.584 273.185a.28.28 0 0 0 .353.226c.855-.235 1.525-.892 1.825-1.685.546.559 1.38.803 2.235.566a.345.345 0 0 0 .241-.39.279.279 0 0 0-.353-.225c-.813.224-1.6-.122-1.954-.793a1.677 1.677 0 0 1-.166-.483.295.295 0 0 0-.093-.169l.127-.035.343-.094c.602-.166 1.002-.783.893-1.377-.108-.596-.684-.943-1.286-.776l-1.288.354c-.603.166-1.003.783-.895 1.377.11.594.685.943 1.287.777l.344-.094.128-.035a.34.34 0 0 0-.026.201c.032.175.037.351.018.524a2.079 2.079 0 0 1-1.492 1.742.344.344 0 0 0-.241.389M13.291 267.825c.109.594-.291 1.211-.893 1.377-.602.166-1.178-.182-1.287-.777-.108-.594.292-1.21.894-1.377.602-.166 1.178.182 1.286.777M23.26 265.13c.11.596-.29 1.212-.893 1.379-.602.165-1.178-.182-1.287-.777-.108-.595.292-1.211.894-1.378.602-.165 1.178.182 1.286.777"/>
        <path fill="#FFF" d="M22.57 265.052a.302.302 0 0 0 .382.244.374.374 0 0 0 .262-.421.303.303 0 0 0-.383-.245.375.375 0 0 0-.261.422M12.61 267.797a.302.302 0 0 0 .383.244.374.374 0 0 0 .26-.422.302.302 0 0 0-.382-.244.375.375 0 0 0-.261.422"/>
        <path fill="#205B98" d="M11.904 277.902l.342 1.876c2.104.316 4.39.213 6.558-.384.074-.02.148-.04.222-.065.073-.016.148-.037.222-.058 2.71-.746 5.317-2.287 7.348-4.19-1.683 1.223-3.607 2.19-5.584 2.735-.074.02-.149.04-.222.058-.074.023-.148.044-.222.065-2.887.795-5.98.715-8.583-.069l-.081.032z"/>
        <path fill="#1588CF" d="M30.912 310.247l-2.663 2.75 8.123 7.866s2.683-2.73-1.388-6.674l-4.072-3.942zM94.4 317.136l1.673 3.444 10.172-4.94s-1.647-3.456-6.746-.98l-5.098 2.476z"/>
        <path fill="url(#A)" d="M33.725 305.273l-2.828 4.959 4.072 3.943 4.205-4.627z"/>
        <path fill="url(#B)" d="M98.358 309.067l1.142 5.593-5.1 2.476-2.415-4.974z"/>
        <path fill="#EF4955" d="M85.214 262.204c-4.045-.27-11.287 2.61-13.71 5.704-2.436 3.108-5.171 1.67-4.543 5.514l24.643 38.925 8.667-4.209s-1.205-15.12-13.763-43.394c-.429-.092-.838-2.51-1.294-2.54"/>
        <path fill="#EF4955" d="M86.627 252.257c-.166-4.352-.43-8.212-.755-11.623-1.616-16.99-4.54-23.933-4.599-24.043l-5.949-.42-.602 12.265H60.69l-.454-12.55s-5.888 1.627-5.891 1.636c-.1.295-2.884 9.527-5.118 24.102a234.94 234.94 0 0 0-1.994 17.438 951.85 951.85 0 0 0-.556 7.54c-.07 1-.364 2.064-.427 3.008-.064.957.391 1.498.905 2.313 1.241 1.971 3.288 3.796 5.383 4.813 2.095 1.018 4.808 1.576 7.112 1.588 1.962.01 4.472.598 6.253-.494.96-.59 1.304-1.696 1.915-2.594.749-1.098 1.64-2.1 2.639-2.977 4.016-3.529 9.85-4.989 14.82-2.631.519.245.995.531 1.44.844.17-5.507.162-11.566-.09-18.215"/>
        <path fill="#EF4955" d="M66.96 276.4c.794-5.164-3.356-7.726-8.515-10.217-2.955-1.427-7.539-2.183-10.42-.39-13.295 31.568-15.175 41.56-15.175 41.56l9.943 3.45S66.552 276.88 66.96 276.4"/>
        <path fill="#3683FF" d="M60.094 216.17l.596 12.266h14.033l.602-12.266a8.82 8.82 0 0 1-7.617 4.368 8.816 8.816 0 0 1-7.614-4.368M49.227 241.624v-.003c2.234-14.572 5.017-23.804 5.118-24.099l.002-.006v-.002s-4.139.284-9.598 7.668c-2.61 3.528-4.39 8.641-4.39 8.641l8.868 7.8zM84.438 229.834c.275 1.544.382 3.288.534 5.021 2.516-1.018 5.12-1.89 7.378-3.326 1.14-5.547 2.453-12.698.532-20.852-.802.052-9.442 6.306-11.809 5.878.702.128 1.646 5.653 1.789 6.166.652 2.34 1.15 4.723 1.576 7.113"/>
        <g fill="#FF9A01">
            <path d="M59.666 243.183a.285.285 0 0 0 .285-.284v-.57h.57a.285.285 0 0 0 0-.57h-1.14v1.14c0 .157.128.284.285.284M59.382 246.357v-1.73a.285.285 0 0 1 .57 0v1.73a.284.284 0 1 1-.57 0m16.896.012v-1.729a.285.285 0 1 1 .57 0v1.729a.285.285 0 1 1-.57 0m-16.896 3.445v-1.728a.285.285 0 1 1 .57 0v1.728a.285.285 0 1 1-.57 0m16.896.013v-1.729a.284.284 0 1 1 .57 0v1.73a.285.285 0 0 1-.57 0m-16.452 3.5a4.781 4.781 0 0 1-.439-1.77.284.284 0 1 1 .569-.028c.026.532.156 1.057.388 1.56a.286.286 0 0 1-.26.404.284.284 0 0 1-.258-.165m16.194.15a.285.285 0 0 1-.139-.378 4.211 4.211 0 0 0 .392-1.56.285.285 0 0 1 .569.03c-.031.604-.18 1.2-.444 1.77a.284.284 0 0 1-.378.139m-13.812 2.505a7.464 7.464 0 0 1-1.37-1.157.285.285 0 1 1 .42-.386 6.9 6.9 0 0 0 1.265 1.068.285.285 0 0 1-.315.475m11.408-.074a.284.284 0 0 1 .08-.394 6.912 6.912 0 0 0 1.268-1.066.285.285 0 1 1 .418.387 7.45 7.45 0 0 1-1.371 1.154.283.283 0 0 1-.395-.08m-8.142 1.439a10.692 10.692 0 0 1-1.69-.535.285.285 0 0 1 .216-.527c.506.209 1.045.379 1.601.506a.285.285 0 0 1-.127.556m4.928-.212a.284.284 0 0 1 .215-.341 10.204 10.204 0 0 0 1.601-.504.284.284 0 1 1 .217.526c-.537.221-1.106.4-1.692.533a.284.284 0 0 1-.34-.215m-3.179.473a.285.285 0 0 1 .042-.569c.555.041 1.126.042 1.686.001a.285.285 0 1 1 .04.568 12.3 12.3 0 0 1-1.768 0M76.563 243.183a.285.285 0 0 0 .285-.284v-1.14h-1.14a.285.285 0 0 0 0 .57h.57v.57c0 .157.128.284.285.284M72.049 242.044c0-.157.127-.285.285-.285h1.687a.285.285 0 0 1 0 .57h-1.687a.284.284 0 0 1-.285-.285m-3.375 0c0-.157.128-.285.285-.285h1.687a.285.285 0 0 1 0 .57H68.96a.285.285 0 0 1-.285-.285m-3.375 0c0-.157.127-.285.284-.285h1.688a.285.285 0 0 1 0 .57h-1.688a.285.285 0 0 1-.284-.285m-3.376 0c0-.157.128-.285.285-.285h1.688a.284.284 0 1 1 0 .57h-1.688a.285.285 0 0 1-.285-.285"/>
        </g>
        <path fill="url(#C)" d="M41.605 234.823s-2.543 8.898-4.54 14.878c-1.701 5.09-1.972 13.907-1.986 18.79-.003.86-.467 5.82.014 6.875.98 2.151 4.034-1.05 5.374-2.399.651-.655-.852-3.358-.852-3.358s5.17-12.956 5.56-16c.391-3.045 4.052-11.985 4.052-11.985l-7.622-6.8z"/>
        <path fill="#FC7354" d="M49.227 241.624l-7.622-6.801-.352 1.219 7.484 6.805z"/>
        <path fill="url(#D)" d="M60.094 216.17a8.817 8.817 0 0 0 7.615 4.367 8.819 8.819 0 0 0 7.616-4.367c.004-.007-1.298-1.946-1.398-2.172-.377-.843-.864-.978-1.72-1.295-1.237-.459-2.54-.664-3.81-1.005-1.374-.37-2.723-.912-4.078-1.35-.463-.15-1.173-.764-1.659-.706-.55.066-.539.696-.593 1.146-.102.843-.056 1.87-.356 2.673a8.81 8.81 0 0 1-1.617 2.709"/>
        <path fill="url(#E)" d="M56.489 196.454c-.545.87-.203 2.448-.037 3.372.397 2.197 1.17 4.355 2.038 6.41.432.775.941 1.564 1.526 2.325 1.708 2.241 4.058 4.26 6.899 5.118a10.133 10.133 0 0 0 3.284.425c1.5-.056 3.101-.448 4.787-1.277 1.761-.867 3.09-1.98 4.054-3.253a10.327 10.327 0 0 0 1.557-2.964c.736-2.196.786-4.555.55-6.84-.192-1.839-.892-3.452-1.618-5.127-.587-1.359-.684-2.667-1.525-3.94-1.609-2.437-3.867-3.514-6.785-3.035-3.288.54-5.756 1.729-8.396 3.697-.932.695-1.827 1.437-2.732 2.166-1.141.92-2.812 1.664-3.602 2.923"/>
        <path fill="#4F3F38" d="M36.501 197.283c-3.055-2.83-1.894-8.495 4.36-10.586 4.72-1.579 8.681 2.747 9.805 4.138a8.161 8.161 0 0 1 1.645-3.137c2.822-3.333 8.303-2.72 8.762-2.945.46-.227 2.29-3.686 5.46-4.5a9.55 9.55 0 0 1 3.122-.302 10.22 10.22 0 0 1-.013-.258c1.742.747 3.387 1.673 5.032 2.658.246.147.493.013.596-.184.057-.109 2.257 3.261 2.401 3.58.904 1.989 4.118 7.598 1.941 9.563-.198-1.736-.51-3.378-1.787-4.613-.293.523-1.268.84-1.816 1.083-1.834.816-3.685 1.687-5.573 2.396a33.22 33.22 0 0 1-6.072 1.613c-1.266.205-2.588.378-3.871.42-.837.026-2.342-.481-2.985-.28.665 1.61.67 3.302 1.571 4.882.556.972 1.304 1.882 2.088 2.628-.724-.564-3.22-2.018-3.555-.502-.195.888.25 2.342.754 2.903.713.792 2.046 1.077 2.46 2.064-2.073.42-4.399-1.687-5.672-3.1-1.463-1.625-2.759-3.802-3.456-5.883-.603-1.8-1.343-3.556-1.36-5.501-.323-.128-1.633-.564-2.428.35-.911 1.05.742 3.541 1.746 5s1.429 5.051-3.478 7.444c-5.31 2.588-9.065-2.174-9.065-2.174s5.468-1.131-.612-6.757"/>
        <path fill="#4F3F38" d="M71.977 180.912a32.562 32.562 0 0 0-2.776-1.726c-.125-2.337.109-7.38 4.247-8.615 5.435-1.623 9.944 3.745 9.72 9.634-.193 5.036 4.506 1.064 4.506 1.064s3.207 6.263-2.769 9.2c-4.321 2.126-7.834-2.696-8.337-7.764-.377-3.82-3.51-2.403-4.591-1.793"/>
        <path fill="#3683FF" d="M73.758 182.914c-.602-.422-1.332-1.827-1.817-2.876-.281.186-.587.247-.855.138-.256-.101-.43-.337-.51-.642-1.07.419-2.53.913-3.245.804-1.208-.183.618-5.109 1.504-5.726.973-.676 1.948 1.334 2.52 2.852.285-.2.603-.268.88-.157.29.117.478.408.538.776 1.46-.71 3.606-1.528 3.845-.35.216 1.058-1.861 5.883-2.86 5.181M51.918 195.967c.033-.735-.635-2.17-1.17-3.195.318-.108.553-.314.631-.592.075-.265-.004-.548-.198-.796.985-.593 2.266-1.448 2.617-2.08.592-1.07-4.424-2.628-5.453-2.303-1.13.358-.133 2.357.721 3.736-.332.105-.58.315-.66.601-.086.302.03.628.285.9-1.454.725-3.41 1.925-2.623 2.833.707.817 5.796 2.116 5.85.896"/>
    </g>
</svg>
