<svg xmlns="http://www.w3.org/2000/svg" xmlns:xlink="http://www.w3.org/1999/xlink" width="106" height="82" viewBox="0 0 106 82">
    <defs>
        <path id="a" d="M0 .474h89.731v19.57H.001z"/>
        <path id="c" d="M27.114.735c-.619.352-1.074.725-2.475.805-1.074.062-1.053 1.14-3.985 1.5-1.94.239-9.192.488-14.255 1.333-2.343.39-2.773.427-5.522 1.36-.793.27.417-.024-.195 1.026-.538.92-.549 2.228 3.068 1.733 3.497-.478 16.071-4.754 18.836-3.542.805.352 2.637.466 4.041.177.767-.157 2.705.003 3.582-2.318.313-.829-1.14-.62-2.582-.414-.968.14-1.931.279-2.354.105-.574-.237 1.057-.323 1.73-.872.678-.55.711-.992.412-.992a.647.647 0 0 0-.3.099"/>
        <linearGradient id="d" x1="-.001%" x2="100.001%" y1="50.003%" y2="50.003%">
            <stop offset="0%" stop-color="#FBBDA7"/>
            <stop offset="100%" stop-color="#FBBDA7"/>
        </linearGradient>
        <path id="f" d="M.875 6.377c-2.497 1.049 5.484 7.377 6.318 4.26.35-1.306 1.036-.81.878-1.125-.284-3.267 2.315-4.578 2.315-4.578S8.292 2.966 5.683.017C5.62 2.395 4.149 5 .875 6.377"/>
        <linearGradient id="g" x1="-.001%" x2="100.004%" y1="50%" y2="50%">
            <stop offset="0%" stop-color="#FBBDA7"/>
            <stop offset="100%" stop-color="#FBBDA7"/>
        </linearGradient>
        <path id="i" d="M28.387.097c-.776.037-2.37.57-3.104.604-.42.02-.911-.032-1.456-.085-1.042-.1-2.285-.2-3.625.2-3.975.71-13.614.698-16.605 1.23C.005 2.686-.416 4.427.357 5.09c.878.757-.36.856.473.86 2.886.014 3.305-.083 5.65-.433 4.404-.658 10.019-3.146 13.74-2.746.246.026 2.166.888 5.465-.075 2.813-.82 3.994-2.6 2.769-2.6-.022 0-.044 0-.067.002"/>
        <linearGradient id="j" x1="0%" x2="100.001%" y1="50.002%" y2="50.002%">
            <stop offset="0%" stop-color="#FBCFBC"/>
            <stop offset="100%" stop-color="#FBCFBC"/>
        </linearGradient>
        <path id="l" d="M28.762.152c.648.31-.561 1.808-3.076 2.543-1.483.432-2.685.495-3.584.432-.701.103-1.242-.03-1.603-.283-.14-.04-.236-.07-.278-.075-3.722-.4-9.336 2.088-13.74 2.745-2.344.351-2.765.448-5.65.434-.834-.005.404-.103-.475-.86-.29-.248-.41-.65-.26-1.086a.917.917 0 0 0 .26.376c.879.757-.359.856.475.86 2.885.014 3.306-.083 5.65-.433 4.404-.658 10.018-3.146 13.74-2.746.042.004.137.034.277.075.362.254.903.385 1.604.283.899.063 2.101 0 3.584-.433"/>
        <linearGradient id="m" x1="-.001%" y1="50%" y2="50%">
            <stop offset="0%" stop-color="#FBBDA7"/>
            <stop offset="100%" stop-color="#FBBDA7"/>
        </linearGradient>
        <path id="o" d="M1.005 4.701C.359 5.81.73 6.484.965 7.596c.23 1.086.8 1.808.39 5.337-.027 1.325.206 2.096 2.026 3.364.756.527 2.662 1.665 3.178 1.637.793-.042.765-.785 3.128-2.682.607-.488 1.66-.47 1.58-1.18-.116-1.04.01-1.909.28-2.923 1.99-1.294 2.268-3.928 1.91-5.17C12.46 2.52 11.2 1.314 7.397.78A10.76 10.76 0 0 0 5.903.663c-2.552 0-3.32 1.324-4.898 4.038"/>
        <linearGradient id="p" x1=".002%" x2="99.999%" y1="49.999%" y2="49.999%">
            <stop offset="0%" stop-color="#FBCFBC"/>
            <stop offset="100%" stop-color="#FBCFBC"/>
        </linearGradient>
        <path id="r" d="M.549.226h22.349v30.69H.548z"/>
        <path id="t" d="M2.037.68C.567.927.69 1.906.59 2.68c-.085.659-.197 1.775.48 2.41.903-1.4 2.293-3.184 2.293-3.184S3.486.651 2.35.651c-.095 0-.2.01-.313.029"/>
        <linearGradient id="u" x1="-.004%" x2="99.991%" y1="50.004%" y2="50.004%">
            <stop offset="0%" stop-color="#FBCFBC"/>
            <stop offset="100%" stop-color="#FBCFBC"/>
        </linearGradient>
        <path id="w" d="M1.81.627C.564.738-.036 1.833.454 2.177c.653.46 1.877.548 3.622-.503.958-.576 1.343-.77 1.89-.63.55.14.363-.63-.515-.664a4.584 4.584 0 0 0-.197-.003c-.956 0-2.777.19-3.444.25"/>
        <linearGradient id="x" x1="-.004%" x2="100.003%" y1="49.997%" y2="49.997%">
            <stop offset="0%" stop-color="#FBBDA7"/>
            <stop offset="100%" stop-color="#FBBDA7"/>
        </linearGradient>
        <path id="z" d="M.184 1.084c-.503.586.898.677 1.923.846-.308.175-1.003.853-.544.841 1.161-.028 2.05-.556 2.72-.493.735.07 4.732 2.297 5.326 2.339 3.175.225 5.607.023 6.407-.325 1.407-.613.338-3.095-2.886-2.67-1.206.157-2.635.53-3.392.337-1.371-.352-1.772-.39-3.159-.71C5.366.966 5.205 1.064 4.944.991 4.312.814 3.738.24 2.83.185a7.62 7.62 0 0 0-.447-.014c-1.2 0-1.715.347-2.2.913"/>
        <linearGradient id="A" x1=".001%" y1="50.006%" y2="50.006%">
            <stop offset="0%" stop-color="#FBCFBC"/>
            <stop offset="100%" stop-color="#FBCFBC"/>
        </linearGradient>
        <path id="C" d="M14.197 2.33c-.857 1.032-1.573 1.958-2.065 2.741-.687-.385-2.922-.21-4.593-.037-1.025.107-1.838.214-1.955.192-.73-.139-1.37-.985-2.364-1.04C1.408 4.09.783 4.252.471 5.189c-.232.696 1.648 1.026 2.623 1.43.805.334 1.907.434 2.484.446.925.018 6.908.618 7.102.626 2.412.087 5.935-4.297 6.403-5.366.432-.988-.363-1.852-1.604-1.852-.95 0-2.162.508-3.282 1.857"/>
        <linearGradient id="D" x1="-.001%" x2="99.998%" y1="50.003%" y2="50.003%">
            <stop offset="0%" stop-color="#FBCFBC"/>
            <stop offset="100%" stop-color="#FBCFBC"/>
        </linearGradient>
        <path id="F" d="M1.474 1.255S.266 2.091.404 3.3c.141 1.207 5.434 2.553 4.922 1.198-.51-1.355.325-3.056 0-3.751C5.254.59 5.02.529 4.702.529c-1.104 0-3.228.726-3.228.726"/>
        <linearGradient id="G" x1=".011%" y1="49.998%" y2="49.998%">
            <stop offset="0%" stop-color="#FBBDA7"/>
            <stop offset="100%" stop-color="#FBBDA7"/>
        </linearGradient>
        <path id="I" d="M1.461 1.925c-.686.506-.697 2.729-.177 4.204-.265.638-.55 1.144-1.028 1.64-.326.338.231.752.353 1.251.473 1.942.16 2.318.558 2.659.258.221 1.71.392 2.319.42 1.46.07 4.895-.972 5.453-1.447.569-.485 2.099-2.777 2.207-3.616.311-2.406-.458-4.861-2.661-6.11C7.733.498 6.899.315 6.05.315c-1.639 0-3.331.682-4.59 1.609"/>
        <linearGradient id="J" x1=".001%" x2="99.998%" y1="49.997%" y2="49.997%">
            <stop offset="0%" stop-color="#FBCFBC"/>
            <stop offset="100%" stop-color="#FBCFBC"/>
        </linearGradient>
        <path id="L" d="M.545 1.366S1.56 2.621 2.215 3.62c.516-.546.448-1.395.394-1.894C2.546 1.137 2.652.373 1.555.31a1.356 1.356 0 0 0-.09-.002c-1.003 0-.92 1.06-.92 1.06"/>
        <linearGradient id="M" x1="-.006%" x2="100.012%" y1="50.003%" y2="50.003%">
            <stop offset="0%" stop-color="#FBCFBC"/>
            <stop offset="100%" stop-color="#FBCFBC"/>
        </linearGradient>
    </defs>
    <g fill="none" fill-rule="evenodd">
        <path fill="#DBF1FB" d="M4.535 37.24c-.897.733-2.416.611-3.173-.253-2.699-3.083-.314-10.717 4.713-9.619 1.886.412 3.303 2.484 2.452 4.29-.478 1.016-1.748 1.539-2.353 2.498-.625.991-.669 2.291-1.64 3.084m94.802-11.696c.29.397.5.905.329 1.36-.122.324-.422.564-.75.708-.686.3-1.502.229-2.202-.04-.7-.271-1.303-.722-1.882-1.184-.255-.204-.515-.42-.65-.71-.097-.207-.123-.44-.132-.667a3.425 3.425 0 0 1 .14-1.183c.162-.5.471-.943.796-1.364.485-.628 1.18-1.364 2.094-1.213.56.092.682.396.693.895.01.55-.125 1.082.092 1.617.287.704 1.026 1.173 1.472 1.781M73.113 4.127c-.251.163-.573.205-.869.14a1.154 1.154 0 0 1-.427-.19c-.858-.622-.524-1.784.566-1.674.88.09 1.726 1.08.73 1.724M70.575 8.24c-.044.689-.594 1.275-1.244 1.58-.65.303-1.388.375-2.11.428-1.04.075-2.233.066-2.94-.668-.487-.506-.613-1.255-.5-1.933.285-1.702 1.386-3.41 3.424-3.18 1.521.172 3.46 2.313 3.37 3.773M24.927 9.395c-2.668-.592-3.518 2.153-3.42 4.106.019.38.041.774.221 1.114.254.482.788.778 1.33.931.878.25 1.824.19 2.719.004.57-.118 1.155-.302 1.56-.704 1.636-1.623-.42-5.01-2.41-5.451m-11.14 61.604c-4.71.046-11.722-2.527-10.533-8.283.805-3.901-2.535-7.564-3.14-11.495-.697-4.528 1.852-9.328 6.208-11.685 1.551-.84 3.363-1.439 4.432-2.753 3.297-4.055-2.25-9.09-.127-14.506 1.22-3.11 4.822-4.841 9.61-4.544 4.917.305 9.631-.59 10.252-4.989.502-3.555.467-6.04 4.26-9.084 6.34-5.086 22.115-5.762 25.319 3.76.928 2.758 3.595 8.805 12.816 3.686 7.18-3.986 24.187.614 18.758 12.133-2.14 4.541 2.066 6.008 8.614 8.354 4.886 1.75 8.984 10.545-1.033 18.08-1.434 1.079 1.925 4.148 3.324 5.264 8.059 6.433.476 15.886-7.08 16.062 0 0-76.971-.046-81.68 0"/>
        <g transform="translate(8 61.545)">
            <mask id="b" fill="#fff">
                <use xlink:href="#a"/>
            </mask>
            <path fill="#DBD6D1" d="M88.734 14.45c-30.152 8.42-75.563 6.147-87.35.963-6.56-2.886 12.03-15.62 17.535-14.91 33.235 4.272 43.59.194 57.858.194 6.82 0 16.015 12.62 11.957 13.753" mask="url(#b)"/>
        </g>
        <g transform="translate(39.403 47.514)">
            <mask id="e" fill="#fff">
                <use xlink:href="#c"/>
            </mask>
            <path fill="url(#d)" d="M27.114.735c-.619.352-1.074.725-2.475.805-1.074.062-1.053 1.14-3.985 1.5-1.94.239-9.192.488-14.255 1.333-2.343.39-2.773.427-5.522 1.36-.793.27.417-.024-.195 1.026-.538.92-.549 2.228 3.068 1.733 3.497-.478 16.071-4.754 18.836-3.542.805.352 2.637.466 4.041.177.767-.157 2.705.003 3.582-2.318.313-.829-1.14-.62-2.582-.414-.968.14-1.931.279-2.354.105-.574-.237 1.057-.323 1.73-.872.678-.55.711-.992.412-.992a.647.647 0 0 0-.3.099" mask="url(#e)"/>
        </g>
        <path fill="#003A36" d="M18.125 57.91c-2.315 2.86-3.675 11.822 6.856 12.162 10.531.34 20.805-4.07 20.97-8.375.222-5.776-26.618-5.279-27.826-3.786"/>
        <path fill="#003A36" d="M36.237 64.952c-1.667 3.479-13.368 5.455 0 5.455 14.752 0 16.783-6.098 15.027-10.118-1.572-3.6-14.156 2.847-15.027 4.663"/>
        <path fill="#3A2D28" d="M36.88 40.88s-.787 3.932 1.56 1.424c2.349-2.508 3.35-2.579 4.504-5.48 1.155-2.902.718-10.161-.09-11.353-.807-1.192-6.617 4.206-6.617 4.206l.642 11.203z"/>
        <path fill="#D5414C" d="M34.543 37.33c5.067-2.18 5.413 4.356 6.557 9.177.763 3.218 1.13 4.907 1.187 5.779.09 1.36-.298 3.878-1.475 3.17-1.178-.71-3.68-3.097-5.568-7.747-1.415-3.485-5.536-8.3-.701-10.38"/>
        <g transform="translate(30.049 27.47)">
            <mask id="h" fill="#fff">
                <use xlink:href="#f"/>
            </mask>
            <path fill="url(#g)" d="M.875 6.377c-2.497 1.049 5.484 7.377 6.318 4.26.35-1.306 1.036-.81.878-1.125-.284-3.267 2.315-4.578 2.315-4.578S8.292 2.966 5.683.017C5.62 2.395 4.149 5 .875 6.377" mask="url(#h)"/>
        </g>
        <path fill="#004947" d="M15.84 66.167c-1.669 3.479.29 12.378 13.255 9.125 12.966-3.254 23.703-10.893 22.17-15.004-2.06-5.513-34.555 4.063-35.426 5.88"/>
        <g transform="translate(38.067 52.19)">
            <mask id="k" fill="#fff">
                <use xlink:href="#i"/>
            </mask>
            <path fill="url(#j)" d="M28.387.097c-.776.037-2.37.57-3.104.604-.42.02-.911-.032-1.456-.085-1.042-.1-2.285-.2-3.625.2-3.975.71-13.614.698-16.605 1.23C.005 2.686-.416 4.427.357 5.09c.878.757-.36.856.473.86 2.886.014 3.305-.083 5.65-.433 4.404-.658 10.019-3.146 13.74-2.746.246.026 2.166.888 5.465-.075 2.813-.82 3.994-2.6 2.769-2.6-.022 0-.044 0-.067.002" mask="url(#k)"/>
        </g>
        <g transform="translate(38.067 52.19)">
            <mask id="n" fill="#fff">
                <use xlink:href="#l"/>
            </mask>
            <path fill="url(#m)" d="M28.762.152c-.398.584-1.471 1.364-3.076 1.832-1.483.433-2.685.496-3.584.433-.701.102-1.242-.029-1.603-.283-.14-.04-.236-.07-.278-.075-3.722-.4-9.336 2.088-13.74 2.746-2.344.35-2.765.447-5.65.433-.834-.004.404-.103-.475-.86a.917.917 0 0 1-.26-.376c-.15.437-.03.838.26 1.087.879.756-.359.854.475.859 2.885.014 3.306-.083 5.65-.434 4.404-.657 10.018-3.145 13.74-2.745.042.004.137.035.277.075.362.254.903.386 1.604.283.899.063 2.101 0 3.584-.432C28.2 1.96 29.41.462 28.762.152" mask="url(#n)"/>
        </g>
        <path fill="#EF4955" d="M39.934 40.547a2.327 2.327 0 0 0-.149-.717c-1.485-3.807-2.32-3.157-6.87-5.85-2.461-1.456-8.587 2.63-13.972 12.752-5.385 10.12-6.207 17.428-3.604 22.238 1.694 3.13 7.71-6.859 13.57-7.461-3.236-3.388-3.793-5.245-.45-7.288 1.359-.83 3.731-2.736 5.968-4.961.81 4.74 2.732 7.838 3.693 8.774.984.959 2.565-.411 2.61-2.493.02-.873-.382-3.16-.39-6.467-.006-2.938.396-6.397-.406-8.527"/>
        <g transform="translate(37.399 17.447)">
            <mask id="q" fill="#fff">
                <use xlink:href="#o"/>
            </mask>
            <path fill="url(#p)" d="M1.005 4.701C.359 5.81.73 6.484.965 7.596c.23 1.086.8 1.808.39 5.337-.027 1.325.206 2.096 2.026 3.364.756.527 2.662 1.665 3.178 1.637.793-.042.765-.785 3.128-2.682.607-.488 1.66-.47 1.58-1.18-.116-1.04.01-1.909.28-2.923 1.99-1.294 2.268-3.928 1.91-5.17C12.46 2.52 11.2 1.314 7.397.78A10.76 10.76 0 0 0 5.903.663c-2.552 0-3.32 1.324-4.898 4.038" mask="url(#q)"/>
        </g>
        <g transform="translate(28.713 15.443)">
            <mask id="s" fill="#fff">
                <use xlink:href="#r"/>
            </mask>
            <path fill="#4F3F38" d="M22.523 9.779c2.068-4.99-4.913-10.437-8.99-9.433C-.064 3.694 7.022 11.848 2.79 16.03c-5.566 5.501.508 14.724 4.407 14.883 4.11.168 2.892-4.97 2.384-9.433-.508-4.465.788-6.51 2.14-7.846 1.245-1.23 1.674-6.088 6.989-6.078 2.72.004 2.389 5.659 3.812 2.223" mask="url(#s)"/>
        </g>
        <g transform="translate(38.067 22.792)">
            <mask id="v" fill="#fff">
                <use xlink:href="#t"/>
            </mask>
            <path fill="url(#u)" d="M2.037.68C.567.927.69 1.906.59 2.68c-.085.659-.197 1.775.48 2.41.903-1.4 2.293-3.184 2.293-3.184S3.486.651 2.35.651c-.095 0-.2.01-.313.029" mask="url(#v)"/>
        </g>
        <g transform="translate(58.111 52.859)">
            <mask id="y" fill="#fff">
                <use xlink:href="#w"/>
            </mask>
            <path fill="url(#x)" d="M1.81.627C.564.738-.036 1.833.454 2.177c.653.46 1.877.548 3.622-.503.958-.576 1.343-.77 1.89-.63.55.14.363-.63-.515-.664a4.584 4.584 0 0 0-.197-.003c-.956 0-2.777.19-3.444.25" mask="url(#y)"/>
        </g>
        <path fill="#003A36" d="M87.034 61.357c-2.868-3.131-8.295.147-11.257.724-1.986.387-3.067 1.51-4.693 2.811-1.56 1.25-2.428 1.604-4.16 1.942-.367.072-.004.828.295 1.45.582 1.212.787 2.263 1.505 1.604.952-.872 2.846-.854 4.422-1.546 1.312-.576 2.567-1.626 3.372-1.781 1.332-.258 4.014.21 6.614.121 5.197-.175 6.114-2.913 3.902-5.325"/>
        <g transform="translate(66.129 49.518)">
            <mask id="B" fill="#fff">
                <use xlink:href="#z"/>
            </mask>
            <path fill="url(#A)" d="M.184 1.084c-.503.586.898.677 1.923.846-.308.175-1.003.853-.544.841 1.161-.028 2.05-.556 2.72-.493.735.07 4.732 2.297 5.326 2.339 3.175.225 5.607.023 6.407-.325 1.407-.613.338-3.095-2.886-2.67-1.206.157-2.635.53-3.392.337-1.371-.352-1.772-.39-3.159-.71C5.366.966 5.205 1.064 4.944.991 4.312.814 3.738.24 2.83.185a7.62 7.62 0 0 0-.447-.014c-1.2 0-1.715.347-2.2.913" mask="url(#B)"/>
        </g>
        <path fill="#52C5D1" d="M82.985 49.45c.814.081 2.724.59 1.25 2.597-1.474 2.006-3.28 2.885-4.177 2.345-.853-.514-1.405-2.815-.843-3.729.49-.796 2.927-1.297 3.77-1.213"/>
        <path fill="#5CD6EA" d="M89.18 55.822c-.136 2.732 1.682 8.288 1.58 10.553-.13 2.905-2.495 4.009-9.72-.524-2.219-1.392-1.83-4.273-.593-6.637 1.742-3.328 1.068-4.983 1.764-7.932.566-2.395 1.688-3.938 5.354-2.395 1.818.765 1.773 3.774 1.615 6.935"/>
        <g transform="translate(67.465 51.523)">
            <mask id="E" fill="#fff">
                <use xlink:href="#C"/>
            </mask>
            <path fill="url(#D)" d="M14.197 2.33c-.857 1.032-1.573 1.958-2.065 2.741-.687-.385-2.922-.21-4.593-.037-1.025.107-1.838.214-1.955.192-.73-.139-1.37-.985-2.364-1.04C1.408 4.09.783 4.252.471 5.189c-.232.696 1.648 1.026 2.623 1.43.805.334 1.907.434 2.484.446.925.018 6.908.618 7.102.626 2.412.087 5.935-4.297 6.403-5.366.432-.988-.363-1.852-1.604-1.852-.95 0-2.162.508-3.282 1.857" mask="url(#E)"/>
        </g>
        <g>
            <path fill="#85EEF9" d="M84.182 51.444c.94-.22 3.08-.335 2.656 2.322-.425 2.658-1.889 4.162-2.987 3.975-1.182-.202-2.985-2.411-2.847-3.672.107-.976 2.29-2.418 3.178-2.625"/>
            <path fill="#554443" d="M67.54 67.106c-.985-1.085-2.873-4.88-4.516-2.03-.45.78 1.812 5.864 2.935 6.19 1.279.371 2.116-.814 2.44-1.006 1.438-.849-.277-2.512-.86-3.154"/>
            <path fill="#003A36" d="M62.834 64.89s.588-.892 1.334-.797c1.618.202 3.416 6.717 2.892 7.13-.577.452-1.01.313-1.01.313l-3.216-6.646z"/>
            <path fill="#5CD6EA" d="M62.812 65c.022-.374.838-1.812 1.925.633 1.087 2.444 2.463 5.822 1.542 5.926-.921.105-3.69-2.671-3.467-6.558"/>
            <path fill="#003A36" d="M65.452 65.508c-.588.093-2.034 1.522-.688 3.913 1.345 2.391 2.394 3.484 3.593 3.217.509-.114.42-.08.708-.431.761-.925-3.613-6.7-3.613-6.7"/>
            <path fill="#705D5C" d="M69.338 68.227c-.986-1.086-4.076-4.941-4.451-1.327-.286 2.751 2.315 5.045 3.322 5.697.433.28 1.967-.825 2.29-1.017 1.439-.849-.58-2.711-1.161-3.353"/>
            <path fill="#004947" d="M89.751 64.183c-2.598-3.852-8.271-.832-11.267-.542-2.01.195-3.178 1.322-4.904 2.585-1.657 1.212-2.55 1.505-4.301 1.674-.372.037-.072.927.174 1.66.479 1.428.596 2.63 1.365 1.978 1.02-.862 2.904-.615 4.53-1.2 1.354-.488 2.69-1.513 3.504-1.59 1.347-.127 3.979.717 6.575.932 5.189.428 6.326-2.528 4.324-5.497"/>
        </g>
        <g transform="translate(82.833 44.841)">
            <mask id="H" fill="#fff">
                <use xlink:href="#F"/>
            </mask>
            <path fill="url(#G)" d="M1.474 1.255S.266 2.091.404 3.3c.141 1.207 5.434 2.553 4.922 1.198-.51-1.355.325-3.056 0-3.751C5.254.59 5.02.529 4.702.529c-1.104 0-3.228.726-3.228.726" mask="url(#H)"/>
        </g>
        <g transform="translate(80.16 36.823)">
            <mask id="K" fill="#fff">
                <use xlink:href="#I"/>
            </mask>
            <path fill="url(#J)" d="M1.461 1.925c-.686.506-.697 2.729-.177 4.204-.265.638-.55 1.144-1.028 1.64-.326.338.231.752.353 1.251.473 1.942.16 2.318.558 2.659.258.221 1.71.392 2.319.42 1.46.07 4.895-.972 5.453-1.447.569-.485 2.099-2.777 2.207-3.616.311-2.406-.458-4.861-2.661-6.11C7.733.498 6.899.315 6.05.315c-1.639 0-3.331.682-4.59 1.609" mask="url(#K)"/>
        </g>
        <path fill="#F4815B" d="M87.888 48.642c-1.067-.828 1.475-4.247-2.257-5.523-2.697-.922.227-2.36-1.82-3.532-2.047-1.173-3.375 2.98-2.82.446.665-3.043 8.297-6.561 11.48-.248 1.878 3.724-1.425 8.189-4.583 8.857"/>
        <g transform="translate(85.505 42.168)">
            <mask id="N" fill="#fff">
                <use xlink:href="#L"/>
            </mask>
            <path fill="url(#M)" d="M.545 1.366S1.56 2.621 2.215 3.62c.516-.546.448-1.395.394-1.894C2.546 1.137 2.652.373 1.555.31a1.356 1.356 0 0 0-.09-.002c-1.003 0-.92 1.06-.92 1.06" mask="url(#N)"/>
        </g>
    </g>
</svg>
