<svg xmlns="http://www.w3.org/2000/svg" xmlns:xlink="http://www.w3.org/1999/xlink" width="281" height="121" viewBox="0 0 281 121">
    <defs>
        <path id="a" d="M0 .565h208.112v9.675H0z"/>
        <path id="c" d="M0 119.68h280.112V.064H0z"/>
        <path id="e" d="M1.297.422S.184 1.482.157 1.54c-.028.058.1.708.102.75 0 .043 1.903.044 1.903.044s.137-.244.182-.757C2.39 1.065 1.994.52 1.75.412l-.453.01z"/>
        <linearGradient id="f" x1="33.397%" x2="60.081%" y1="27.33%" y2="81.722%">
            <stop offset="0%" stop-color="#FBCF95"/>
            <stop offset="100%" stop-color="#E89A5D"/>
        </linearGradient>
        <path id="h" d="M.703 2.955c-.85 3.44.647 5.098 1.902 5.624 1.254.526 5.503 1.578 8.74 1.74.89-2.63 1.052-6.92 1.052-6.92C8.472 2.307 6.166.082 6.166.082S5.882.047 5.443.047c-1.333 0-4.1.321-4.74 2.908"/>
        <linearGradient id="i" x1="54.37%" x2="42.173%" y1="25.046%" y2="85.369%">
            <stop offset="0%" stop-color="#64E2C8"/>
            <stop offset="100%" stop-color="#50C1C6"/>
        </linearGradient>
    </defs>
    <g fill="none" fill-rule="evenodd">
        <path fill="#DBF1FB" d="M11.637 72.901c-1.26 1.065-3.393.89-4.456-.367-3.791-4.48-.442-15.574 6.62-13.978 2.648.598 4.64 3.61 3.444 6.234-.672 1.476-2.456 2.236-3.306 3.63-.878 1.44-.939 3.33-2.302 4.481M146.65 56.696c.41.58.706 1.32.464 1.985-.172.473-.594.823-1.056 1.033-.966.44-2.115.335-3.1-.059-.985-.394-1.836-1.053-2.652-1.727-.358-.297-.724-.613-.914-1.035-.137-.304-.174-.643-.186-.976-.022-.581.025-1.17.198-1.727.227-.729.662-1.376 1.12-1.99.683-.918 1.66-1.991 2.95-1.77.786.134.959.577.974 1.305.016.803-.176 1.58.13 2.36.404 1.028 1.444 1.713 2.072 2.601m-37.694-31.31c-.36.206-.821.26-1.245.177a1.774 1.774 0 0 1-.613-.24c-1.23-.786-.752-2.253.812-2.114 1.262.113 2.474 1.365 1.046 2.178m-3.36 6.217c-.06.945-.834 1.749-1.746 2.166-.912.417-1.95.516-2.962.588-1.463.103-3.138.09-4.13-.916-.685-.694-.862-1.722-.702-2.652.399-2.335 1.946-4.677 4.808-4.361 2.137.235 4.86 3.172 4.733 5.175M40.69 33.713c-3.65-.814-4.814 2.96-4.68 5.647.026.523.057 1.063.303 1.53.348.663 1.078 1.07 1.82 1.282 1.201.342 2.495.261 3.72.005.78-.163 1.58-.416 2.135-.968 2.238-2.232-.574-6.889-3.298-7.496M25.162 120.8c-6.682.064-16.632-3.588-14.946-11.76 1.144-5.539-3.595-10.74-4.454-16.32-.99-6.429 2.628-13.243 8.808-16.59 2.201-1.191 4.771-2.042 6.288-3.909 4.678-5.756-3.19-12.905-.18-20.594 1.73-4.415 6.841-6.873 13.635-6.451 6.977.433 13.666-.839 14.547-7.083.712-5.047.663-8.576 6.045-12.897 8.995-7.22 31.378-8.18 35.924 5.338 1.317 3.917 5.1 12.502 18.183 5.233 10.187-5.659 34.32.873 26.616 17.226-3.037 6.448 2.93 8.53 12.223 11.86 6.932 2.485 12.746 14.971-1.466 25.669-2.035 1.532 2.73 5.89 4.715 7.474 11.435 9.132.676 22.554-10.045 22.804 0 0-109.212-.066-115.893 0"/>
        <g transform="translate(0 .576)">
            <g transform="translate(0 109.44)">
                <mask id="b" fill="#fff">
                    <use xlink:href="#a"/>
                </mask>
                <path fill="#968274" d="M208.112 5.403c0 2.672-47.372 4.837-105.808 4.837C53.24 10.24 11.974 8.713 0 6.642V4.163C11.974 2.093 53.24.565 102.304.565c58.436 0 105.808 2.166 105.808 4.838" mask="url(#b)"/>
            </g>
            <path fill="#968274" d="M280.112 100.03c0 .828-29.784 1.499-66.526 1.499-30.848 0-56.794-.473-64.322-1.114v-.768c7.528-.642 33.474-1.114 64.322-1.114 36.742 0 66.526.67 66.526 1.498"/>
            <path fill="#FD5B51" d="M247.739 24.808h-1.865v.512a3.672 3.672 0 0 0-1.812 3.164v11.244h7.354V28.484a3.677 3.677 0 0 0-3.677-3.676"/>
            <path fill="#B52D2D" d="M245.874 24.808a3.677 3.677 0 0 0-3.677 3.676v11.244h7.354V28.484a3.677 3.677 0 0 0-3.677-3.676"/>
            <path fill="#603E54" d="M228.257 100.21h-1.865l18.314-60.482h1.865z"/>
            <path fill="#9D625C" d="M264.988 100.21h1.864l-18.314-60.482h-1.865z"/>
            <path fill="#28A4B5" d="M245.447 33.707h-60.535v-2.452h60.535a1.225 1.225 0 1 1 0 2.452M224.119 37.17a2.93 2.93 0 0 1-2.93-2.93v-.533h5.86v.532a2.931 2.931 0 0 1-2.93 2.931M238.56 37.17a2.93 2.93 0 0 1-2.93-2.93v-.533h5.86v.532a2.93 2.93 0 0 1-2.93 2.931"/>
            <path fill="#3D3F58" d="M188.962 68.995l.457-.912-3.814-7.697-.386 1.005z"/>
            <path fill="#3D3F58" d="M189.42 68.083l15.757-.311-.354.807-15.861.416z"/>
            <path fill="#8B8C9B" d="M205.177 67.771l-4.517-7.905-15.055.52 3.814 7.697z"/>
            <path fill="#844E6A" d="M203.901 57.134s-1.559 3.24-3.21 3.013c-1.65-.226-1.684-4.77-1.684-4.77l-1.993 9.75s-2.646.703-4.027-.924c-.26-3.528.406-9.207.406-9.207s-1.564 4.531-2.886 4.164c-2.02-.561-1.248-6.6-1.248-6.6l1.188-1.209s-.238 4.218.213 4.179c.976-.085 2.841-3.93 3.333-4.29.252-.184.902-.2 1.69-.12.93.094 2.055.324 2.952.576.855.24 1.505.498 1.583.678.231.529-.427 4.273 1.177 4.581 1.604.308 2.642-1.156 2.642-1.156l-.136 1.335z"/>
            <path fill="#FCC086" d="M201.856 43.252c-.005 1.36.167 2.542.558 3.464.393.923-1.493 5.267-5.346 3.995-2.408-.795-3.796-2.755-3.555-5.492.24-2.736 2.247-3.409 2.247-3.409l6.096 1.442z"/>
            <path fill="#3B3122" d="M193.423 45.686c.757.358 1.973-3.311 1.973-3.311s4.835 2.38 7.477.77c-1.248-1.208-.938-3.416-1.595-4.147-.656-.731-6.54 1.315-6.81 1.687-.27.372-.233.923-.233.923s-.487-.427-.867-.378c-.38.048-1.81 2.616.055 4.456"/>
            <path fill="#3B3122" d="M195.627 43.69c.42-.857 1.651-.894 1.651-.894l.24.228-1.891.666zM195.936 44.898c.48-.875 1.56-.426 1.62.009-.57-.291-1.318-.102-1.62-.009M199.928 44.848c.535-.563 1.171-.32 1.313-.02-.554-.077-1.313.02-1.313.02"/>
            <path fill="#166275" d="M205.23 75.314l-.303.95s-2.953-3.136-5.508-5.684c-1.799-1.795-3.399-3.296-3.632-3.208-.209.079-.02 1.42.303 3.082.552 2.855 1.497 6.66 1.497 6.66l-.32.826s-1.835-3.54-3.354-6.654c-1.085-2.221-2.007-4.226-1.991-4.574.037-.773.518-1.905 1.062-2.557l.003.048c1.382 1.627 4.027.925 4.027.925l.02-.1 3.568 4.478 4.629 5.808z"/>
            <path fill="#023745" d="M204.967 76.433c-.737.053-.223-3.278.44-3.464 1.192-.335.018 3.431-.44 3.464M197.322 78.233c-.736.053-.222-3.278.44-3.465 1.192-.336.018 3.431-.44 3.465"/>
            <path fill="#F5A07F" d="M198.256 45.555c.078.455 1.18.378 1.214.052.034-.326-1.268-.365-1.214-.052"/>
            <path fill="#FCC086" d="M193.862 45.77c-.925-.812-1.956.26-1.46 1.535.494 1.275 1.512.714 1.587-.119.074-.832-.127-1.415-.127-1.415"/>
            <path fill="#FFF" d="M196.479 46.515c2.297.925 4.278-.056 4.278-.056s-.132 1.729-1.923 1.869c-1.79.14-2.46-1.41-2.355-1.813"/>
            <path fill="#DEE8FF" d="M198.635 51.696l-1.574 1.524-1.377-2.1c.93.094 2.054.324 2.951.576"/>
            <path fill="#FCC086" d="M196.764 50.043c.036.919-.186 1.128-.174 1.381.005.142.326.417.665.474.268.045.556-.097.642-.19.192-.216.144-1.074.144-1.074l-1.277-.591z"/>
            <path fill="#97AFB9" d="M186.803 65.252a.653.653 0 0 1-.486-.786l6.75-28.59a.653.653 0 1 1 1.271.3l-6.748 28.59a.654.654 0 0 1-.787.486M201.774 65.252a.654.654 0 0 1-.487-.786l6.75-28.59a.654.654 0 0 1 1.271.3l-6.748 28.59a.653.653 0 0 1-.786.486"/>
            <path fill="#FCC086" d="M190.316 50.141c-.088.352-1.573-.163-1.251-.544.322-.38 1.37.07 1.251.544"/>
            <path fill="#FCC086" d="M190.225 50.76c-.088.352-1.573-.164-1.251-.545.322-.38 1.37.07 1.251.545"/>
            <path fill="#FCC086" d="M190.047 51.252c-.088.351-1.573-.164-1.25-.545.322-.38 1.37.07 1.25.545"/>
            <path fill="#FCC086" d="M189.892 51.676c-.077.311-1.392-.145-1.106-.482.285-.336 1.212.062 1.106.482M190.926 49.788c.243-.317.416.2.192.58-.225.38-.04.84-.155 1.12-.114.281-.485.482-.47-.392.018-.874.433-1.308.433-1.308M203.624 54.48c-.107-.384-.46.033-.392.469.067.436-.273.795-.27 1.097.001.303.272.627.58-.191.308-.818.082-1.375.082-1.375M203.774 55.538c-.048.36 1.522.431 1.364-.042-.158-.474-1.298-.443-1.364.042"/>
            <path fill="#FCC086" d="M203.63 56.147c-.048.36 1.522.43 1.364-.042-.158-.474-1.298-.444-1.364.042"/>
            <path fill="#FCC086" d="M203.613 56.67c-.049.359 1.522.43 1.364-.043-.159-.473-1.299-.443-1.364.043"/>
            <path fill="#FCC086" d="M203.6 57.12c-.044.319 1.346.382 1.206-.037-.14-.419-1.148-.392-1.207.038"/>
            <path fill="#FD5B51" d="M182.034 24.808h-1.865v.512a3.672 3.672 0 0 0-1.811 3.164v11.244h7.353V28.484a3.677 3.677 0 0 0-3.677-3.676"/>
            <path fill="#B52D2D" d="M180.17 24.808a3.677 3.677 0 0 0-3.677 3.676v11.244h7.353V28.484a3.677 3.677 0 0 0-3.677-3.676"/>
            <path fill="#603E54" d="M162.553 100.21h-1.865l18.314-60.482h1.865z"/>
            <path fill="#9D625C" d="M199.283 100.21h1.865l-18.314-60.482h-1.865z"/>
            <path fill="#28A4B5" d="M194.339 37.17a2.931 2.931 0 0 1-2.931-2.93v-.533h5.861v.532a2.93 2.93 0 0 1-2.93 2.931"/>
            <path fill="#1E7B88" d="M193.38 37.17a2.93 2.93 0 0 1-2.931-2.93v-.533h5.862v.532a2.931 2.931 0 0 1-2.932 2.931"/>
            <path fill="#28A4B5" d="M209.071 37.17a2.93 2.93 0 0 1-2.93-2.93v-.533h5.861v.532a2.931 2.931 0 0 1-2.93 2.931"/>
            <path fill="#1E7B88" d="M208.112 37.17a2.931 2.931 0 0 1-2.93-2.93v-.533h5.861v.532a2.931 2.931 0 0 1-2.931 2.931"/>
            <path fill="#803109" d="M237.1 54.833c2.18-.16 2.902 1.527 2.855 2.699-.046 1.171.187 2.096.389 2.344.202.248-3.245-5.043-3.245-5.043"/>
            <path fill="#702B08" d="M235.574 63.29c.534-.333 1.257-.32 1.794.008.539.327.88.944.902 1.574a2.197 2.197 0 0 1-.73 1.678 2.325 2.325 0 0 1-2.124.514 2.25 2.25 0 0 1-1.552-1.53c-.268-.958.206-2.058 1.062-2.564.246-.145.647.035.648.32"/>
            <path fill="#AD3D5B" d="M236.205 78.265c.976.801 4.867-3.817 5.265-4.566.398-.748.008-1.165.008-1.165s-3.205.53-3.562.79c-.359.26-2.665 2.33-2.699 2.857-.033.526.988 2.084.988 2.084"/>
            <path fill="#C7AD00" d="M250.798 79.231l-.51.448s-2.756-5.747-3.994-5.52a3.024 3.024 0 0 0-.584.182c-1.227.51-2.839 1.866-3.509 2.985-.04.069-.083.138-.127.21-.641.597-1.365 1.194-2.217 1.448-1.019.305-1.716.315-2.3 0l2.327-3.932.074-.124s3.166-3.097 6.054-3.098c.16 0 .32.01.478.03 3.259.416 4.308 7.371 4.308 7.371"/>
            <path fill="#C7AD00" d="M242.692 75.021l-6.753 2.365-.33-1.993.483-.32 3.255-2.167.601-.4c.016.052.033.103.051.154.158.418.442.788.77 1.104.825.802 1.923 1.257 1.923 1.257"/>
            <path fill="#D68156" d="M240.77 73.764c-.652.256-2.904 1.052-4.819 2.968l.006-.875s.045-.369.135-.784l3.255-2.167c.278-.104.511-.193.652-.247.158.419.442.79.77 1.105"/>
            <path fill="#E5C700" d="M246.417 82.473l-.652.19s-.052-6.375-1.27-6.695c-.396-.104-.802.112-1.243.473-.365.299-.753.696-1.178 1.094-.64.598-1.365 1.194-2.217 1.449-1.018.305-1.717.315-2.3 0-.63-.338-1.129-1.053-1.754-2.178h.007a9.59 9.59 0 0 0 3.315-1.3c.233-.146.487-.3.76-.454 1.033-.586 2.305-1.179 3.482-1.386.621-.11 1.216-.11 1.738.054.105.033.207.073.306.119h.002c.172.118.339.262.502.424.257.256.501.562.73.893 1.188 2.567-.228 7.317-.228 7.317"/>
            <path fill="#FF6EAF" d="M244.766 58.22s-1.963 3.175-3.989 4.996c-2.027 1.82-6.064 2.65-6.989 2.884-.925.234-2.966-2.88-3.693-5.57-.727-2.69-1.262-1.557-1.432-.164-.17 1.393.899 6.395 4.087 8.676.302 3.523 1.842 7.724 3.455 9.223-1.213-3.693 6.59-6.993 5.265-4.566.887-.95.392-1.269-1.157-1.895-1.549-.627-1.201-3.375-.575-4.441.626-1.068 5.593-7.912 5.593-7.912l-.565-1.231z"/>
            <path fill="#803109" d="M239.485 64.236c.911 1.188 5.703 1.266 4.119-3.684-.356 1.94-2.416 2.496-3.129.278-.792 2.494-.99 3.406-.99 3.406"/>
            <path fill="#FCC086" d="M234.341 64.293c1.655 1.406 3.436 1.659 4.38 1.17.942-.487 2.623-1.79 2.528-3.64-.096-1.85-1.342-2.277-1.984-4.699-.642-2.422-4.569-1.772-5.488-.416-.919 1.357.179 7.257.564 7.585"/>
            <path fill="#FCC086" d="M237.486 64.674c-.493.904-.06 1.095-.314 1.499-.254.404-1.101.38-1.204.002-.102-.378.15-1.275.15-1.275l1.368-.226z"/>
            <path fill="#97AFB9" d="M250.173 78.171l-11.876-41.278a.654.654 0 1 1 1.255-.361L251.43 77.81a.653.653 0 1 1-1.256.361"/>
            <path fill="#FFF" d="M236.791 60.485c.114.68-.242 1.304-.791 1.395-.551.091-1.09-.386-1.201-1.065-.113-.68.242-1.305.792-1.396.55-.092 1.088.386 1.2 1.066"/>
            <path fill="#667DC2" d="M236.923 60.617c.064.387-.138.742-.45.794-.313.051-.62-.22-.683-.606-.064-.387.137-.742.45-.794.313-.052.618.22.683.606"/>
            <path fill="#FFF" d="M238.176 59.953c.097.587.525 1.006.955.935.43-.071.7-.606.604-1.193-.098-.588-.526-1.007-.957-.935-.43.07-.699.605-.602 1.193"/>
            <path fill="#667DC2" d="M238.211 59.973c.055.333.298.571.543.53.244-.04.398-.343.342-.677-.055-.334-.298-.572-.542-.532-.245.041-.398.345-.343.679"/>
            <path fill="#F5A07F" d="M237.409 61.908c.17-.31.46-1.1 1.23-.445-.234.4-1.23.445-1.23.445"/>
            <path fill="#963232" d="M238.259 62.543c-.47.078-.416.962-.047.995.37.032.675-1.098.047-.995"/>
            <path fill="#9C3C0B" d="M234.244 59.28c.516-1.49 1.396-2.358 1.97-1.31-.367-.28-1.06-.346-1.97 1.31M237.608 57.539c.401-.97 1.413-.314 1.709.5-.524-.617-1.196-.976-1.709-.5"/>
            <path fill="#9C3C0B" d="M234.529 57.246c1.178-.72 2.254-.866 3.403-1.026 1.147-.16 1.081-.981-1.423-1.56-2.307-.533-5.068.67-6.131 3.455-1.065 2.786 1.538 8.44 3.201 9.144 4.362 1.848 2.263-2.944 2.263-2.944s-.275 1.592-1.347-.278c-1.073-1.87-.732-6.323.034-6.79"/>
            <path fill="#FCC086" d="M244.803 57.533c.079.354 1.577-.124 1.265-.513-.313-.388-1.372.035-1.265.513"/>
            <path fill="#FCC086" d="M244.879 58.153c.078.354 1.576-.123 1.264-.512-.313-.389-1.371.034-1.264.512"/>
            <path fill="#FCC086" d="M245.043 58.65c.08.353 1.577-.124 1.265-.513-.313-.39-1.371.034-1.265.513"/>
            <path fill="#FCC086" d="M245.187 59.078c.07.313 1.396-.11 1.12-.453-.278-.345-1.214.03-1.12.453M244.296 56.591c-.235-.322-.42.19-.206.576.215.386.019.84.126 1.124.107.283.473.493.479-.38.006-.875-.4-1.32-.4-1.32"/>
            <path fill="#8B8C9B" d="M235.994 76.234l16.113-.416.122.96-16.113.416z"/>
            <path fill="#3D3F58" d="M236.116 77.194l-1.465 2.57 16.297-.344 1.28-2.643z"/>
            <path fill="#3D3F58" d="M235.994 76.234l-1.586 2.741.243.79 1.465-2.571z"/>
            <path fill="#FCC086" d="M246.417 82.474l-.652.188s-.03-3.832-.613-5.702c-.146-.472-.327-.819-.553-.948a.404.404 0 0 0-.103-.044.938.938 0 0 0-.605.062l-1.217.032c-.717-.737-.253-1.922.694-2.397.745-.13 1.453-.106 2.044.174.446.305.86.776 1.233 1.316.114.248.205.516.273.798.076.305.127.627.16.957.243 2.528-.661 5.564-.661 5.564"/>
            <path fill="#B25959" d="M245.59 82.811c.18.366 2.696-.446 2.86-1.879.164-1.431-3.042 1.508-2.86 1.88"/>
            <path fill="#FCC086" d="M250.798 79.232l-.51.447s-2.756-5.747-3.994-5.52a2.93 2.93 0 0 0-.584.182c-1.092-.49-.825-2.12.303-2.51.16 0 .32.009.477.029 3.259.416 4.308 7.372 4.308 7.372"/>
            <path fill="#B25959" d="M250.2 79.753c.318.254 2.25-1.55 1.79-2.917-.46-1.366-2.113 2.658-1.79 2.917"/>
            <path fill="#97AFB9" d="M234.727 78.171l-11.876-41.278a.654.654 0 1 1 1.256-.361l11.876 41.278a.653.653 0 1 1-1.256.361"/>
            <path fill="#FCC086" d="M229.105 57.703c-.268.205-.1 2.426.394 2.866.495.44 1.792-.699 1.7-.884-.09-.186-.58-.226-.58-.226s.493-.181.428-.451c-.064-.271-.713-.183-.713-.183s.7-.377.651-.55c-.048-.172-.693-.186-.693-.186s.633-.546.385-.706c-.247-.16-1.572.32-1.572.32"/>
            <path fill="#1E7B88" d="M223.16 37.17a2.931 2.931 0 0 1-2.931-2.93v-.533h5.862v.532a2.931 2.931 0 0 1-2.932 2.931M237.6 37.17a2.93 2.93 0 0 1-2.93-2.93v-.533h5.862v.532a2.931 2.931 0 0 1-2.931 2.931"/>
            <path fill="#F9D13E" d="M179.114 112.389c-1.397 1.686-3.156 2.624-5.138 2.624-7.502 0-22.622-4.106-26.627-22.83-4.005-18.724.301-25.433-2.503-29.838-1.362-2.144-5.035-2.492-8.451-2.284-3.613.217-6.937 1.054-6.937 1.054l-.609-32.082c13.094-.432 33.94.769 38.81 22.898 1.676 7.612 2.456 14.768 2.559 18.857.124 4.933 1.904 9.004 9.072 13.986 4.79 12.38 3.714 22.913-.176 27.615"/>
            <path fill="#DA9E32" d="M179.114 112.389c-1.397 1.686-3.156 2.624-5.138 2.624-7.502 0-22.622-4.106-26.627-22.83-4.005-18.724.301-25.433-2.503-29.838-1.362-2.144-5.035-2.492-8.451-2.284a54.897 54.897 0 0 1 5.063-8.286l2.699-1.474c6.028 4.594 9.785 12.035 9.901 19.613.072 4.734-1.19 9.38-1.675 14.09-.483 4.71-.063 9.837 2.889 13.534 3.456 4.33 9.415 5.619 14.919 6.228 4.085.452 6.884 4.926 8.923 8.623"/>
            <path fill="#CB9237" d="M186.2 98.971c0-7.141-3.325-13.19-7.919-15.267v-.773h-3.505c-6.308 0-11.423 7.182-11.423 16.04 0 8.86 5.115 16.041 11.423 16.041h3.505v-.772c4.594-2.078 7.918-8.127 7.918-15.269"/>
            <path fill="#F9D654" d="M189.704 98.971c0 8.86-5.114 16.041-11.423 16.041-6.31 0-11.423-7.181-11.423-16.04 0-8.86 5.114-16.04 11.423-16.04 6.31 0 11.423 7.18 11.423 16.04"/>
            <path fill="#A67138" d="M188.903 98.971c0 8.24-4.754 14.916-10.622 14.916-2.984 0-5.68-1.726-7.602-4.505-1.626-2.336-2.703-5.412-2.96-8.836a20.56 20.56 0 0 1-.06-1.575c0-8.238 4.754-14.915 10.622-14.915 1.835 0 3.557.654 5.06 1.799.523.4 1.02.857 1.49 1.373 2.482 2.728 4.072 6.973 4.072 11.743"/>
            <path fill="#7D5544" d="M185.082 97.618c-1.99 7.994-8.218 13.325-13.91 11.907a5.018 5.018 0 0 1-.493-.144c-1.626-2.336-2.703-5.41-2.96-8.835-.04-.517-.06-1.042-.06-1.575 0-8.238 4.755-14.914 10.622-14.914 1.834 0 3.557.653 5.059 1.797.525.401 1.021.858 1.49 1.375 1.025 2.98 1.185 6.644.252 10.389"/>
            <path fill="#EDAC37" d="M172.211 75.98a7.937 7.937 0 0 0-1.625-2.03c-.02-.018-.039-.038-.064-.058a6.78 6.78 0 0 0-.615-.492c-.006-.006-.019-.006-.032-.02a4.859 4.859 0 0 0-.64-.39 1.304 1.304 0 0 0-.263-.14c-4.396-2.266-10.751-.147-15.686 5.005a25.984 25.984 0 0 0-3.168 4.077 24.186 24.186 0 0 0-1.964 3.833 20.586 20.586 0 0 0-1.242 4.224 17.189 17.189 0 0 0-.23 1.76 14.434 14.434 0 0 0 .09 3.258c.204 1.478.671 2.828 1.382 3.973.204.34.435.66.69.96.135.16.27.315.417.455.006.013.02.025.025.02.314.332.666.62 1.037.889.128.09.27.18.397.256a35.034 35.034 0 0 1-.666-1.088c-.16-.275-.313-.563-.467-.852-.077-.14-.153-.288-.23-.434a40.988 40.988 0 0 1-.94-2.042c-.007-.006-.007-.012-.007-.019a8.902 8.902 0 0 1-.256-1.216 6.95 6.95 0 0 1-.096-.902c-.007-.013-.007-.027-.007-.045v-.013c-.057-.838-.019-1.734.103-2.662.416-3.213 1.85-6.855 4.243-10.279.038-.05.07-.102.115-.153.051-.083.115-.167.18-.25 2.828-3.898 6.354-6.662 9.65-7.86 1.888-.685 3.706-.857 5.261-.428.384.103.75.25 1.095.429.224.114.441.243.646.39.032.026.064.044.096.07.288.206.55.436.774.692.167.173.32.358.455.55.063.167.134.327.217.48.237.237.448.48.64.75.148.428.378.78.666 1.222.013.012.02.025.032.044.346.448.723.89 1.146 1.344-.218-1.21-.602-2.33-1.159-3.308"/>
            <path fill="#EBBF35" d="M172.211 75.98a7.662 7.662 0 0 0-1.453-1.35h-.006a3.995 3.995 0 0 0-.378-.25 7.311 7.311 0 0 0-.992-.52 6.15 6.15 0 0 0-.64-.248 8.308 8.308 0 0 0-1.139-.295c-1.638-.3-3.43-.14-5.26.429-3.303 1.023-6.701 3.38-9.492 6.79-.352.43-.697.876-1.024 1.338-.05.064-.096.134-.147.204-1.677 2.4-2.854 4.934-3.526 7.406a18.736 18.736 0 0 0-.622 3.488v.019c-.057.69-.07 1.363-.031 2.016.064 1.216.275 2.361.653 3.405a8.73 8.73 0 0 0 .69 1.528 7.825 7.825 0 0 0 2.324 2.587c.134.096.262.179.403.256a16.673 16.673 0 0 1-.352-.563c-.339-.55-.659-1.128-.967-1.728-.018-.026-.031-.058-.044-.084-.013-.025-.026-.044-.038-.07a29.372 29.372 0 0 0-.352-.736c-.096-.205-.18-.39-.263-.564a9.454 9.454 0 0 1-.198-.447 6.366 6.366 0 0 1-.096-.224v-.013c-.289-1.005-.416-2.131-.371-3.347.082-3.13 1.254-6.816 3.436-10.369a27.78 27.78 0 0 1 2.003-2.841c4.372-5.479 10.1-8.365 14.125-7.251.39.102.762.249 1.114.434.186.09.358.192.531.315a.55.55 0 0 1 .103.063c.243.174.473.366.684.57.237.237.448.48.64.75.148.428.378.78.666 1.222.013.012.02.025.032.044.02.032.045.064.064.102a16.709 16.709 0 0 0 1.114 1.537c.256.313.524.62.819.934-.307-1.753-.98-3.309-2.01-4.537M147.45 52.531c0-.4 10.847-16.921 12.55-16.52 1.702.4-12.55 18.723-12.55 18.723v-2.203zM147.45 61.116c.1-.574 22.729-1.529 22.93 0 .2 1.529-22.93 1.328-22.93 1.328v-1.328z"/>
            <mask id="d" fill="#fff">
                <use xlink:href="#c"/>
            </mask>
            <path fill="#603E54" d="M84.268 115.012h3.805V17.486h-3.805z" mask="url(#d)"/>
            <path fill="#9D625C" d="M88.073 115.012h3.805V17.486h-3.805z" mask="url(#d)"/>
            <path fill="#603E54" d="M53.228 115.012h3.805V17.486h-3.805z" mask="url(#d)"/>
            <path fill="#9D625C" d="M57.033 115.012h3.805V17.486h-3.805z" mask="url(#d)"/>
            <path fill="#603E54" d="M140.54 115.012h3.806V17.486h-3.805z" mask="url(#d)"/>
            <path fill="#9D625C" d="M144.345 115.012h3.805V17.486h-3.805z" mask="url(#d)"/>
            <path fill="#603E54" d="M109.55 115.012h3.806V17.486h-3.805z" mask="url(#d)"/>
            <path fill="#73464A" d="M113.356 115.012h3.804V17.486h-3.804z" mask="url(#d)"/>
            <path fill="#603E54" d="M60.837 68.753h23.43v-4.606h-23.43z" mask="url(#d)"/>
            <path fill="#285E59" d="M60.838 64.146l-32.442 50.867H11.04s1.068-8.945 3.471-9.88c2.403-.935 7.343-.267 9.212-.935 1.87-.667 26.825-42.683 30.306-42.989 8.194-.717 6.809 2.937 6.809 2.937" mask="url(#d)"/>
            <path fill="#3DAD4D" d="M63.441 64.146l-32.442 50.867H13.643s1.068-8.945 3.472-9.88c2.403-.935 7.342-.267 9.211-.935 1.87-.667 26.835-42.588 30.306-42.989 3.471-.4 6.809 2.937 6.809 2.937" mask="url(#d)"/>
            <path fill="#547FA1" d="M63.441 64.146L34.337 109.78h-12.65l-3.605 5.233h33.61l32.442-50.867z" mask="url(#d)"/>
            <path fill="#8DB5B5" d="M47.22 89.58h12.817l6.208-7.81-14.61.887z" mask="url(#d)"/>
            <path fill="#547FA1" d="M62.301 72.197c-4.22-1.655-14.862 15.67-11.654 16.874 7.77 2.913 17.845-14.446 11.654-16.874" mask="url(#d)"/>
            <path fill="#969027" d="M65.358 74.272c-.222 1.618-10.923 1.145-9.767-1.482 1.26-2.866 9.723.286 9.723.286l.044 1.196z" mask="url(#d)"/>
            <path fill="#FCC086" d="M53.378 63.437c-3.002-.275-6.252-2.092-6.252-2.092l-.254.558s2.503 2.52 6.314 2.907c.148-.369.192-1.373.192-1.373" mask="url(#d)"/>
            <path fill="#FCC086" d="M47.126 61.346s.678-1.347.176-1.473c-.501-.126-.507.906-.507.906s-1.001-1.73-1.397-1.839c-.395-.108.716 1.674.716 1.674s-1.962-1.301-2.333-1.036c-.37.266 1.879 1.418 1.879 1.418s-1.767-.507-1.875-.111c-.109.396 1.95.58 1.95.58s-1.39.121-1.236.44c.154.32 1.223-.093 1.223-.093s.894.854 1.15.09c.402-.064.254-.556.254-.556" mask="url(#d)"/>
            <path fill="#969027" d="M65.762 61.736c.856-.448 1.752 2.986.468 2.917-1.283-.07-1.714-1.891-1.714-1.891l1.246-1.026z" mask="url(#d)"/>
            <path fill="#FCC086" d="M72.027 58.549s-.891-1.217-.416-1.424c.473-.206.65.811.65.811s.702-1.872 1.074-2.044c.373-.172-.43 1.769-.43 1.769s1.722-1.606 2.13-1.405c.409.2-1.62 1.707-1.62 1.707s1.66-.79 1.832-.418c.172.372-1.829.894-1.829.894s1.392-.11 1.292.23c-.1.34-1.221.109-1.221.109s-.742.99-1.12.278c-.407.003-.342-.507-.342-.507" mask="url(#d)"/>
            <path fill="#FCC086" d="M65.481 62.765c3.342-.605 6.708-4.276 6.708-4.276l.533.533s-2.752 4.708-6.966 5.453c-.553-.874-.275-1.71-.275-1.71" mask="url(#d)"/>
            <path fill="#4EB8BA" d="M61.651 72.319c-2.812-.328-4.186-.258-4.186-.258l-.609 1.937s4.127.019 4.222.004c.095-.015 1.9-1.507 1.9-1.507l-1.327-.176z" mask="url(#d)"/>
            <path fill="#341757" d="M58.106 83.659s.23 1.648-.394 2.47c-.625.823-1.904.995-2.224.29-.32-.706 1.324-2.896 1.324-2.896l1.294.136zM53.2 83.518s.757.223.806.524c.048.302-.658 2.548-1.48 2.99-.824.442-.539-.567-.405-1.448.133-.882.247-2.104.247-2.104l.831.038z" mask="url(#d)"/>
            <path fill="#4EB8BA" d="M58.952 73.72c-.15-.079-1.239-.214-2.205-.23-.965-.018-4.665.509-4.87 1.367-.206.858.261 8.694.261 8.694s.8.697 1.804-.118c.345-1.706.402-6.496.402-6.496s2.594.306 3.427.137c.832-.167 1.18-3.354 1.18-3.354" mask="url(#d)"/>
            <path fill="#5EC7E0" d="M65.03 73.879c-.157 3.086-2.566 4.573-6.095 3.593.434 3.129-.293 6.307-.293 6.307s-1.172.636-2.088-.146c-.027-2.094-.603-7.608-.446-8.768.158-1.16 6.233-2.75 7.63-2.184 1.399.568 1.293 1.198 1.293 1.198" mask="url(#d)"/>
            <path fill="#F7F756" d="M58.083 61.89c-1.216.78-4.795.77-4.795.77s-.857 1.01-.34 2.303c1.574 1.02 3.17.544 3.17.544s.86 4.919-.578 7.317c1.582-1.286 9.294-.6 9.823 1.414 1.45-2.537-.876-9.525-.876-9.525s1.29.103 1.91-.1c-1.092-1.235-.974-2.423-.47-2.917-1.615.432-5.156-.203-5.156-.203l-2.688.397z" mask="url(#d)"/>
            <path fill="#4A362D" d="M60.542 46.65c.068-4.14 6.96-4.055 5.898-1.82 3.095 1.566 2.822 3.858 1.602 3.687.213 3.038-1.216 4.14-1.458.922-.09 1.436-.709 1.581-1.305.438-.596-1.142-2.934 1.435-2.934 1.435l-2.68-3.559.877-1.104z" mask="url(#d)"/>
            <path fill="#74CC1B" d="M63.683 47.933c-.513-1.477-3.618-2.537-3.644-.699-.025 1.838 3.644.7 3.644.7" mask="url(#d)"/>
            <path fill="#FCC086" d="M53.95 52.432c.232.915.289 1.8-.113 2.62-.4.822-.963 2.46 1.004 4.001 1.967 1.542 2.779 1.239 3.239 1.75.46.51.005 1.1.005 1.1s.17.626 1.336.61c1.167-.014 1.352-1.008 1.352-1.008s-.779-.562-.603-.97c.176-.406 2.877-.29 3.882-3.236 1.06-3.108-3.581-6.236-3.698-6.32-.117-.084-5.472-1.735-5.472-1.735s-1.12 2.232-.933 3.188" mask="url(#d)"/>
            <path fill="#61473B" d="M64 54.761c-1.752.511-2.574-1.466-2.53-2.62-1.591.944-4.775.538-5.884-2.082-1.678 1.83-1.637 2.373-1.637 2.373s-.786-1.754-.15-3.507c.635-1.753 3.014-1.218 3.014-1.218s2.223-2.146 4.06-.423c1.988-.182 3.935.514 3.845 1.95 1.814 1.59 1.662 4.64.95 5.351-.71.71-1.668.176-1.668.176" mask="url(#d)"/>
            <path fill="#F5A07F" d="M56.725 54.935c-.085.54-1.34.654-1.407.022-.067-.631 1.494-.569 1.407-.022" mask="url(#d)"/>
            <path fill="#4A362D" d="M59.414 54.122c-.576-.802-1.687-.657-2.008-.296.095-.91 1.926-.86 2.008.296M55.526 53.967c-.314-.242-.931-.228-1.017.094-.034-.854.769-.925 1.017-.094" mask="url(#d)"/>
            <path fill="#963232" d="M55.204 57.527c.078.077.166.15.26.214.94.663 2.563.761 3.61-.239.063-.06.119-.117.175-.175.97-1.021.869-1.835.277-1.87a1.76 1.76 0 0 0-.456.04h-.001c-.546.106-1.247.394-2.402.58-.38.06-.912.032-1.454-.065a.688.688 0 0 0-.39.024c-.398.163-.314.815.38 1.491" mask="url(#d)"/>
            <path fill="#FFF" d="M55.564 56.919c.893.394 2.955-.23 3.505-1.422-.546.105-1.247.395-2.401.58-.38.06-.913.032-1.456-.065a.694.694 0 0 0-.39.024c.029.253.175.632.742.883M55.464 57.74c.94.664 2.563.762 3.61-.238.062-.06.12-.117.174-.175-.293-.363-.91-.067-1.658.208-.703.256-1.89-.19-2.126.206" mask="url(#d)"/>
            <path fill="#FCC086" d="M64.488 57.801c1.769.199 2.806-4.807-.277-3.44-3.083 1.366-.563 3.346.277 3.44" mask="url(#d)"/>
            <path fill="#4A362D" d="M55.45 51.778l.154.388s-1.008-.274-1.396.59c.206-.995.985-1.144 1.241-.978" mask="url(#d)"/>
            <path fill="#8DB5B5" d="M21.687 109.78l-.8 1.16h13.45v-1.16z" mask="url(#d)"/>
            <path fill="#285E59" d="M81.53 64.146l-32.44 50.867H31.732s1.068-8.945 3.472-9.88c2.403-.935 7.342-.267 9.212-.935 1.869-.667 26.824-42.683 30.305-42.989 8.195-.717 6.809 2.937 6.809 2.937" mask="url(#d)"/>
            <path fill="#3DAD4D" d="M84.134 64.146l-32.441 50.867H34.337s1.068-8.945 3.471-9.88c2.403-.935 7.343-.267 9.212-.935 1.869-.667 26.835-42.588 30.305-42.989 3.472-.4 6.81 2.937 6.81 2.937" mask="url(#d)"/>
            <path fill="#9D625C" d="M91.878 68.753h48.663v-4.606H91.878z" mask="url(#d)"/>
            <path fill="#9D625C" d="M114.273 64.146l32.375 50.867h5.207L119.28 64.146z" mask="url(#d)"/>
            <path fill="#603E54" d="M112.47 64.146l32.376 50.867h5.206l-32.575-50.867z" mask="url(#d)"/>
            <path fill="#9D625C" d="M120.613 72.662h-18.211l-.098-1.875h18.21zM125.56 80.438h-18.212l-.097-1.875h18.21zM130.507 88.214h-18.212l-.098-1.875h18.211zM135.453 95.99h-18.211l-.098-1.875h18.211zM140.4 103.765h-18.211l-.098-1.874h18.211zM145.347 111.541h-18.211l-.098-1.875h18.211z" mask="url(#d)"/>
            <path fill="#9D625C" d="M93.68 64.146l32.375 50.867h5.207L98.686 64.146z" mask="url(#d)"/>
            <path fill="#603E54" d="M91.878 64.146l32.375 50.867h5.207L96.884 64.146z" mask="url(#d)"/>
            <path fill="#285E59" d="M117.16 64.147h23.38v-46.66h-23.38zM94.481 17.486H51.109L72.553.064z" mask="url(#d)"/>
            <path fill="#25574D" d="M91.962 17.486h-38.39l18.98-15.42z" mask="url(#d)"/>
            <path fill="#3DAD4D" d="M129.217.064H72.553L94.48 17.487h56.665z" mask="url(#d)"/>
            <path fill="#1F484A" d="M53.572 17.486h1.158l18.514-14.87-.691-.55z" mask="url(#d)"/>
            <path fill="#F9D654" d="M139.072 45.075c0 8.86-4.039 16.041-9.02 16.041s-9.02-7.182-9.02-16.04c0-8.86 4.039-16.04 9.02-16.04s9.02 7.18 9.02 16.04" mask="url(#d)"/>
            <path fill="#A67138" d="M137.87 45.075c0 8.86-4.038 16.041-9.02 16.041-4.98 0-9.02-7.182-9.02-16.04 0-8.86 4.04-16.04 9.02-16.04 4.982 0 9.02 7.18 9.02 16.04" mask="url(#d)"/>
            <path fill="#7D5544" d="M136.395 45.074c0 5.535-1.666 10.35-4.125 12.809-1.11 1.117-2.383 1.75-3.74 1.75-4.343 0-7.863-6.517-7.863-14.56 0-8.037 3.52-14.554 7.862-14.554 1.358 0 2.631.633 3.74 1.75 2.46 2.46 4.126 7.274 4.126 12.805" mask="url(#d)"/>
            <path fill="#7D5544" d="M136.395 45.074c0 5.535-1.666 10.35-4.125 12.809-2.46-2.455-4.13-7.27-4.13-12.81 0-5.534 1.67-10.349 4.13-12.804 2.459 2.46 4.125 7.274 4.125 12.805" mask="url(#d)"/>
            <path fill="#0C4F66" d="M131.213 89.151s.728.607.768.891c.041.283-.97 2.063-1.213 2.347-.243.283-1.133.688-1.538.404-.404-.283.728-.688 1.093-1.052.364-.364.607-1.133.607-1.497 0-.364-.284-.648-.284-.648l.567-.445zM116.565 74.139c-.81-.162-1.173-1.255-1.376-1.7-.203-.445-.81.365-.324 1.62.486 1.254 1.862 2.427 2.144 2.103.284-.324-.04-1.578-.04-1.578l-.404-.445z" mask="url(#d)"/>
            <path fill="#FCC086" d="M128.845 54.234c-.446.493-1.37 1.54-1.848 3.544s-1.991 1.162-2.276.726c-.285-.436.078-1.86.078-1.86s-2.569 1.192-3.46.756c-.59-.287-1.009-.84-1.294-1.832a9.545 9.545 0 0 1-.236-1.101 16.698 16.698 0 0 1-.105-.814c-.576-.029-1.66-.959-.742-1.133.918-.174 1.073-.988 1.122-2.179.05-1.19.288-3.253 2.55-4.357 0 0 2.908.116 3.865.465.957.348 2.791 7.291 2.346 7.785" mask="url(#d)"/>
            <path fill="#997E5B" d="M122.56 46.304c-1.628.522-2.386.435-2.483-.146-.097-.58 1.627-1.161 2.453-1.307 1.369-2.266 5.768-1.51 7.27 1.743 1.575-.64 2.75 3.224 2.622 4.822-.127 1.598-4.248 3.65-4.248 3.65s-.207-.89-.685-1.79c-.479-.901.631-2.034-.5-1.83-1.132.202-1.841-1.715-1.203-3.181.638-1.468-1.78-2.427-3.226-1.961" mask="url(#d)"/>
            <path fill="#FCC086" d="M127.813 50.603c-1.32.053-2.144 3.37-.654 3.311 1.489-.058 3.511-3.428.654-3.311" mask="url(#d)"/>
            <path fill="#FFF" d="M123.128 50.864s-.412.943-1.7.776a2.805 2.805 0 0 1-.273-.05c-.152-.697.17-1.888.17-1.888s.206.05.498.18c.378.17.899.474 1.305.982" mask="url(#d)"/>
            <path fill="#1F3954" d="M121.43 51.64a2.805 2.805 0 0 1-.275-.05c-.153-.697.17-1.888.17-1.888s.206.05.498.18c.355.595-.009 1.546-.394 1.758" mask="url(#d)"/>
            <path fill="#7E684B" d="M121.237 48.191c.078-.406.64-.784.64-.784s1.457.697 1.627 1.714c-.81-.93-2.108-1.103-2.267-.93" mask="url(#d)"/>
            <path fill="#FFF" d="M122.378 53.566c-.523 1.193-1.535 1.817-2.333 2.002a9.545 9.545 0 0 1-.236-1.101c1.19.072 2.183-.341 2.57-.901" mask="url(#d)"/>
            <path fill="#FCC086" d="M113.166 57.963s-1.67-1.184-1.518-1.821c.152-.637 2.033-1.365 2.185-1.062.152.303.334 2.428.334 2.428l-1.001.455z" mask="url(#d)"/>
            <path fill="#FCC086" d="M113.803 55.201c.486-.06.607.182.637.699.03.515-.364 1.73-.364 1.73l-.486-.972.213-1.457z" mask="url(#d)"/>
        </g>
        <g transform="translate(133.76 67.776)">
            <mask id="g" fill="#fff">
                <use xlink:href="#e"/>
            </mask>
            <path fill="url(#f)" d="M1.297.422S.184 1.482.157 1.54c-.028.058.1.708.102.75 0 .043 1.903.044 1.903.044s.137-.244.182-.757C2.39 1.065 1.994.52 1.75.412l-.453.01z" mask="url(#g)"/>
        </g>
        <path fill="#FCC086" d="M135.01 69.931a.233.233 0 0 1-.174.325c-.475.08-.877.233-1.007.212-.157-.025-.35-1.071.149-1.622.498-.55 1.066-.577 1.066-.577s.363.375.187.748c-.177.373-1.095.607-1.093.65 0 .041.048.296.048.296s.538-.68.823-.032"/>
        <path fill="#FCC086" d="M134.748 70.746c.085-.164.039-.796-.063-.936-.102-.14-.298-.064-.409.038-.11.101-.108.826.008.98.116.153.396.047.464-.082"/>
        <path fill="#FCC086" d="M135.302 70.757c.085-.187.036-.91-.066-1.07-.103-.16-.298-.074-.409.043-.11.115-.106.943.01 1.12.118.175.397.055.465-.093"/>
        <path fill="#FCC086" d="M135.798 70.487c.042-.19-.153-.846-.282-.972-.13-.126-.296-.005-.376.124-.08.131.095.893.24 1.03.147.137.385-.032.418-.182"/>
        <path fill="#FCC086" d="M136.125 70.167c.037-.17-.138-.759-.252-.871-.115-.114-.262-.006-.333.11-.07.116.087.8.217.923.129.123.34-.027.368-.162"/>
        <path fill="#19D9C8" d="M129.392 73.987c.364 1.213-.162 2.144-1.133 4.167-.971 2.024 1.173 9.874 2.954 11.574 0 .688-.648.768-.648.768s-6.19-4.532-6.636-12.422c-2.064.445-4.127-3.319-4.856-5.261-.728-1.942-1.983.405-1.78 2.63-.688.122-.89-.809-.89-.809s-.689-5.058 2.347-5.827c3.035-.77 3.197 2.711 4.653 4.168 1.457 1.457 5.989 1.012 5.989 1.012"/>
        <path fill="#F94850" d="M121.876 59.723c1.524-.858 5.523-1.882 7.981-1.062 2.458.819 4.23 1.738 4.856 2.397 1.153 1.213 1.396 7.041.971 7.436-.425.394-1.183 0-1.183 0s-.273-4.614-1.062-5.251c-.79-.637-2.52-.972-2.854-.486-.333.486.122 4.826.061 7.376-.06 2.549-.394 4.248-1.972 4.885-1.579.638-5.354-.347-6.192-3.277-.485-1.7 1.573-6.035-.212-7.709-.485-.456-3.308 1.578-4.856 1.487-1.547-.09-4.188-5.341-4.43-6.828.151-.637 1.183-.85 1.183-.85s1.609 4.643 3.611 4.583c2.004-.061 3.126-2.154 4.098-2.701"/>
        <path fill="#2A1E3A" d="M171.961 103s.121-1.254-.364-1.537c-.486-.284-1.66 2.144-1.902 2.71-.243.567.688 1.457 1.174 1.579.485.12.162-1.254.162-1.254l.93-1.498zM180.297 103.364s.12-1.254-.364-1.537c-.486-.284-1.66 2.144-1.902 2.71-.243.567.688 1.457 1.173 1.579.486.121.162-1.255.162-1.255l.93-1.497z"/>
        <path fill="#39284D" d="M180.661 102.879c-1.294-.203-1.456 2.306-1.456 2.306s1.618 2.913 2.144 3.116c.526.202 1.092-2.55 1.011-2.832-.08-.284-1.699-2.59-1.699-2.59"/>
        <path fill="#614870" d="M179.002 100.532c-.04.201-.202 6.838-1.376 7.647-1.173.81-6.353-2.023-6.353-2.023s-1.052-3.601 1.214-3.44c1.457.85 2.347 1.903 2.347 1.903s-.607-9.105.202-10.521c.81-1.417 5.746-1.902 7.204-1.619 1.456.283 1.092 2.468 1.092 2.468l-4.33 5.585z"/>
        <path fill="#4B3459" d="M180.337 102.514c.081.162.486 5.18 1.012 5.787.526.607 2.145.728 2.63-.081.486-.81-.202-5.989-.202-5.989l-3.44.283z"/>
        <g transform="translate(176.64 94.016)">
            <mask id="j" fill="#fff">
                <use xlink:href="#h"/>
            </mask>
            <path fill="url(#i)" d="M.703 2.955c-.85 3.44.647 5.098 1.902 5.624 1.254.526 5.503 1.578 8.74 1.74.89-2.63 1.052-6.92 1.052-6.92C8.472 2.307 6.166.082 6.166.082S5.882.047 5.443.047c-1.333 0-4.1.321-4.74 2.908" mask="url(#j)"/>
        </g>
        <g>
            <path fill="#FCC086" d="M184.343 106.52l-.031.198c-.55 3.616.156 9.321.355 9.838.202.526 4.451.485 4.33.121-.121-.364-2.267-.162-2.955-.89-.687-.728.648-8.902.648-8.902l-2.347-.364zM194.743 105.752c.04.12.93 2.63 1.537 4.29.535 1.46 1.053 4.41 1.579 4.814.525.405 3.642.162 3.723-.08.08-.243-2.226-.081-2.55-.405-.324-.324-1.74-9.712-1.74-9.712l-2.55 1.093z"/>
            <path fill="#64E2C9" d="M185.84 98.71c-1.998 1.824-1.942 7.932-1.942 7.932.93 1.174 3.318.404 3.318.404l.77-2.71s3.924.161 5.138-1.012c1.012 2.226 1.214 2.752 1.214 2.752s2.145.12 3.399-1.498c-.445-2.751-1.295-3.884-1.295-3.884s-6.92-5.342-10.601-1.983"/>
            <path fill="#1E2A45" d="M187.095 95.676c-2.266-3.359.93-7.203 1.092-5.463 2.429-3.399 4.007-3.115 3.966-1.983 3.197-2.225 6.07-.688 4.249.203 3.237-.04 2.913 3.924.768 3.317-2.144-.606-4.491-1.375-6.353-.04-1.86 1.336-2.306 4.613-2.306 4.613l-1.416-.647z"/>
            <path fill="#FCC086" d="M197.762 114.7c.264.546.9.824 1.305.682.405-.141 1.138.136 1.26-.106.12-.243-.48-.118-.79-.273-.394-.198-1.775-.304-1.775-.304M188.026 95.96c-.972-1.093-2.429.12-2.064 1.455.364 1.336 1.578 1.66 2.185.77.81 2.508 3.844 4.45 6.433 4.167 2.59-.283 3.562-3.803 3.845-5.099.283-1.294-.145-2.085-.465-3.63-.485-2.338-1.892-3.916-4.856-3.582-3.498.394-4.796 2.721-5.078 5.918"/>
            <path fill="#FFF" d="M192.882 95.716a1.374 1.374 0 0 1-1.377 1.376 1.375 1.375 0 1 1 .753-2.527c.376.246.624.67.624 1.151M197.396 95.028c0 .738-.577 1.335-1.287 1.335-.232 0-.45-.063-.638-.175a1.34 1.34 0 0 1-.649-1.16c0-.336.12-.644.32-.88a1.26 1.26 0 0 1 .967-.456c.71 0 1.287.6 1.287 1.336"/>
            <path fill="#405178" d="M192.882 95.716c0 .328-.116.629-.307.866a1.093 1.093 0 1 1-.316-2.017c.375.246.623.67.623 1.151M196.694 95.11c0 .602-.472 1.092-1.054 1.092a1.05 1.05 0 0 1-.169-.014 1.338 1.338 0 0 1-.65-1.16c0-.336.122-.644.32-.88.15-.084.318-.131.5-.131.581 0 1.053.49 1.053 1.092"/>
            <path fill="#F5A07F" d="M193.407 97.254c.05.498 1.497.283 1.497-.121 0-.405-1.537-.284-1.497.12"/>
            <path fill="#FFF" d="M191.586 98.185c2.245.769 4.446.04 5.18-.607 0 2.387-3.54 4.127-5.18.607"/>
            <path fill="#1E2A45" d="M189.442 93.976c.728-1.092 2.59-1.052 2.59-1.052l-.364-.85s-1.74.527-2.226 1.902M195.39 91.832l-.324.647s2.104-.04 2.55.81c-.526-1.215-2.226-1.457-2.226-1.457"/>
            <path fill="#FCC086" d="M198.252 95.07c.784-.892 1.45-.149 1.41 1.153-.039 1.3-1.097 2.081-1.528 1.114-.43-.966.118-2.267.118-2.267"/>
        </g>
    </g>
</svg>
