<svg xmlns="http://www.w3.org/2000/svg" xmlns:xlink="http://www.w3.org/1999/xlink" width="106" height="96" viewBox="0 0 106 96">
    <defs>
        <path id="a" d="M0 .056h60.67v40.629H0z"/>
        <path id="c" d="M.218 6.235c-.936 2.763 9.365 2.826 7.322.017C5.498 3.442 7.138.378 7.138.378S5.498.225 1.258.225c.14 1.675.186 2.389-1.04 6.01"/>
        <linearGradient id="d" x1="-.001%" x2="100.003%" y1="50.003%" y2="50.003%">
            <stop offset="0%" stop-color="#FBBDA7"/>
            <stop offset="100%" stop-color="#FBBDA7"/>
        </linearGradient>
        <path id="f" d="M1.114 3.17C.316 4.16.278 6.818.278 6.82c.084 1.445-.115 3.543.364 5.773.534 2.487 1.55 3.948 1.91 4.515.441.696 1.022.956 1.989.526.728-.325 2.113-.883 3.856-2.74 1.742-1.856 2.227-3.22 2.85-4.119.635-.917 1.812-2.77 1.65-4.023-.467-3.59-.651-5.026-4.305-5.99C7.531.482 6.643.335 5.862.335c-1.906 0-3.171.878-4.748 2.834"/>
        <linearGradient id="g" x1=".003%" x2="99.998%" y1="50%" y2="50%">
            <stop offset="0%" stop-color="#FBCFBC"/>
            <stop offset="100%" stop-color="#FBCFBC"/>
        </linearGradient>
        <path id="i" d="M1.983.275S.947 2.132.098 3.43c.608.326 1.41-.198 1.88-.524.553-.381 1.302-.656 1.184-1.989-.06-.654-.345-.82-.62-.82-.285 0-.559.178-.559.178"/>
        <linearGradient id="j" x1="22.732%" x2="85.039%" y1="42.924%" y2="61.314%">
            <stop offset="0%" stop-color="#FBCFBC"/>
            <stop offset="100%" stop-color="#FBCFBC"/>
        </linearGradient>
        <path id="l" d="M1.025.676C.24 1.76.745 2.38 1.023 2.99c.238.52.66 1.38 1.348 1.412-.064-1.55-.005-3.675-.005-3.675s-.255-.52-.663-.52c-.195 0-.425.119-.678.47"/>
        <linearGradient id="m" x1="64.169%" x2="40.296%" y1="55.943%" y2="39.718%">
            <stop offset="0%" stop-color="#FBCFBC"/>
            <stop offset="100%" stop-color="#FBCFBC"/>
        </linearGradient>
        <path id="o" d="M.792 4.436c-.992.97.44 1.897 2.068 1.19 1.343-.584 1.591.194 4.918-1.19 3.328-1.383 3.423-2.298 2.465-3.688-.136-.197-.405-.284-.769-.284-2.192 0-7.83 3.139-8.682 3.972"/>
        <linearGradient id="p" x1="-2.401%" x2="101.319%" y1="51.924%" y2="48.104%">
            <stop offset="0%" stop-color="#FBBDA7"/>
            <stop offset="100%" stop-color="#FBBDA7"/>
        </linearGradient>
        <path id="r" d="M.395.844c.328 1.644.92 1.8 1.307 2.087.328.246 1.838.496 2.897.495.208.362.981 1.838 1.609 1.818.757-.023 1.63-.552.843-2.065-.32-.616-1.318-.512-1.747-.816C3.14.828 1.677.17.937.17.49.17.307.41.395.844"/>
        <linearGradient id="s" x1="-.008%" x2="100.003%" y1="50.005%" y2="50.005%">
            <stop offset="0%" stop-color="#FBCFBC"/>
            <stop offset="100%" stop-color="#FBCFBC"/>
        </linearGradient>
        <path id="u" d="M.748 3.611c.26.697 1.561 2.743 1.915 3.486.422.888 3.28-.378 2.328-.902C3.48 5.362 3.173 4.003 1.83 1.008 1.62.543 1.316.311 1.035.311c-.61 0-1.11 1.097-.287 3.3"/>
        <linearGradient id="v" x1="57.806%" x2="33.563%" y1="37.779%" y2="68.567%">
            <stop offset="0%" stop-color="#FBCFBC"/>
            <stop offset="100%" stop-color="#FBCFBC"/>
        </linearGradient>
        <path id="x" d="M1.057.353C.638.813.873 2.326.151 3.249c-.722.923 3.688 1.162 4.087.265.4-.9-.33-1.835-.33-1.835S1.998.278 1.272.278c-.093 0-.167.023-.215.075"/>
        <linearGradient id="y" x1=".002%" x2="100.005%" y1="50.003%" y2="50.003%">
            <stop offset="0%" stop-color="#FBBDA7"/>
            <stop offset="100%" stop-color="#FBBDA7"/>
        </linearGradient>
        <path id="A" d="M.145 1.639c.004.996 1.31 5.902 3.083 6.508.144.05 4.532.873 5.208 1.117.42.151 1.25.38 1.938.337.218-.015.48-.007.748 0 .755.02 1.562.041 1.6-.422.068-.847-.334-1.154-1.677-1.583-.407-.13-.813-.032-1.19.063-.304.079-.592.157-.848.115-.24-.04-3.694-2.155-4.69-1.962-.112-.772-.339-1.722-.636-2.8C3.181 1.2 2.131.476 1.304.476.654.475.143.922.145 1.64"/>
        <linearGradient id="B" x1="102.386%" x2="-5.489%" y1="69.518%" y2="39.179%">
            <stop offset="0%" stop-color="#FBCFBC"/>
            <stop offset="100%" stop-color="#FBCFBC"/>
        </linearGradient>
        <path id="D" d="M2.357.617C1.467.89.887 1.297.35 1.742-.128 2.138.133 2.995.26 3.09c.58.436 1.808.325 3.456.436 1.03.07 1.55.158 2.273-.317.365-.24.766-.788.949-1.118.448-.803-1.21-.747-2.872-1.318A3.855 3.855 0 0 0 2.862.55c-.185 0-.357.02-.505.066"/>
        <linearGradient id="E" x1="17.745%" x2="78.766%" y1="40.323%" y2="61.681%">
            <stop offset="0%" stop-color="#FBCFBC"/>
            <stop offset="100%" stop-color="#FBCFBC"/>
        </linearGradient>
        <path id="G" d="M2.415 1.357C1.131 2.3-.943 4.855 1.777 7.69c2.72 2.837 4.64 3.335 5.452 3.174 1.169-.23 2.35-2.622 2.47-4.064.046-.555-.375-1.207-.36-1.65.025-.704.472-1.172.499-2.088.029-1.05-1.73-2.881-4.13-2.882-1.012 0-2.139.326-3.293 1.176"/>
        <linearGradient id="H" x1="-.003%" x2="99.999%" y1="50.002%" y2="50.002%">
            <stop offset="0%" stop-color="#FBCFBC"/>
            <stop offset="100%" stop-color="#FBCFBC"/>
        </linearGradient>
        <path id="J" d="M.704.98c-.528.763.035 1.089.392 1.436.304.295.833.78 1.464.72-.323-.953-.385-2.126-.385-2.126S1.745.65 1.302.65C1.09.649.875.733.704.98"/>
        <linearGradient id="K" x1="89.936%" x2="14.122%" y1="52.253%" y2="46.27%">
            <stop offset="0%" stop-color="#FBCFBC"/>
            <stop offset="100%" stop-color="#FBCFBC"/>
        </linearGradient>
        <path id="M" d="M6.077 7.165c-1.486.887-2.303.754-3.753 1.51-1.652.861-2.187 2.533-2.261 2.9-.238 1.189.636 2.221 2.793.711 2.264-1.585 3.659-3.262 3.9-3.59C8.42 7.9 11.682 7.313 15.97 5.244c4.288-2.07 5.18-3.714 3.273-4.94-.212-.135-.475-.198-.784-.198-2.823 0-9.324 5.233-12.382 7.058"/>
        <linearGradient id="N" x1=".001%" x2="100.002%" y1="50%" y2="50%">
            <stop offset="0%" stop-color="#FBCFBC"/>
            <stop offset="100%" stop-color="#FBCFBC"/>
        </linearGradient>
    </defs>
    <g fill="none" fill-rule="evenodd">
        <path fill="#DBF1FB" d="M4.535 49.24c-.897.733-2.416.611-3.173-.253-2.699-3.083-.314-10.717 4.713-9.619 1.886.412 3.303 2.484 2.452 4.29-.478 1.016-1.748 1.539-2.353 2.498-.625.991-.669 2.291-1.64 3.084m94.802-11.696c.29.397.5.905.329 1.36-.122.324-.422.564-.75.708-.686.3-1.502.229-2.202-.04-.7-.271-1.303-.722-1.882-1.184-.255-.204-.515-.42-.65-.71-.097-.207-.123-.44-.132-.667a3.425 3.425 0 0 1 .14-1.183c.162-.5.471-.943.796-1.364.485-.628 1.18-1.364 2.094-1.213.56.092.682.396.693.895.01.55-.125 1.082.092 1.617.287.704 1.026 1.173 1.472 1.781M73.113 16.127c-.251.163-.573.205-.869.14a1.154 1.154 0 0 1-.427-.19c-.858-.622-.524-1.784.566-1.674.88.09 1.726 1.08.73 1.724m-2.538 4.113c-.044.689-.594 1.275-1.244 1.58-.65.303-1.388.375-2.11.428-1.04.075-2.233.066-2.94-.668-.487-.506-.613-1.255-.5-1.933.285-1.702 1.386-3.41 3.424-3.18 1.521.172 3.46 2.313 3.37 3.773m-45.648 1.155c-2.668-.592-3.518 2.153-3.42 4.106.019.38.041.774.221 1.114.254.482.788.778 1.33.931.878.25 1.824.19 2.719.004.57-.118 1.155-.302 1.56-.704 1.636-1.623-.42-5.01-2.41-5.451m-11.14 61.604c-4.71.046-11.722-2.527-10.533-8.283.805-3.901-2.535-7.564-3.14-11.495-.697-4.528 1.852-9.328 6.208-11.685 1.551-.84 3.363-1.439 4.432-2.753 3.297-4.055-2.25-9.09-.127-14.506 1.22-3.11 4.822-4.841 9.61-4.544 4.917.305 9.631-.59 10.252-4.989.502-3.555.467-6.04 4.26-9.084 6.34-5.086 22.115-5.762 25.319 3.76.928 2.758 3.595 8.805 12.816 3.686 7.18-3.986 24.187.614 18.758 12.133-2.14 4.541 2.066 6.008 8.614 8.354 4.886 1.75 8.984 10.545-1.033 18.08-1.434 1.079 1.925 4.148 3.324 5.264 8.059 6.433.476 15.886-7.08 16.062 0 0-76.971-.046-81.68 0"/>
        <path fill="#F2716F" d="M74.394 62.337l-3.209-5.312-38.475-.416-2.787 5.062z"/>
        <path fill="#EF4955" d="M72.67 35.02l-.672 22.013-39.679-.22-.627-21.543z"/>
        <path fill="#D5414C" d="M73.92 62.275l-2.735-5.25.748-22.004 3.484 5.03zM29.799 61.943l2.8-5.128-.318-21.795-3.233 3.15z"/>
        <path fill="#FFD880" d="M72.474 73.321l-1.278 16.927s-.19.36-.655.368c-.429.007-.645-.374-.645-.374V73.054l2.578.267zM68.92 64.54l-1.278 16.927s-.19.36-.656.368c-.428.007-.645-.373-.645-.373V64.273l2.579.268zM35.658 64.54l1.277 16.927s.19.36.656.368c.428.007.645-.373.645-.373V64.273l-2.578.268zM31.844 73.321l1.277 16.927s.19.36.656.368c.429.007.645-.374.645-.374V73.054l-2.578.267z"/>
        <path fill="#F2716F" d="M82.665 41.151s-7.755-6.685-10.19-6.753c-2.437-.068-40.596-1.12-42.969.187-1.317.726-7.449 3.569-7.449 3.569l7.2.08s1.367-.95 2.89-2.092c.78-.585 10.625-1.05 19.893-.763 10.17.316 18.964-.733 19.893.389 1.445 1.747 3.38 4.37 3.38 4.37l7.352 1.013z"/>
        <g transform="translate(22 37.962)">
            <mask id="b" fill="#fff">
                <use xlink:href="#a"/>
            </mask>
            <path fill="#EF4955" d="M60.665 3.189c.197.392-5.67 37.371-8.27 37.371-2.601 0-45.045.613-45.825-.881C5.79 38.184-.162.364.003.217.348-.092 7.02.11 7.257.273c.193.132.612 31.103 1.393 32.93.78 1.826 40.479 2.67 41.692 1.334 1.214-1.335 2.78-32.296 2.97-32.362.248-.086 7.17.651 7.353 1.014" mask="url(#b)"/>
        </g>
        <path fill="#D5414C" d="M73.744 61.948c1.024 1.374.225 12.279-1.075 12.777-1.3.498-40.998.83-41.952-2.159-.954-2.989-1.66-9.234-.794-10.895.868-1.66 42.954-.885 43.82.277"/>
        <path fill="#5CD6EA" d="M38.389 85.803s.62 1.075.984 3.271c.091.546-1.525 1.402-3.587 1.83-3.647.756-8.858.85-9.689.344-1.302-.79 1.09-3.772 4.067-3.874 2.977-.102 5.408-1.73 5.408-1.73l2.817.159z"/>
        <path fill="#DBD6D1" d="M25.832 90.105s-.538.998.699 1.378c1.282.393 2.912.826 7.56-.034 2.354-.436 4.287-1.151 5.02-1.64.718-.478.228-.935.228-.935-2.038 1.043-2.527 1.596-5.81 1.981-4.47.524-7.697-.75-7.697-.75"/>
        <path fill="#554443" d="M56.813 48.92c1.16 2.544 10.915 10.504-3.866 9.893-3.54-.145-12.34-1.224-15.258-3.235-2.758-1.9-2.499-4.826-2.318-6.432.497-4.432 20.837-1.554 21.442-.226"/>
        <path fill="#4F3F38" d="M53.54 10.365s.953 1.945-2.67 6.86c-3.622 4.917-3.342 5.349-1.1 9.316 3.216 5.69 17.682 1.639 19.839-2.242 2.156-3.882-2.472-6.181-4.543-9.028-2.07-2.847-1.771-4.353-1.753-6.885.017-2.533-9.774 1.979-9.774 1.979"/>
        <path fill="#003A36" d="M50.749 20.427c1.728 2.297 1.198 4.553-2.23 7.516-3.427 2.962-8.678 8.923-10.56 6.557-1.032-1.297-.225-1.737 2.136-3.955 2.702-2.538 8.19-13.392 10.654-10.118"/>
        <path fill="#004947" d="M49.617 19.811s-.058 4.446-1.689 7.85c-1.375 2.87 2.53 9.62 1.37 14.6-.58 2.493-3.712 5.442-2.079 5.878 4.806 1.281 10.741-3.22 19.56 7.457.82-4.982.392-7.41-2.079-12.81-1.022-2.233-1.623-4.853.16-9.663.927-2.501 1.128-4.105 0-8.47-.484-1.871 1.541-3.803-.262-4.315-2.756-.782-3.798-1.447-6.888-1.436-6.09.023-8.093.91-8.093.91"/>
        <g transform="translate(53.426 14.393)">
            <mask id="e" fill="#fff">
                <use xlink:href="#c"/>
            </mask>
            <path fill="url(#d)" d="M.218 6.235c-.936 2.763 9.365 2.826 7.322.017C5.498 3.442 7.138.378 7.138.378S5.498.225 1.258.225c.14 1.675.186 2.389-1.04 6.01" mask="url(#e)"/>
        </g>
        <path fill="#005652" d="M61.661 25.335s.775-5.97 3.478-4.807c2.942 1.264 2.24 3.965 1.419 8.833-.88 5.214-4.371 14.134-6.847 12.397-2.952-2.072-.974-1.569.222-5.153 1.37-4.105 1.728-11.27 1.728-11.27"/>
        <path fill="#554443" d="M35.359 48.77c2.053-2.383 4.863 3.748 5.138 8.323.436 7.266-1.934 16.376-2.108 28.71-.626.205-1.717.293-2.817-.159-.307-11.013-4.859-31.485-.213-36.874"/>
        <g transform="translate(53.426 .644)">
            <mask id="h" fill="#fff">
                <use xlink:href="#f"/>
            </mask>
            <path fill="url(#g)" d="M1.114 3.17C.316 4.16.278 6.818.278 6.82c.084 1.445-.115 3.543.364 5.773.534 2.487 1.55 3.948 1.91 4.515.441.696 1.022.956 1.989.526.728-.325 2.113-.883 3.856-2.74 1.742-1.856 2.227-3.22 2.85-4.119.635-.917 1.812-2.77 1.65-4.023-.467-3.59-.651-5.026-4.305-5.99C7.531.482 6.643.335 5.862.335c-1.906 0-3.171.878-4.748 2.834" mask="url(#h)"/>
        </g>
        <g transform="translate(62.591 11.12)">
            <mask id="k" fill="#fff">
                <use xlink:href="#i"/>
            </mask>
            <path fill="url(#j)" d="M1.983.275S.947 2.132.098 3.43c.608.326 1.41-.198 1.88-.524.553-.381 1.302-.656 1.184-1.989-.06-.654-.345-.82-.62-.82-.285 0-.559.178-.559.178" mask="url(#k)"/>
        </g>
        <g transform="translate(51.462 7.191)">
            <mask id="n" fill="#fff">
                <use xlink:href="#l"/>
            </mask>
            <path fill="url(#m)" d="M1.025.676C.24 1.76.745 2.38 1.023 2.99c.238.52.66 1.38 1.348 1.412-.064-1.55-.005-3.675-.005-3.675s-.255-.52-.663-.52c-.195 0-.425.119-.678.47" mask="url(#n)"/>
        </g>
        <path fill="#4F3F38" d="M53.977 8.305s.747-4.626 3.226-2.835c2.479 1.792 2.976 1.89 5.749 1.665 2.773-.224 1.622 4.26 1.622 4.26s1.446-.622 1.918-3.99c.472-3.368-1.668-5.163-4.029-6.168C60.103.23 57.105.444 55.27 2.55c-1.658 1.9-2.071 4.676-1.292 5.755"/>
        <g transform="translate(29.856 31.415)">
            <mask id="q" fill="#fff">
                <use xlink:href="#o"/>
            </mask>
            <path fill="url(#p)" d="M.792 4.436c-.992.97.44 1.897 2.068 1.19 1.343-.584 1.591.194 4.918-1.19 3.328-1.383 3.423-2.298 2.465-3.688-.136-.197-.405-.284-.769-.284-2.192 0-7.83 3.139-8.682 3.972" mask="url(#q)"/>
        </g>
        <path fill="#44B5C1" d="M50.671 50.815c-.083-2.002-.658-6.318-2.22-7.373-1.821-1.23-6.034-3.596-8.567-.296-1.617 2.107-.856 3.218 3.335 2.914 1.293-.093 2.106.139 3.02.01.13.733.691 1.344 1.048 2.57 1.032 3.55 2.656 6.14 4.926 5.389 2.27-.751-1.44-.747-1.542-3.214"/>
        <g transform="translate(41.641 39.272)">
            <mask id="t" fill="#fff">
                <use xlink:href="#r"/>
            </mask>
            <path fill="url(#s)" d="M.395.844c.328 1.644.92 1.8 1.307 2.087.328.246 1.838.496 2.897.495.208.362.981 1.838 1.609 1.818.757-.023 1.63-.552.843-2.065-.32-.616-1.318-.512-1.747-.816C3.14.828 1.677.17.937.17.49.17.307.41.395.844" mask="url(#t)"/>
        </g>
        <g transform="translate(39.677 34.034)">
            <mask id="w" fill="#fff">
                <use xlink:href="#u"/>
            </mask>
            <path fill="url(#v)" d="M.748 3.611c.26.697 1.561 2.743 1.915 3.486.422.888 3.28-.378 2.328-.902C3.48 5.362 3.173 4.003 1.83 1.008 1.62.543 1.316.311 1.035.311c-.61 0-1.11 1.097-.287 3.3" mask="url(#w)"/>
        </g>
        <g>
            <path fill="#C1BEBC" d="M41.658 55.815s-1.156 2.769-.06 4.397c1.398 2.078 3.683.675 3.836-.1.132-.668.031-1.757-.2-2.312-.233-.555-3.576-1.985-3.576-1.985"/>
            <path fill="#DBD6D1" d="M44.648 55.488c1.03.692 1.306 4.712-.783 4.846-3.554.23-2.512-3.99-1.95-5.124.746-1.508 2.227-.063 2.733.278"/>
            <path fill="#C1BEBC" d="M38.843 32.943c-1.491 1.704.83 4.891.83 4.891s3.176-.817 2.967-1.552c-.408-1.447-2.266-5.088-3.797-3.34"/>
            <path fill="#5CD6EA" d="M45.682 45.564c-2.171-1.358-7.295-3.924-10.187-.157-1.864 2.428-.986 3.708 3.843 3.358 1.26-.091 2.06-.148 3.011-.266-.941 2.738-.09 5.421-.53 6.682-.21.607-.003.698 1.717.634.746-.028.957.356 1.221.107.582-.548.313-1.81.807-3.186.806-2.24 2.17-5.89.118-7.172"/>
            <path fill="#DBD6D1" d="M33.54 44.179c.311 4.498.707 3.945 6.55.279 1.796-1.126 4.027-2.081 1.765-4.984-1.867-2.396.04-5.479-1.371-6.509-.961-.702-3.23-1.872-5.591.39-1.859 1.78-1.48 8.995-1.353 10.824"/>
        </g>
        <g transform="translate(35.094 30.106)">
            <mask id="z" fill="#fff">
                <use xlink:href="#x"/>
            </mask>
            <path fill="url(#y)" d="M1.057.353C.638.813.873 2.326.151 3.249c-.722.923 3.688 1.162 4.087.265.4-.9-.33-1.835-.33-1.835S1.998.278 1.272.278c-.093 0-.167.023-.215.075" mask="url(#z)"/>
        </g>
        <g transform="translate(33.785 35.343)">
            <mask id="C" fill="#fff">
                <use xlink:href="#A"/>
            </mask>
            <path fill="url(#B)" d="M.145 1.639c.004.996 1.31 5.902 3.083 6.508.144.05 4.532.873 5.208 1.117.42.151 1.25.38 1.938.337.218-.015.48-.007.748 0 .755.02 1.562.041 1.6-.422.068-.847-.334-1.154-1.677-1.583-.407-.13-.813-.032-1.19.063-.304.079-.592.157-.848.115-.24-.04-3.694-2.155-4.69-1.962-.112-.772-.339-1.722-.636-2.8C3.181 1.2 2.131.476 1.304.476.654.475.143.922.145 1.64" mask="url(#C)"/>
        </g>
        <g fill="#C1BEBC">
            <path d="M34 34.361c-1.966.672-.596 3.76.151 5.434.403.9 4.226-.928 3.797-1.815-.713-1.477-1.65-4.404-3.949-3.619"/>
        </g>
        <g transform="translate(29.856 34.034)">
            <mask id="F" fill="#fff">
                <use xlink:href="#D"/>
            </mask>
            <path fill="url(#E)" d="M2.357.617C1.467.89.887 1.297.35 1.742-.128 2.138.133 2.995.26 3.09c.58.436 1.808.325 3.456.436 1.03.07 1.55.158 2.273-.317.365-.24.766-.788.949-1.118.448-.803-1.21-.747-2.872-1.318A3.855 3.855 0 0 0 2.862.55c-.185 0-.357.02-.505.066" mask="url(#F)"/>
        </g>
        <g transform="translate(31.82 22.25)">
            <mask id="I" fill="#fff">
                <use xlink:href="#G"/>
            </mask>
            <path fill="url(#H)" d="M2.415 1.357C1.131 2.3-.943 4.855 1.777 7.69c2.72 2.837 4.64 3.335 5.452 3.174 1.169-.23 2.35-2.622 2.47-4.064.046-.555-.375-1.207-.36-1.65.025-.704.472-1.172.499-2.088.029-1.05-1.73-2.881-4.13-2.882-1.012 0-2.139.326-3.293 1.176" mask="url(#I)"/>
        </g>
        <path fill="#F4815B" d="M34.423 30.754c.73-.483-.924-2.366 1.467-3.324 2.154-.864 1.68-2.173 3.28-3.234 1.602-1.062 2.9 2.241 2.316.213-.702-2.437-7.088-4.892-9.34.405-1.328 3.125.735 6.19 2.277 5.94"/>
        <g transform="translate(32.475 27.487)">
            <mask id="L" fill="#fff">
                <use xlink:href="#J"/>
            </mask>
            <path fill="url(#K)" d="M.704.98c-.528.763.035 1.089.392 1.436.304.295.833.78 1.464.72-.323-.953-.385-2.126-.385-2.126S1.745.65 1.302.65C1.09.649.875.733.704.98" mask="url(#L)"/>
        </g>
        <g>
            <path fill="#5CD6EA" d="M49.054 86.103c.164 1.08.914 3.732 1.19 4.456.83 2.183 1.14 3.795-.737 4.293-4.137 1.097-8.69-.151-6.996-2.358 1.882-2.455 1.794-3.562 3.136-6.084 1.403-2.636 3.126-2.15 3.407-.307"/>
            <path fill="#DBD6D1" d="M50.894 92.895s.722 2.68-4.06 2.68c-1.533 0-5.44-.22-4.63-2.519.514.622 1.064 1.536 4.816 1.491 2.806-.032 3.874-1.652 3.874-1.652"/>
            <path fill="#705D5C" d="M67.083 51.587c-1.24-3.287-16.48-3.861-20.133-2.928-4.947 1.265-.928 19.63-.945 37.155.854 1.038 2.717.65 3.114.65 1.1-5.384 2.293-19.68 2.576-24.14.108-1.703.01-3.965-.351-6.2 2.357 1.903 5.38 3.445 8.473 3.754 9.11.906 7.934-6.521 7.266-8.291"/>
        </g>
        <g transform="translate(40.986 39.272)">
            <mask id="O" fill="#fff">
                <use xlink:href="#M"/>
            </mask>
            <path fill="url(#N)" d="M6.077 7.165c-1.486.887-2.303.754-3.753 1.51-1.652.861-2.187 2.533-2.261 2.9-.238 1.189.636 2.221 2.793.711 2.264-1.585 3.659-3.262 3.9-3.59C8.42 7.9 11.682 7.313 15.97 5.244c4.288-2.07 5.18-3.714 3.273-4.94-.212-.135-.475-.198-.784-.198-2.823 0-9.324 5.233-12.382 7.058" mask="url(#O)"/>
        </g>
    </g>
</svg>
