<svg xmlns="http://www.w3.org/2000/svg" width="26" height="26" viewBox="0 0 26 26">
    <g fill="#000" fill-rule="evenodd">
        <path d="M12.895 23.61c-5.91 0-10.715-4.806-10.715-10.715 0-5.91 4.806-10.715 10.715-10.715S23.61 6.986 23.61 12.895 18.804 23.61 12.895 23.61m0-23.61C5.778 0 0 5.778 0 12.895S5.778 25.79 12.895 25.79 25.79 20.012 25.79 12.895 20.012 0 12.895 0"/>
        <path d="M9.358 10.297l6.11 6.11c.297.296.836.24 1.207-.13.372-.372.427-.91.13-1.208l-6.11-6.11c-.297-.297-.835-.24-1.207.13-.371.372-.427.91-.13 1.208"/>
        <path d="M15.45 8.978L9.358 15.07c-.297.297-.24.836.13 1.207.372.372.91.427 1.208.13l6.11-6.11c.296-.296.24-.835-.13-1.206-.372-.372-.93-.41-1.226-.112"/>
    </g>
</svg>
