<svg xmlns="http://www.w3.org/2000/svg" xmlns:xlink="http://www.w3.org/1999/xlink" width="193" height="105" viewBox="0 0 193 105">
    <defs>
        <path id="a" d="M.338.756h192v104h-192z"/>
    </defs>
    <g fill="none" fill-rule="evenodd">
        <path fill="#DBF1FB" d="M-39.22 27.64c-2.04 1.683-5.497 1.404-7.22-.58-6.14-7.076-.714-24.599 10.725-22.078 4.29.945 7.516 5.701 5.58 9.847-1.09 2.33-3.979 3.532-5.355 5.733-1.423 2.276-1.522 5.259-3.73 7.078M177.613.371c.702.965 1.21 2.202.795 3.31-.295.788-1.019 1.372-1.81 1.722-1.658.731-3.628.558-5.319-.099-1.69-.657-3.148-1.756-4.547-2.88-.615-.495-1.242-1.021-1.569-1.726-.235-.506-.297-1.071-.319-1.626-.037-.97.043-1.951.34-2.88.389-1.215 1.136-2.293 1.92-3.318 1.172-1.53 2.85-3.32 5.06-2.952 1.35.224 1.646.963 1.671 2.176.028 1.34-.301 2.636.224 3.937.692 1.713 2.477 2.855 3.554 4.336M116.8-47.117c-.643.39-1.468.493-2.225.336a3.055 3.055 0 0 1-1.096-.456c-2.198-1.499-1.343-4.295 1.452-4.03 2.254.216 4.42 2.6 1.869 4.15m-4.573 9.33c-.1 1.62-1.391 3-2.912 3.715-1.52.715-3.251.885-4.94 1.008-2.44.178-5.232.155-6.888-1.571-1.142-1.19-1.436-2.952-1.17-4.548.665-4.003 3.245-8.02 8.017-7.479 3.564.405 8.107 5.44 7.893 8.875M8.094-36.231c-6.167-1.375-8.132 5-7.906 9.537.044.883.096 1.796.511 2.586.589 1.119 1.82 1.807 3.074 2.164 2.03.578 4.216.441 6.285.009 1.32-.276 2.67-.703 3.606-1.636 3.781-3.77-.97-11.634-5.57-12.66m-25.712 140.43c-10.719.103-26.682-5.738-23.976-18.807 1.834-8.858-5.769-17.175-7.146-26.098-1.588-10.281 4.216-21.18 14.13-26.53 3.532-1.907 7.654-3.267 10.088-6.252 7.505-9.205-5.12-20.637-.288-32.934 2.775-7.061 10.974-10.992 21.873-10.317 11.192.692 21.924-1.34 23.337-11.326 1.143-8.072 1.064-13.716 9.698-20.625 14.43-11.548 50.338-13.083 57.63 8.536 2.113 6.263 8.182 19.993 29.172 8.37 16.342-9.05 55.057 1.394 42.699 27.547-4.873 10.31 4.7 13.64 19.607 18.966 11.121 3.973 20.448 23.941-2.351 41.05-3.265 2.449 4.38 9.418 7.565 11.952 18.343 14.604 1.083 36.068-16.116 36.468 0 0-175.204-.106-185.922 0" mask="url(#b)" transform="rotate(-180 71.64 23.6)"/>
    </g>
</svg>
