<svg xmlns="http://www.w3.org/2000/svg" width="448" height="79" viewBox="0 0 448 79">
    <path fill="#162848" fill-rule="nonzero" d="M95.83 48.073c3.397-.116 6.858.043 10.348.306l3.563.379c1.19.203 2.384.403 3.583.573 1.199.146 2.398.451 3.6.685l-.214-.043v5.067c0 8.52-2.13 14.505-6.39 17.955-4.26 3.45-10.965 5.175-20.115 5.175-9.15 0-15.855-1.68-20.115-5.04-4.26-3.36-6.39-9.27-6.39-17.73v-.347c1.164-.463 2.355-.954 3.638-1.308 1.842-.557 3.698-1.267 5.67-1.818 1.989-.484 3.991-1.115 6.08-1.592 1.796-.38 3.627-.75 5.492-1.074v6.949c0 1.74.435 2.97 1.305 3.69.87.72 2.325 1.08 4.365 1.08s3.48-.36 4.32-1.08c.84-.72 1.26-1.95 1.26-3.69zM278.44 16.7v44.37c0 5.88-1.44 10.2-4.32 12.96-2.22 2.22-6.24 3.51-12.06 3.87-2.22.18-5.13.27-8.73.27V60.98c.78 0 1.35-.015 1.71-.045.36-.03.735-.21 1.125-.54.39-.33.645-.705.765-1.125.12-.42.24-1.17.36-2.25.173-1.618.263-4.46.27-8.525V16.7h20.88zm35.19-1.17c4.32 0 9.42.6 15.3 1.8l3.15.63-.54 16.11c-4.92-.6-9.465-.9-13.635-.9s-6.855.795-8.055 2.385c-1.2 1.59-1.8 4.875-1.8 9.855s.285 8.43.855 10.35c.57 1.92 1.485 3.195 2.745 3.825 1.26.63 3.3.945 6.12.945l14.04-.54.27 15.84a81.681 81.681 0 0 1-19.53 2.34c-6.66 0-11.79-.945-15.39-2.835-3.6-1.89-6.195-5.055-7.785-9.495-1.59-4.44-2.385-10.83-2.385-19.17 0-11.94 1.845-20.115 5.535-24.525 3.69-4.41 10.725-6.615 21.105-6.615zM26.17 16.7c10.38 0 17.85 2.34 22.41 7.02 4.56 4.68 6.84 12.165 6.84 22.455 0 2.173-.098 4.231-.293 6.174l-.017.013-.484.414c-2.561 2.156-4.82 3.991-6.45 5.666-1.688 1.624-2.94 3.009-3.827 3.905l-1.323 1.425 1.79-.757c1.145-.526 2.871-1.229 4.973-2.26 1.228-.622 2.647-1.188 4.187-1.81-1.09 4.181-2.8 7.635-5.126 10.36C44.47 74.435 37.21 77 27.07 77H.7V16.7h25.47zm126.685 43.59c3.906.98 7.823 1.752 11.673 2.202 4.858.613 9.67.48 13.965-.19 1.077-.198 2.125-.37 3.139-.583.383-.111.763-.222 1.14-.33L182.77 77h-20.61zm-26.605-7.983c2.928.826 5.863 1.747 8.816 2.664 3.999 1.28 8.026 2.561 12.065 3.744L147.13 77h-20.88zM234.43 16.7L248.02 77h-21.06l-1.71-6.93h-13.77L210.04 77h-20.52l4.553-20.6c1.197-.725 2.174-1.594 3.112-2.259 1.978-1.357 3.202-2.858 4.144-3.693l1.342-1.361.02-.02-1.818.7c-1.18.446-2.829 1.226-5.032 1.876-.252.09-.511.18-.777.267l7.776-35.21h31.59zm151.29 0v16.65h-24.3v5.13h18.9v16.47h-18.9v5.4h24.3V77h-45.18V16.7h45.18zm29.61 0v21.33h3.6l6.75-21.33h20.7l-9.63 29.16L447.28 77h-20.97l-7.29-20.07h-3.69V77h-20.88V16.7h20.88zM25.27 33.71h-3.69v26.28h3.69c3.12 0 5.43-.78 6.93-2.34 1.44-1.56 2.16-5.04 2.16-10.44 0-5.4-.555-9-1.665-10.8-1.11-1.8-3.585-2.7-7.425-2.7zm121.5-17.01l13.86 22.86h1.26V16.7h20.88l.002 37.411-2.073.082c-.87-.047-1.759-.095-2.667-.146a52.645 52.645 0 0 1-11.507-2.107c-4.055-1.152-8.309-2.719-12.792-4.476-4.488-1.774-9.204-3.76-14.195-5.583-4.23-1.602-8.678-3.077-13.288-4.298V16.7h20.52zm73.08 16.38h-2.25l-3.42 21.06h8.91l-3.24-21.06zM84.58 16.7v20.466c-3.079.86-6.006 1.91-8.778 2.99-2.222.95-4.327 1.973-6.356 2.946-1.994 1.045-3.85 2.166-5.635 3.21l-.112.064L63.7 16.7h20.88zm32.13 0l.001 18.858c-3.198-.53-6.43-.895-9.675-.967-1.406-.116-2.826-.058-4.227-.046-1.406.05-2.8.02-4.183.192-1.382.13-2.754.262-4.117.392l1.321-.127V16.7h20.88zM309.22.68l1.26 5.58 1.17-5.58h15.21l-10.08 12.24H303.1L294.01.68h15.21z"/>
</svg>
