<svg xmlns="http://www.w3.org/2000/svg" width="26" height="27" viewBox="0 0 26 27">
    <g fill="#000" fill-rule="evenodd">
        <path d="M12.895 23.873c-5.91 0-10.715-4.806-10.715-10.715 0-5.91 4.806-10.716 10.715-10.716S23.61 7.248 23.61 13.158c0 5.909-4.806 10.715-10.715 10.715m0-23.61C5.778.263 0 6.04 0 13.158c0 7.117 5.778 12.894 12.895 12.894S25.79 20.275 25.79 13.158C25.79 6.04 20.012.263 12.895.263"/>
        <path d="M8.588 10.032h8.64c.42 0 .762-.42.762-.945 0-.525-.341-.946-.762-.946h-8.64c-.42 0-.762.42-.762.946 0 .525.342.945.762.945M17.202 12.422H8.588c-.42 0-.762.42-.762.946 0 .525.342.945.762.945h8.64c.42 0 .762-.42.762-.945-.027-.526-.368-.946-.788-.946M17.202 16.86H8.588c-.42 0-.762.421-.762.946 0 .525.342.945.762.945h8.64c.42 0 .762-.42.762-.945 0-.525-.368-.945-.788-.945"/>
    </g>
</svg>
