<svg xmlns="http://www.w3.org/2000/svg" xmlns:xlink="http://www.w3.org/1999/xlink" width="111" height="83" viewBox="0 0 111 83">
    <defs>
        <path id="a" d="M17.566.334c-.252.442-3.367.393-3.971 2.572C1.76 10.483 1.393 9.912.58 11.313c-.424.73.071 1.442 1.55 1.431 4.83-.033 10.67-7.657 12.204-8.28.496-.202 1.117-.146 1.869-.09 1.028.076 2.3.153 3.828-.428 1.433-.545 1.45-1.834.407-2.291-.532-.234-1.492-.09-2.037-.03-.47.051-1.398-.026-1.89-.06.247-.12.958-.256 1.162-.483.4-.445.277-.9.084-.9-.061 0-.13.046-.19.152"/>
        <linearGradient id="b" x1=".001%" x2="100.001%" y1="50.002%" y2="50.002%">
            <stop offset="0%" stop-color="#FBCFBC"/>
            <stop offset="100%" stop-color="#FBCFBC"/>
        </linearGradient>
        <path id="d" d="M.97.075c.228 1.505.193 5.235-.465 8.583-.502 2.554 8.521 1.923 6.863-.576-.694-1.049-.766-.805-1.028-1.085-.608-1.771-.079-3.182-.079-3.182S4.294.063 1.267.063C1.17.063 1.07.067.97.075"/>
        <linearGradient id="e" x1="-.006%" x2="100.002%" y1="49.999%" y2="49.999%">
            <stop offset="0%" stop-color="#FBBDA7"/>
            <stop offset="100%" stop-color="#FBBDA7"/>
        </linearGradient>
        <path id="g" d="M3.323 1.506C.123 3.204.297 4.526.723 7.839c.15 1.154.82 1.44 1.638 2.113.802.658 1.276-.035 2.999 2.74.744.97 6.228 1.689 6.605 1.386.577-.465.515-.67 1.218-3.335.18-.685 1.259-1.504.789-1.972-.687-.686-1.207-.856-1.587-1.736.768-2.025-.607-4.77-1.595-5.472C9.44.605 8.388.165 7.288.165c-1.142 0-2.335.475-3.965 1.34"/>
        <linearGradient id="h" x1="0%" x2="100.001%" y1="49.999%" y2="49.999%">
            <stop offset="0%" stop-color="#FBCFBC"/>
            <stop offset="100%" stop-color="#FBCFBC"/>
        </linearGradient>
        <path id="j" d="M.957.575C-.14 1.68.6 2.399 1.017 3.089c.354.588.98 1.564 1.971 1.662-.134-1.691.7-3.21.7-3.21S2.67.252 1.702.25c-.258 0-.512.092-.744.325"/>
        <linearGradient id="k" x1=".005%" x2="100.008%" y1="49.998%" y2="49.998%">
            <stop offset="0%" stop-color="#FBCFBC"/>
            <stop offset="100%" stop-color="#FBCFBC"/>
        </linearGradient>
        <path id="m" d="M.519 1.582C-.44 3.094 3.7 4.802 10.775 6.074c2.279.41 4.462 1.087 5.657 1.033.15-.762-.62-.413.518-.923-2.687-1.034-10.234-4.4-12.242-5.137-.653-.24-1.385-.95-2.226-.95-.596 0-1.246.355-1.963 1.485"/>
        <linearGradient id="n" x1="1.789%" x2="97.611%" y1="52.588%" y2="47.879%">
            <stop offset="0%" stop-color="#FBCFBC"/>
            <stop offset="100%" stop-color="#FBCFBC"/>
        </linearGradient>
        <path id="p" d="M2.839 5.245c-.443-.382-.297-.685-1.687 0-.814.4-.974.851-1.044 1.941-.1 1.595 1.303 1.17 1.881 3.445.343 1.347 1.233 2.252 1.385 2.446 3.273 4.2 9.519 16.656 11.763 16.133 1.797-.418 3.626-4.027-1.336-8.032-4.979-4.019-6.829-6.573-9.035-9.147-.139-.162-.18-3.776-.308-4.666-.134-.938-.899-3.321-1.234-6.767-.925 0-.12 3.026-.385 4.647"/>
        <linearGradient id="q" x1="0%" y1="50%" y2="50%">
            <stop offset="0%" stop-color="#FBCFBC"/>
            <stop offset="100%" stop-color="#FBCFBC"/>
        </linearGradient>
        <path id="s" d="M.632 1.093S2.365 4.41.643 7.645c-1.72 3.236 7.889 2.595 6.834-.425C6.093 3.263 6.088 2.467 6.109.598 2.152.833.632 1.093.632 1.093"/>
        <linearGradient id="t" x1="0%" x2="99.992%" y1="49.998%" y2="49.998%">
            <stop offset="0%" stop-color="#FBBDA7"/>
            <stop offset="100%" stop-color="#FBBDA7"/>
        </linearGradient>
        <path id="v" d="M8.639.632c-.072.798-.311 1.17-1.05 1.766-.428.346-1.313 1.068-1.635 2.094-.206.658.085 1.922-.025 2.41-.647 2.898-1.446 4.95-4.081 11.145-2.634 6.197-1.626 8.26.805 8.292C5 26.37 6.131 18.506 7.866 7.181c1.875-.106 5.694-.42 7.15-3.681.256-.576 1.2-1.48.737-1.8-.883-.608-2.913.033-4.595.674-1.345.513-2.466 1.025-2.6.9-.112-.106.274-.249.546-1.19.243-.837-.12-1.716-.334-1.716-.064 0-.115.08-.131.264"/>
        <linearGradient id="w" x1="0%" x2="99.999%" y1="50.001%" y2="50.001%">
            <stop offset="0%" stop-color="#FBCFBC"/>
            <stop offset="100%" stop-color="#FBCFBC"/>
        </linearGradient>
        <path id="y" d="M.121.148h25.183v24.846H.12z"/>
        <path id="z" d="M.733 4.484c-.67 1.252-.974 4.147.869 5.995.058 1.151-.007 2.117-.37 3.206-.248.744.888.967 1.429 1.631 2.105 2.581 1.906 3.373 2.747 3.6.55.148 2.857-.638 3.792-1.03 2.246-.945 2.674-1.722 2.95-3.152.368-3.888 1.146-4.535 1.642-5.649.508-1.139 1.06-1.78.62-3.12C13.155 2.12 12.653.584 8.443.284a18.45 18.45 0 0 0-1.29-.05c-3.28 0-4.756 1.14-6.419 4.25"/>
        <linearGradient id="A" x1=".002%" y1="50%" y2="50%">
            <stop offset="0%" stop-color="#FBCFBC"/>
            <stop offset="100%" stop-color="#FBCFBC"/>
        </linearGradient>
        <path id="C" d="M.063 1.345S1.107 3.5 1.733 5.147c.842-.507.972-1.687 1.03-2.389.068-.824.411-1.81-1.058-2.39-.23-.09-.428-.13-.6-.13C.188.239.063 1.346.063 1.346"/>
        <linearGradient id="D" x1="-.008%" x2="99.999%" y1="49.992%" y2="49.992%">
            <stop offset="0%" stop-color="#FBCFBC"/>
            <stop offset="100%" stop-color="#FBCFBC"/>
        </linearGradient>
    </defs>
    <g fill="none" fill-rule="evenodd">
        <path fill="#DBF1FB" d="M7.535 37.24c-.897.733-2.416.611-3.173-.253-2.699-3.083-.314-10.717 4.713-9.619 1.886.412 3.303 2.484 2.452 4.29-.478 1.016-1.748 1.539-2.353 2.498-.625.991-.669 2.291-1.64 3.084m94.802-11.696c.29.397.5.905.329 1.36-.122.324-.422.564-.75.708-.686.3-1.502.229-2.202-.04-.7-.271-1.303-.722-1.882-1.184-.255-.204-.515-.42-.65-.71-.097-.207-.123-.44-.132-.667a3.425 3.425 0 0 1 .14-1.183c.162-.5.471-.943.796-1.364.485-.628 1.18-1.364 2.094-1.213.56.092.682.396.693.895.01.55-.125 1.082.092 1.617.287.704 1.026 1.173 1.472 1.781M76.113 4.127c-.251.163-.573.205-.869.14a1.154 1.154 0 0 1-.427-.19c-.858-.622-.524-1.784.566-1.674.88.09 1.726 1.08.73 1.724M73.575 8.24c-.044.689-.594 1.275-1.244 1.58-.65.303-1.388.375-2.11.428-1.04.075-2.233.066-2.94-.668-.487-.506-.613-1.255-.5-1.933.285-1.702 1.386-3.41 3.424-3.18 1.521.172 3.46 2.313 3.37 3.773M27.927 9.395c-2.668-.592-3.518 2.153-3.42 4.106.019.38.041.774.221 1.114.254.482.788.778 1.33.931.878.25 1.824.19 2.719.004.57-.118 1.155-.302 1.56-.704 1.636-1.623-.42-5.01-2.41-5.451m-11.14 61.604c-4.71.046-11.722-2.527-10.533-8.283.805-3.901-2.535-7.564-3.14-11.495-.697-4.528 1.852-9.328 6.208-11.685 1.551-.84 3.363-1.439 4.432-2.753 3.297-4.055-2.25-9.09-.127-14.506 1.22-3.11 4.822-4.841 9.61-4.544 4.917.305 9.631-.59 10.252-4.989.502-3.555.467-6.04 4.26-9.084 6.34-5.086 22.115-5.762 25.319 3.76.928 2.758 3.595 8.805 12.816 3.686 7.18-3.986 24.187.614 18.758 12.133-2.14 4.541 2.066 6.008 8.614 8.354 4.886 1.75 8.984 10.545-1.033 18.08-1.434 1.079 1.925 4.148 3.324 5.264 8.059 6.433.476 15.886-7.08 16.062 0 0-76.971-.046-81.68 0"/>
        <path fill="#D5414C" d="M20.177 45.033c-1.574-1.334-4.093 2.895-2.124 6.133 2.46 4.046 6.525 8.835 8.501 10.97.49.53 2.73.653 2.775-.631.057-1.664-2.158-4.152-4.482-8.086-1.428-2.417-3.537-7.425-4.67-8.386"/>
        <g transform="translate(26.237 49.977)">
            <mask id="c" fill="#fff">
                <use xlink:href="#a"/>
            </mask>
            <path fill="url(#b)" d="M17.566.334c-.252.442-3.367.393-3.971 2.572C1.76 10.483 1.393 9.912.58 11.313c-.424.73.071 1.442 1.55 1.431 4.83-.033 10.67-7.657 12.204-8.28.496-.202 1.117-.146 1.869-.09 1.028.076 2.3.153 3.828-.428 1.433-.545 1.45-1.834.407-2.291-.532-.234-1.492-.09-2.037-.03-.47.051-1.398-.026-1.89-.06.247-.12.958-.256 1.162-.483.4-.445.277-.9.084-.9-.061 0-.13.046-.19.152" mask="url(#c)"/>
        </g>
        <g transform="translate(10.091 36.522)">
            <mask id="f" fill="#fff">
                <use xlink:href="#d"/>
            </mask>
            <path fill="url(#e)" d="M.97.075c.228 1.505.193 5.235-.465 8.583-.502 2.554 8.521 1.923 6.863-.576-.694-1.049-.766-.805-1.028-1.085-.608-1.771-.079-3.182-.079-3.182S4.294.063 1.267.063C1.17.063 1.07.067.97.075" mask="url(#f)"/>
        </g>
        <path fill="#EF4955" d="M21.193 48.022c-.413 5.021-2.817 15.874-2.945 18.67-.253 5.466-19.168 9.987-17.046 5.385C4.468 64.993 3.32 59.411 3.32 54.564c0-2.964.086-8.97 2.218-9.768 1.434-.537 3.297-1.377 5.362-1.5.618 1.5 2.38 3.65 4.88 3.116 1.718-.366 1.06-2.4.651-2.892 3.488.58 4.965 2.035 4.762 4.502"/>
        <path fill="#D5414C" d="M7.326 49.138s-2.86 12.83 1.34 15.353c4.2 2.523-8.54 10.323-7.464 7.587 1.077-2.737 2.498-5.4 3.17-19.276.674-13.875 2.954-3.664 2.954-3.664"/>
        <g transform="translate(7.4 28.45)">
            <mask id="i" fill="#fff">
                <use xlink:href="#g"/>
            </mask>
            <path fill="url(#h)" d="M3.323 1.506C.123 3.204.297 4.526.723 7.839c.15 1.154.82 1.44 1.638 2.113.802.658 1.276-.035 2.999 2.74.744.97 6.228 1.689 6.605 1.386.577-.465.515-.67 1.218-3.335.18-.685 1.259-1.504.789-1.972-.687-.686-1.207-.856-1.587-1.736.768-2.025-.607-4.77-1.595-5.472C9.44.605 8.388.165 7.288.165c-1.142 0-2.335.475-3.965 1.34" mask="url(#i)"/>
        </g>
        <path fill="#4F3F38" d="M11.29 41.075c.762-.888-1.147-2.67 1.618-4.713 2.49-1.841.805-3.424 2.473-5.373 1.67-1.949 4.152 1.932 3.83-.214-.572-3.835-10.64-6.571-13.53 1.604-.793 2.24.603 5.205 1.655 6.465 1.313 1.572 3.193 2.415 3.954 2.231"/>
        <g transform="translate(9.418 35.177)">
            <mask id="l" fill="#fff">
                <use xlink:href="#j"/>
            </mask>
            <path fill="url(#k)" d="M.957.575C-.14 1.68.6 2.399 1.017 3.089c.354.588.98 1.564 1.971 1.662-.134-1.691.7-3.21.7-3.21S2.67.252 1.702.25c-.258 0-.512.092-.744.325" mask="url(#l)"/>
        </g>
        <g transform="translate(0 62.759)">
            <mask id="o" fill="#fff">
                <use xlink:href="#m"/>
            </mask>
            <path fill="url(#n)" d="M.519 1.582C-.44 3.094 3.7 4.802 10.775 6.074c2.279.41 4.462 1.087 5.657 1.033.15-.762-.62-.413.518-.923-2.687-1.034-10.234-4.4-12.242-5.137-.653-.24-1.385-.95-2.226-.95-.596 0-1.246.355-1.963 1.485" mask="url(#o)"/>
        </g>
        <path fill="#F2716F" d="M4.83 45.055c2.404-1.225 2.868 2.096 2.247 5.835-.776 4.671-2.543 7.56-3.413 12.349C2.298 63.08.749 66.071.229 64.897c-.675-1.523.29-4.757.982-9.274.424-2.776 1.472-9.474 3.619-10.568"/>
        <path fill="#003A36" d="M13.038 67.618c-4.523 2.46-9.705 10.678-.55 10.92 5.7.151 29.896-13.1 25.89-16.723-3.016-2.728-22.8 4.42-25.34 5.803"/>
        <path fill="#004947" d="M1.202 72.077c-1.991 3.439 3.98 11.774 8.256 5.566 1.89-2.746 2.45-6.346 3.184-9.612.661-2.933.85-5.816-.748-6.108-4.161-.76-9.102 7.41-10.692 10.154"/>
        <path fill="#5CD6EA" d="M16.046 75.267c-.55.115-.939.495-1.624.748-.623.229-1.02-.916-2.5-.748-1.57.178-2.111 1.65-3.045 1.646-2.802-.012-5.17 1.969-5.122 2.994.039.855.311.543 2.285.427 1.185-.07 3.632-.34 6.359-.67 4.537-.55 4.55-1.725 4.55-1.725l-.903-2.672zM30.021 76.37c.303.04.27.044.58.168.568.227 1.586-.396 2.778-.14 2.045.444 3.577.322 5.444-.276 4.074-1.305 3.891 3.21 2.712 3.756-1.22.565-2.592.378-4.438.321-.997-.03-2.322-.265-3.769-.607-4.192-.991-4.036-1.123-4.036-1.123l.73-2.1z"/>
        <path fill="#004947" d="M38.9 63.804c.509-2.755-2.178-4.163-10.138 2.283-6.728 5.449-9.988 7.642-14.14 9.824 0 1.57.126 2.322 1.13 2.94 6.235-2.397 8.262-4.14 13.05-6.726 4.115-2.223 9.315-4.09 10.097-8.32"/>
        <path fill="#004947" d="M9.255 64.648c-.056-2.683 2.58-4.875 8.667.996 5.144 4.962 6.33 6.405 13.091 10.564.943.44.11 3.116-.858 2.787-2.86-.975-8.177-2.756-12.023-5.016-3.304-1.943-8.792-5.213-8.877-9.331"/>
        <path fill="#C69554" d="M76.077 44.82s.212 5.356-2.04 1.526c-2.252-3.83-.464-5.093-1.279-9.174-.815-4.08-1.966-12.6-.83-13.99 1.135-1.388 6.85 7.026 6.85 7.026l-2.701 14.613z"/>
        <path fill="#44B5C1" d="M68.378 43.492s2.965-7.195 5.674-8.332c.58-.244 1.833 5.87-1 10.817-2.832 4.947-4.861 12.024-8.266 11.51-3.404-.515-.878-5.972-.048-7.156 1.369-1.957 3.64-6.84 3.64-6.84"/>
        <g transform="translate(49.782 28.45)">
            <mask id="r" fill="#fff">
                <use xlink:href="#p"/>
            </mask>
            <path fill="url(#q)" d="M2.839 5.245c-.443-.382-.297-.685-1.687 0-.814.4-.974.851-1.044 1.941-.1 1.595 1.303 1.17 1.881 3.445.343 1.347 1.233 2.252 1.385 2.446 3.273 4.2 9.519 16.656 11.763 16.133 1.797-.418 3.626-4.027-1.336-8.032-4.979-4.019-6.829-6.573-9.035-9.147-.139-.162-.18-3.776-.308-4.666-.134-.938-.899-3.321-1.234-6.767-.925 0-.12 3.026-.385 4.647" mask="url(#r)"/>
        </g>
        <g>
            <path fill="#003A36" d="M77.886 66.885c-1.849 3.255-8.231 10.783 4.029 10.66 9.23-.092 24.291-8.07 21.772-13.64-1.381-3.053-4.832-.843-13.157 1.435-6.516 1.782-12.22.799-12.644 1.545"/>
            <path fill="#C1BEBC" d="M65.485 75.721c-.396.037-.352.044-.762.188-.75.264-2.04-.601-3.602-.332-2.682.463-4.666.223-7.06-.656-5.221-1.919-5.231 3.959-3.728 4.732 1.555.8 3.347.632 5.75.66 1.297.015 3.031-.219 4.93-.584 5.501-1.06 5.306-1.24 5.306-1.24l-.834-2.768zM80.19 76.955a.098.098 0 0 1 .122-.077c.732.204 1.186.416 2.335.274.968-.12 1.57-1.257 3.723-.89 2.284.39 2.955 2.589 4.323 2.659 4.103.212 7.247 1.117 7.26 2.624.005.605-.707.728-3.607.703-1.708-.014-4.517.2-8.483-.508-4.687-.836-5.368-1-5.699-1.194l.025-3.59z"/>
            <path fill="#5CD6EA" d="M86.75 35.878c-1.852 2.659-2.859 4.02-.658 9.278 2.2 5.258 6.667 13.48 10.108 13.39 3.442-.091-.098-4.595-.775-5.873-1.118-2.11-6.78-19.515-8.675-16.795"/>
            <path fill="#003A36" d="M78.797 68.36c1.356 3.489 7.89 10.801-4.222 8.896-9.12-1.434-28.98-22.734-24.44-22.89 4.262-.146 7.195 1.333 19.186 9.642 4.651 3.223 9.218 3.687 9.476 4.351"/>
            <path fill="#5CD6EA" d="M72.534 36.339s.126 3.95-1.431 8.158c-1.148 3.1 1.906 3.86 2.052 7.027.285 6.192-1.553 7.265-3.834 12.628-1.486 3.495 22.935 6.668 20.532 1.455-3.7-8.025-3.493-10.978-3.493-16.47 0-3.356 1.72-6.781 1.116-9.148-.515-2.02-1.067-3.803-2.572-4.365-2.3-.86-3.118-.631-5.667-1.021-5.078-.777-6.703 1.736-6.703 1.736"/>
        </g>
        <g transform="translate(75.346 28.45)">
            <mask id="u" fill="#fff">
                <use xlink:href="#s"/>
            </mask>
            <path fill="url(#t)" d="M.632 1.093S2.365 4.41.643 7.645c-1.72 3.236 7.889 2.595 6.834-.425C6.093 3.263 6.088 2.467 6.109.598 2.152.833.632 1.093.632 1.093" mask="url(#u)"/>
        </g>
        <g transform="translate(94.183 32.486)">
            <mask id="x" fill="#fff">
                <use xlink:href="#v"/>
            </mask>
            <path fill="url(#w)" d="M8.639.632c-.072.798-.311 1.17-1.05 1.766-.428.346-1.313 1.068-1.635 2.094-.206.658.085 1.922-.025 2.41-.647 2.898-1.446 4.95-4.081 11.145-2.634 6.197-1.626 8.26.805 8.292C5 26.37 6.131 18.506 7.866 7.181c1.875-.106 5.694-.42 7.15-3.681.256-.576 1.2-1.48.737-1.8-.883-.608-2.913.033-4.595.674-1.345.513-2.466 1.025-2.6.9-.112-.106.274-.249.546-1.19.243-.837-.12-1.716-.334-1.716-.064 0-.115.08-.131.264" mask="url(#x)"/>
        </g>
        <g>
            <path fill="#004947" d="M48.1 56.59c-.586-3.753 5.606-2.74 13.338 2.917 7.394 5.41 8.664 9.12 20.239 17.684-.594.42-1.4 2.204-1.512 3.355-11.787-4.66-17.303-9.266-21.427-12.186-3.113-2.206-9.918-7.16-10.638-11.77"/>
            <path fill="#004947" d="M105.534 65.673c1.648-3.422-5.086-5.438-13.611-1.069-7.206 3.693-13.807 6.497-27.366 11.345.447.573.449 1.877.223 3.012 6.232-.467 22.752-3.543 27.663-4.733 4.22-1.022 11.067-4.35 13.091-8.555"/>
        </g>
        <g transform="translate(68.619 15.667)">
            <mask id="B" fill="#fff">
                <use xlink:href="#z"/>
            </mask>
            <path fill="url(#A)" d="M.733 4.484c-.67 1.252-.974 4.147.869 5.995.058 1.151-.007 2.117-.37 3.206-.248.744.888.967 1.429 1.631 2.105 2.581 1.906 3.373 2.747 3.6.55.148 2.857-.638 3.792-1.03 2.246-.945 2.674-1.722 2.95-3.152.368-3.888 1.146-4.535 1.642-5.649.508-1.139 1.06-1.78.62-3.12C13.155 2.12 12.653.584 8.443.284a18.45 18.45 0 0 0-1.29-.05c-3.28 0-4.756 1.14-6.419 4.25" mask="url(#B)"/>
        </g>
        <path fill="#EFC375" d="M68.48 20.591c.915-6.19 9.248-9.322 13.285-6.608 9.392 6.313.811 12.97 4.516 18.782 4.873 7.646-2.031 17.146-6.477 16.323-4.685-.867-1.988-6.357-.266-11.27 1.722-4.912.784-7.555-.4-9.413-1.09-1.71-.326-7.308-6.331-8.665-3.076-.694-4.891 4.664-4.327.851"/>
        <g transform="translate(78.71 22.395)">
            <mask id="E" fill="#fff">
                <use xlink:href="#C"/>
            </mask>
            <path fill="url(#D)" d="M.063 1.345S1.107 3.5 1.733 5.147c.842-.507.972-1.687 1.03-2.389.068-.824.411-1.81-1.058-2.39-.23-.09-.428-.13-.6-.13C.188.239.063 1.346.063 1.346" mask="url(#E)"/>
        </g>
    </g>
</svg>
