<svg xmlns="http://www.w3.org/2000/svg" width="19" height="40" viewBox="0 0 19 40">
    <g fill="#292C31" fill-rule="evenodd">
        <path d="M13.181 1.229H5.502A4.264 4.264 0 0 0 2.48 2.487 4.27 4.27 0 0 0 1.223 5.51V21.87c0 1.176.481 2.245 1.257 3.021a4.264 4.264 0 0 0 3.022 1.258h7.679a4.264 4.264 0 0 0 3.021-1.258 4.264 4.264 0 0 0 1.258-3.021V5.51a4.27 4.27 0 0 0-1.258-3.023 4.264 4.264 0 0 0-3.021-1.258M5.502.006h7.679c1.513 0 2.89.62 3.886 1.616a5.48 5.48 0 0 1 1.616 3.888V21.87c0 1.513-.618 2.89-1.616 3.885a5.479 5.479 0 0 1-3.886 1.617H5.502a5.479 5.479 0 0 1-3.886-1.617A5.488 5.488 0 0 1 0 21.87V5.51c0-1.515.62-2.892 1.616-3.888A5.488 5.488 0 0 1 5.502.006"/>
        <path d="M8.73 10.832h1.223V5.567H8.73zM8.735 37.26h1.213V21.077H8.735z"/>
        <path d="M9.29 39.672l-3.027-4.45.9-.784 1.673 2.51.908-.031 1.678-2.43 1 .71z"/>
    </g>
</svg>
