<svg xmlns="http://www.w3.org/2000/svg" xmlns:xlink="http://www.w3.org/1999/xlink" width="112" height="83" viewBox="0 0 112 83">
    <defs>
        <path id="a" d="M1.53.686C-.954 2.508.898 5.412 3.07 8.741c2.17 3.33 4.976 9.745 7.63 7.884 1.456-1.02.85-1.566-.58-4.022C8.645 10.069 5.726.313 2.572.313c-.345 0-.693.117-1.043.373"/>
        <linearGradient id="b" x1=".004%" x2="100.002%" y1="50%" y2="50%">
            <stop offset="0%" stop-color="#FBCFBC"/>
            <stop offset="100%" stop-color="#FBCFBC"/>
        </linearGradient>
        <path id="d" d="M0 75.256h111.705V.128H0z"/>
        <path id="f" d="M.684 1.631c-.214 1.078.674 5.782 1.35 8.14.361 1.26 2.734 5.601 2.93 5.86-.08.337-.095.728-.004 1.18.196.976-.625.91-.459 1.322.153.378.02 2.322 2.35.845.546-.347.311-3.171-.49-4.32-.489-.7-1.523-4.738-1.79-5.444-.362-.95-.528-3.23-.671-4.95C3.683 1.68 2.607.551 1.748.551c-.5 0-.925.381-1.064 1.08"/>
        <linearGradient id="g" x1=".004%" x2="99.999%" y1="50%" y2="50%">
            <stop offset="0%" stop-color="#FBCFBC"/>
            <stop offset="100%" stop-color="#FBCFBC"/>
        </linearGradient>
        <path id="i" d="M.797.59c-.28.187-.5.654-.354 1.499.08.464.099.644-.04.838-.139.195.193.239.339-.101.147-.34.373-1.177.458-1.468C1.325.922 1.09.562.889.562A.164.164 0 0 0 .797.59"/>
        <linearGradient id="j" x1="54.243%" x2="41.768%" y1="2.906%" y2="96.469%">
            <stop offset="0%" stop-color="#FBCFBC"/>
            <stop offset="100%" stop-color="#FBCFBC"/>
        </linearGradient>
        <path id="l" d="M3.059 2.989c-.136 1.626-.5 5.471-1.494 6.183-2.991 2.141 2.088 1.967 2.532 1.055C5.17 8.02 6.904 3.055 6.673 1.894 6.484.944 5.666.196 4.853.196c-.814 0-1.623.748-1.794 2.793"/>
        <linearGradient id="m" x1=".002%" x2="100.002%" y1="50.002%" y2="50.002%">
            <stop offset="0%" stop-color="#FBCFBC"/>
            <stop offset="100%" stop-color="#FBCFBC"/>
        </linearGradient>
        <path id="o" d="M.37 4.403c-.646 1.906 6.461 1.95 5.051.012C4.013 2.477 5.143.363 5.143.363S4.013.257 1.087.257c.097 1.156.129 1.648-.718 4.146"/>
        <linearGradient id="p" x1="50.006%" x2="50.006%" y1="-.001%" y2="99.999%">
            <stop offset="0%" stop-color="#FBBDA7"/>
            <stop offset="100%" stop-color="#FBBDA7"/>
        </linearGradient>
        <path id="r" d="M5.46.414C2.942.66 1.445.935.695 3.183c-.27.807 0 3.643 0 3.643.707 3.412 3.499 5.46 3.856 5.732.44.333 1.752.37 2.258-.126.38-.374 2.288-2.257 3.063-5.612.168-.728.078-2.905-.317-3.652C8.552 1.262 8.085.373 6.223.373c-.232 0-.485.014-.764.04"/>
        <linearGradient id="s" x1="-.004%" y1="50.001%" y2="50.001%">
            <stop offset="0%" stop-color="#FBCFBC"/>
            <stop offset="100%" stop-color="#FBCFBC"/>
        </linearGradient>
        <path id="u" d="M.713.551S.444 2.053.159 3.135c.566.066 1.039-.486 1.31-.82.32-.395.822-.765.346-1.627C1.637.366 1.439.265 1.26.265c-.3 0-.547.286-.547.286"/>
        <linearGradient id="v" x1="25.792%" x2="71.527%" y1="52.254%" y2="46.184%">
            <stop offset="0%" stop-color="#FBCFBC"/>
            <stop offset="100%" stop-color="#FBCFBC"/>
        </linearGradient>
        <path id="x" d="M.692.623c-.37.913.175 1.22.54 1.573.31.3.845.79 1.4.656C2.217 1.814 1.77.356 1.77.356S1.526.133 1.25.133c-.195 0-.405.111-.559.49"/>
        <linearGradient id="y" x1="77.972%" x2="21.804%" y1="49.012%" y2="51.653%">
            <stop offset="0%" stop-color="#FBCFBC"/>
            <stop offset="100%" stop-color="#FBCFBC"/>
        </linearGradient>
        <path id="A" d="M.399 6.757c-.982 2.81 7.962 3.408 6.36.396-1.603-3.012.01-6.098.01-6.098S5.355.813 1.672.594c.02 1.74.015 2.48-1.272 6.163"/>
        <linearGradient id="B" x1=".002%" x2="100.001%" y1="50.001%" y2="50.001%">
            <stop offset="0%" stop-color="#FBBDA7"/>
            <stop offset="100%" stop-color="#FBBDA7"/>
        </linearGradient>
        <path id="D" d="M6.39.138C2.47.417 2.005 1.848.832 5.425.423 6.673.937 7.27 1.41 8.33c.463 1.037 1.186 1.639 1.53 5.257.255 1.332.653 2.055 2.744 2.934.87.365 3.018 1.096 3.53.959.783-.211.597-.948 2.556-3.35.504-.619 1.561-.826 1.33-1.518-.339-1.015-.398-1.913-.344-2.985 1.715-1.719 1.432-4.414.809-5.58C12.017 1.153 10.644.092 7.59.092c-.374 0-.773.016-1.201.046"/>
        <linearGradient id="E" x1=".001%" x2="99.997%" y1="49.999%" y2="49.999%">
            <stop offset="0%" stop-color="#FBCFBC"/>
            <stop offset="100%" stop-color="#FBCFBC"/>
        </linearGradient>
        <path id="G" d="M1.226.547C-.141 1.087.179 2.005.242 2.77c.054.653.175 1.751.959 2.223.582-1.532 1.553-3.538 1.553-3.538s-.115-1.03-.97-1.03c-.16 0-.344.036-.558.12"/>
        <linearGradient id="H" x1="-.005%" x2="100.03%" y1="50%" y2="50%">
            <stop offset="0%" stop-color="#FBCFBC"/>
            <stop offset="100%" stop-color="#FBCFBC"/>
        </linearGradient>
        <path id="J" d="M.386.29H76.13v8.066H.386z"/>
        <path id="L" d="M6.624 1.69C5.44 2.838 5.172 2.74 4.844 3.03c-.592.025-1.967.278-2.562.653C.724 4.667.278 5.742.413 6.736c.135.994 2.574-.334 3.487-.895 1.08-.665.87-1.113 1.335-1.48.664-.526 3.073-1.074 4.095-1.622 2.252-1.204 1.962-2.378.89-2.554a5.747 5.747 0 0 0-.919-.097c-.835 0-1.405.364-2.677 1.601"/>
        <linearGradient id="M" x1="0%" x2="100.003%" y1="50%" y2="50%">
            <stop offset="0%" stop-color="#FBCFBC"/>
            <stop offset="100%" stop-color="#FBCFBC"/>
        </linearGradient>
        <path id="O" d="M1.472 1.117c-.468.656-1.35 3.63-1.35 3.63S3.983.977 3.577.71c-.154-.102-.426-.162-.73-.162-.5 0-1.086.162-1.376.57"/>
        <linearGradient id="P" x1="-.001%" y1="50.004%" y2="50.004%">
            <stop offset="0%" stop-color="#FBBDA7"/>
            <stop offset="100%" stop-color="#FBBDA7"/>
        </linearGradient>
        <path id="R" d="M2.693.346c-2.787 1.322-3.128 4.542-1.11 9.84 1.687 4.428 3.013 11.122 5.023 13.362 1.727 1.923 18.048-3.282 20.752-4.243 1.175-.417 1.434-.563 3.188-2.048 1.766-1.493 1.632-.403 2.182-1.327.392-.658.423-.8.48-2.204.028-.696.154-1.25.148-1.547-.018-.895-1.705-.31-2.597-.034-.724.224-2.728 3.339-3.222 5.005-8.48 1.849-13.28.491-18.636 2.408C8.696 18.944 6.84.225 3.206.223c-.167 0-.338.04-.513.123"/>
        <linearGradient id="S" x1="0%" y1="50.001%" y2="50.001%">
            <stop offset="0%" stop-color="#FBCFBC"/>
            <stop offset="100%" stop-color="#FBCFBC"/>
        </linearGradient>
    </defs>
    <g fill="none" fill-rule="evenodd">
        <path fill="#DBF1FB" d="M7.535 37.24c-.897.733-2.416.611-3.173-.253-2.699-3.083-.314-10.717 4.713-9.619 1.886.412 3.303 2.484 2.452 4.29-.478 1.016-1.748 1.539-2.353 2.498-.625.991-.669 2.291-1.64 3.084m94.802-11.696c.29.397.5.905.329 1.36-.122.324-.422.564-.75.708-.686.3-1.502.229-2.202-.04-.7-.271-1.303-.722-1.882-1.184-.255-.204-.515-.42-.65-.71-.097-.207-.123-.44-.132-.667a3.425 3.425 0 0 1 .14-1.183c.162-.5.471-.943.796-1.364.485-.628 1.18-1.364 2.094-1.213.56.092.682.396.693.895.01.55-.125 1.082.092 1.617.287.704 1.026 1.173 1.472 1.781M76.113 4.127c-.251.163-.573.205-.869.14a1.154 1.154 0 0 1-.427-.19c-.858-.622-.524-1.784.566-1.674.88.09 1.726 1.08.73 1.724M73.575 8.24c-.044.689-.594 1.275-1.244 1.58-.65.303-1.388.375-2.11.428-1.04.075-2.233.066-2.94-.668-.487-.506-.613-1.255-.5-1.933.285-1.702 1.386-3.41 3.424-3.18 1.521.172 3.46 2.313 3.37 3.773M27.927 9.395c-2.668-.592-3.518 2.153-3.42 4.106.019.38.041.774.221 1.114.254.482.788.778 1.33.931.878.25 1.824.19 2.719.004.57-.118 1.155-.302 1.56-.704 1.636-1.623-.42-5.01-2.41-5.451m-11.14 61.604c-4.71.046-11.722-2.527-10.533-8.283.805-3.901-2.535-7.564-3.14-11.495-.697-4.528 1.852-9.328 6.208-11.685 1.551-.84 3.363-1.439 4.432-2.753 3.297-4.055-2.25-9.09-.127-14.506 1.22-3.11 4.822-4.841 9.61-4.544 4.917.305 9.631-.59 10.252-4.989.502-3.555.467-6.04 4.26-9.084 6.34-5.086 22.115-5.762 25.319 3.76.928 2.758 3.595 8.805 12.816 3.686 7.18-3.986 24.187.614 18.758 12.133-2.14 4.541 2.066 6.008 8.614 8.354 4.886 1.75 8.984 10.545-1.033 18.08-1.434 1.079 1.925 4.148 3.324 5.264 8.059 6.433.476 15.886-7.08 16.062 0 0-76.971-.046-81.68 0"/>
        <g transform="translate(44.47 29.449)">
            <mask id="c" fill="#fff">
                <use xlink:href="#a"/>
            </mask>
            <path fill="url(#b)" d="M1.53.686C-.954 2.508.898 5.412 3.07 8.741c2.17 3.33 4.976 9.745 7.63 7.884 1.456-1.02.85-1.566-.58-4.022C8.645 10.069 5.726.313 2.572.313c-.345 0-.693.117-1.043.373" mask="url(#c)"/>
        </g>
        <g transform="translate(0 7.556)">
            <path fill="#003A36" d="M55.458 67.879h-3.014l-1.98-26.026 6.534-.362z"/>
            <path fill="#003A36" d="M55.863 69.111s.475-2.21-1.958-2.21c-2.287 0-1.961 2.21-1.961 2.21h3.92z"/>
            <path fill="#EF4955" d="M71.805 66.522c.13-8.355.02-20.041.02-20.041l-3.386.066s.107 12.71.21 20.04c.016 1.05 3.14.927 3.156-.065M92.43 66.522c.13-8.355.019-20.041.019-20.041l-3.386.066s.107 12.71.211 20.04c.015 1.05 3.14.927 3.155-.065"/>
            <path fill="#D5414C" d="M76.929 58.156c.13-8.356.019-20.042.019-20.042l-3.385.067s.106 12.71.21 20.039c.015 1.05 3.14.927 3.156-.064M87.825 58.156c.13-8.356.019-20.042.019-20.042l-3.385.067s.106 12.71.21 20.039c.015 1.05 3.14.927 3.156-.064"/>
            <mask id="e" fill="#fff">
                <use xlink:href="#d"/>
            </mask>
            <path fill="#C1BEBC" d="M66.966 49.334H93.87v-4.202H66.966z" mask="url(#e)"/>
            <path fill="#DBD6D1" d="M66.938 45.182l4.93-2.98h18.298l3.711 2.944z" mask="url(#e)"/>
            <path fill="#C1BEBC" d="M71.868 42.201l-.33-18.347h19.666L90.166 42.2z" mask="url(#e)"/>
            <path fill="#DBD6D1" d="M71.538 23.854l2.025-.332h15.769l1.871.332z" mask="url(#e)"/>
            <path fill="#003A36" d="M96.134 67.879h-3.013l-1.98-26.026 6.533-.362z" mask="url(#e)"/>
            <path fill="#003A36" d="M96.54 69.111s.475-2.21-1.958-2.21c-2.287 0-1.962 2.21-1.962 2.21h3.92z" mask="url(#e)"/>
        </g>
        <g transform="translate(84.834 32.87)">
            <mask id="h" fill="#fff">
                <use xlink:href="#f"/>
            </mask>
            <path fill="url(#g)" d="M.684 1.631c-.214 1.078.674 5.782 1.35 8.14.361 1.26 2.734 5.601 2.93 5.86-.08.337-.095.728-.004 1.18.196.976-.625.91-.459 1.322.153.378.02 2.322 2.35.845.546-.347.311-3.171-.49-4.32-.489-.7-1.523-4.738-1.79-5.444-.362-.95-.528-3.23-.671-4.95C3.683 1.68 2.607.551 1.748.551c-.5 0-.925.381-1.064 1.08" mask="url(#h)"/>
        </g>
        <g transform="translate(88.939 47.92)">
            <mask id="k" fill="#fff">
                <use xlink:href="#i"/>
            </mask>
            <path fill="url(#j)" d="M.797.59c-.28.187-.5.654-.354 1.499.08.464.099.644-.04.838-.139.195.193.239.339-.101.147-.34.373-1.177.458-1.468C1.325.922 1.09.562.889.562A.164.164 0 0 0 .797.59" mask="url(#k)"/>
        </g>
        <g transform="translate(69.783 32.87)">
            <mask id="n" fill="#fff">
                <use xlink:href="#l"/>
            </mask>
            <path fill="url(#m)" d="M3.059 2.989c-.136 1.626-.5 5.471-1.494 6.183-2.991 2.141 2.088 1.967 2.532 1.055C5.17 8.02 6.904 3.055 6.673 1.894 6.484.944 5.666.196 4.853.196c-.814 0-1.623.748-1.794 2.793" mask="url(#n)"/>
        </g>
        <path fill="#004947" d="M85.937 38.234s3.136-.06 3.184-.858c.102-1.657-.4-4.965-1.628-5.948-.272-.218-2.964-1.759-6.994-1.58-4.221.186-5.121 1.212-6.538 2.457-.67.588-1.758 3.741-1.916 5.07-.096.819 3.463 1.608 3.463 1.608 1.645 5.726-2.98 9.158 5.7 9.883 8.68.725 3.996-8.465 4.73-10.632"/>
        <g transform="translate(77.993 26.028)">
            <mask id="q" fill="#fff">
                <use xlink:href="#o"/>
            </mask>
            <path fill="url(#p)" d="M.37 4.403c-.646 1.906 6.461 1.95 5.051.012C4.013 2.477 5.143.363 5.143.363S4.013.257 1.087.257c.097 1.156.129 1.648-.718 4.146" mask="url(#q)"/>
        </g>
        <path fill="#003A36" d="M77.083 64.272s1.115 4.908-1.392 6.276c-1.607.876-3.282.1-3.582-1.102-.203-.816.855-3.71 1.353-4.262.498-.552 3.621-.912 3.621-.912"/>
        <path fill="#004947" d="M74.378 63.878c-1.38.92-3.775 5.672-1.416 6.263 4.266 1.071 4.326-4.215 4.136-5.764-.253-2.064-2.58-.593-2.72-.5"/>
        <path fill="#003A36" d="M85.925 64.077s1.64 4.759-.704 6.39c-1.503 1.045-3.252.454-3.68-.709-.291-.789.448-3.78.884-4.382.435-.603 3.5-1.299 3.5-1.299"/>
        <path fill="#004947" d="M83.193 63.978c-1.272 1.064-3.138 6.046-.728 6.38 4.356.602 3.843-4.659 3.486-6.179-.474-2.024-2.628-.31-2.758-.201"/>
        <path fill="#705D5C" d="M77.578 46.746c-3.69-.373-4.703 3.19-5.929 6.713-.655 1.883.197 5.96.698 7.73.477 1.68 1.013 2.697.787 3.617-.142.578 1.009-.192 1.915-.2 1.614-.015 2.475.849 2.475.029 0-.946-.596-2.273-.883-5.059-.136-1.32-.575-1.884-.361-3.52.168-1.297.354-1.852 1.654-3.43 3.606-4.374 2.217-5.62-.356-5.88"/>
        <path fill="#705D5C" d="M83.6 46.72c-3.69-.374-4.07 3.915-3.832 7.025.152 1.987 1.136 5.674 1.637 7.444.476 1.68.991 2.726.765 3.646-.142.578 1.03-.22 1.937-.229 1.614-.015 2.472.848 2.472.029 0-.946-.594-2.274-.881-5.059-.136-1.32-.575-1.883-.362-3.52.17-1.297.931-2.432 1.132-4.466.417-4.226-.295-4.61-2.868-4.87"/>
        <path fill="#EFEFF0" d="M79.615 45.382l-4.41 5.848H88.74l-1.566-5.695z"/>
        <g transform="translate(75.256 17.134)">
            <mask id="t" fill="#fff">
                <use xlink:href="#r"/>
            </mask>
            <path fill="url(#s)" d="M5.46.414C2.942.66 1.445.935.695 3.183c-.27.807 0 3.643 0 3.643.707 3.412 3.499 5.46 3.856 5.732.44.333 1.752.37 2.258-.126.38-.374 2.288-2.257 3.063-5.612.168-.728.078-2.905-.317-3.652C8.552 1.262 8.085.373 6.223.373c-.232 0-.485.014-.764.04" mask="url(#t)"/>
        </g>
        <g transform="translate(84.15 23.292)">
            <mask id="w" fill="#fff">
                <use xlink:href="#u"/>
            </mask>
            <path fill="url(#v)" d="M.713.551S.444 2.053.159 3.135c.566.066 1.039-.486 1.31-.82.32-.395.822-.765.346-1.627C1.637.366 1.439.265 1.26.265c-.3 0-.547.286-.547.286" mask="url(#w)"/>
        </g>
        <g transform="translate(74.572 23.976)">
            <mask id="z" fill="#fff">
                <use xlink:href="#x"/>
            </mask>
            <path fill="url(#y)" d="M.692.623c-.37.913.175 1.22.54 1.573.31.3.845.79 1.4.656C2.217 1.814 1.77.356 1.77.356S1.526.133 1.25.133c-.195 0-.405.111-.559.49" mask="url(#z)"/>
        </g>
        <path fill="#4F3F38" d="M76.255 24.817s-.223-5.678 1.977-4.992c2.2.686 2.578.636 4.505-.189 1.927-.823 2.239 4.473 2.239 4.473s.92-.199.935-1.668c.006-.489-.283-2.28-.425-2.96-.31-1.49-.886-1.472-1.887-1.974-.684-.342-1.178-.772-1.962-.834-1.167-.093-2.67-.088-4.059.373-.726.241-1.644 1.425-1.963 2.19-.292.706-.662 2.281-.708 3.152-.068 1.297.86 2.08 1.348 2.429"/>
        <path fill="#C1BEBC" d="M17.346 74.032c-.008-.055-1.288-.11-2.408-.25-.946-.116-1.528-1.598-3.63-1.24-2.23.38-2.886 2.527-4.22 2.596-4.007.206-7.076 1.09-7.087 2.56-.006.592.69.711 3.52.688 1.667-.014 4.05-.48 7.922-1.171 4.576-.816 5.106-.59 5.429-.78l.474-2.403z"/>
        <path fill="#DBD6D1" d="M17.364 76.032c-.008-.056-1.288-.111-2.409-.25-.945-.117-1.528-1.599-3.63-1.24-2.23.38-2.884 2.527-4.22 2.595C3.1 77.344.03 78.228.018 79.698c-.005.591.69.711 3.52.688 1.668-.015 4.05-.481 7.922-1.171 4.577-.817 5.107-.59 5.43-.78l.474-2.403z"/>
        <path fill="#D5414C" d="M57.076 74.09c-.212 3.87-3.002 6.063-11.953 4.835-7.564-1.038-14.466-1.557-28.109-1.909.244-.546-.211-2.293-.736-3.102 5.774-1.18 19.792-3.236 24.574-3.54 4.109-.26 16.456-.534 16.224 3.716"/>
        <path fill="#D5414C" d="M34.793 56.475c-3.312 1.671-11.719 3.994-2.178 8.666 9.54 4.67 24.625 13.956 24.461 8.949-.162-4.95-20.554-18.487-22.283-17.615"/>
        <path fill="#EF4955" d="M25.055 56.311c-3.577 1.526-8.013 9.571 3.974 15.73 11.988 6.157 27.133 6.15 26.53 1.768-.29-2.106-9.336-8.337-18.516-12.837-2.17-1.063-2.053-4.947-3.853-5.706-3.162-1.335-7.665.845-8.135 1.045"/>
        <path fill="#EF4955" d="M55.18 72.998c2.107 2.517 1.252 6.392-4.771 6.766-7.62.473-20.276-.885-33.92-1.236.244-.548-.101-1.841-.627-2.65 9.878.336 19.07-4.42 23.853-4.723 4.108-.262 12.864-1.265 15.466 1.843"/>
        <path fill="#EF4955" d="M55.18 73.107c2.107 2.515 1.252 6.39-4.771 6.764-7.62.474-20.276-.884-33.92-1.236.244-.547-.101-1.84-.627-2.65 9.878.336 19.07-4.418 23.853-4.723 4.108-.261 12.864-1.264 15.466 1.845"/>
        <path fill="#F4815B" d="M43.476 37.33s-.182 4.986 2.202 1.438c2.383-3.548.454-4.738 1.294-8.532.84-3.793 2.002-11.718.773-13.02-1.23-1.303-7.29 6.485-7.29 6.485l3.021 13.63z"/>
        <path fill="#FFD880" d="M48.256 30.218s-1.59 3.313-.415 7.187c2.593 8.542-3.945 7.737-4.244 13.244-.148 2.74-2.935 6.16-2.79 8.114.14 1.863-1.702-1.779-19.603 3.84-.703-4.332 4.392-7.291 8.54-12.122 1.716-1.999.513-4.982.104-10.467-.214-2.853-.907-10.012.895-10.903 3.703-1.833 7.51-2.56 10.69-1.63 6.267 1.829 6.823 2.737 6.823 2.737"/>
        <g transform="translate(38.312 21.923)">
            <mask id="C" fill="#fff">
                <use xlink:href="#A"/>
            </mask>
            <path fill="url(#B)" d="M.399 6.757c-.982 2.81 7.962 3.408 6.36.396-1.603-3.012.01-6.098.01-6.098S5.355.813 1.672.594c.02 1.74.015 2.48-1.272 6.163" mask="url(#C)"/>
        </g>
        <g transform="translate(36.944 10.293)">
            <mask id="F" fill="#fff">
                <use xlink:href="#D"/>
            </mask>
            <path fill="url(#E)" d="M6.39.138C2.47.417 2.005 1.848.832 5.425.423 6.673.937 7.27 1.41 8.33c.463 1.037 1.186 1.639 1.53 5.257.255 1.332.653 2.055 2.744 2.934.87.365 3.018 1.096 3.53.959.783-.211.597-.948 2.556-3.35.504-.619 1.561-.826 1.33-1.518-.339-1.015-.398-1.913-.344-2.985 1.715-1.719 1.432-4.414.809-5.58C12.017 1.153 10.644.092 7.59.092c-.374 0-.773.016-1.201.046" mask="url(#F)"/>
        </g>
        <path fill="#F4815B" d="M51.32 14.75c-.852-5.762-8.607-8.677-12.365-6.15-8.742 5.875-.755 12.07-4.204 17.48-4.535 7.116 1.891 15.958 6.029 15.193 4.36-.808 1.851-5.917.248-10.489-1.603-4.573-.73-7.032.372-8.762 1.014-1.592.303-6.802 5.893-8.065 2.863-.646 4.552 4.341 4.028.793"/>
        <g transform="translate(38.996 15.766)">
            <mask id="I" fill="#fff">
                <use xlink:href="#G"/>
            </mask>
            <path fill="url(#H)" d="M1.226.547C-.141 1.087.179 2.005.242 2.77c.054.653.175 1.751.959 2.223.582-1.532 1.553-3.538 1.553-3.538s-.115-1.03-.97-1.03c-.16 0-.344.036-.558.12" mask="url(#I)"/>
        </g>
        <g>
            <path fill="#003A36" d="M104.11 81.47h-3.282l-2.155-28.339 7.113-.395z"/>
            <path fill="#003A36" d="M104.551 82.812s.518-2.407-2.132-2.407c-2.49 0-2.136 2.407-2.136 2.407h4.268zM48.209 81.47h-3.282l-2.155-28.339 7.113-.395z"/>
            <path fill="#003A36" d="M48.65 82.812s.517-2.407-2.132-2.407c-2.49 0-2.136 2.407-2.136 2.407h4.268z"/>
            <g transform="translate(35.576 43.816)">
                <mask id="K" fill="#fff">
                    <use xlink:href="#J"/>
                </mask>
                <path fill="#DBD6D1" d="M11.979.29L.386 8.356H76.13L65.026.29z" mask="url(#K)"/>
            </g>
            <path fill="#C1BEBC" d="M35.961 56.855h75.744v-4.684H35.961z"/>
            <path fill="#D5414C" d="M98.785 43.687c0 .29-1.32.526-2.95.526-1.629 0-2.95-.236-2.95-.526 0-.291 1.321-.527 2.95-.527 1.63 0 2.95.236 2.95.527"/>
            <path fill="#F2716F" d="M95.835 44.017c-1.533 0-2.776-.174-2.776-.389 0-.214 1.243-.43 2.776-.43 1.533 0 2.776.216 2.776.43 0 .215-1.243.389-2.776.389m0-.857c-1.63 0-2.95.236-2.95.527 0 .29 1.32.526 2.95.526 1.63 0 2.95-.236 2.95-.526 0-.291-1.32-.527-2.95-.527"/>
            <path fill="#5CD6EA" d="M96.734 48.82s-.118.147-.242.122c-.165-.034-.175-.207-.175-.207l1.69-8.212.433-1.04-.015 1.127-1.69 8.21z"/>
            <path fill="#C1BEBC" d="M98.008 40.523l.432-1.041-.015 1.127s-.246.142-.417-.086"/>
            <path fill="#FFD880" d="M96.398 48.857s-.108.154-.235.136c-.166-.024-.186-.195-.186-.195l1.176-8.301.367-1.067.055 1.126-1.177 8.301z"/>
            <path fill="#C1BEBC" d="M97.154 40.497l.366-1.067.055 1.126s-.237.157-.421-.06"/>
            <path fill="#705D5C" d="M95.581 49.106s-.035.185-.157.221c-.161.048-.252-.1-.252-.1L92.79 41.19l-.111-1.122.52 1.001 2.382 8.038z"/>
            <path fill="#C1BEBC" d="M92.79 41.19l-.111-1.123.519 1.001s-.151.24-.408.121"/>
            <path fill="#EF4955" d="M92.885 43.687s1.042 5.296 1.466 5.575c.424.279 2.573.403 3.16 0 .585-.403 1.335-5.42 1.27-5.575 0 0-1.547.442-3.035.416-1.336-.022-2.6-.2-2.86-.416"/>
            <path fill="#F2716F" d="M98.58 43.687c-.202.186-1.354.33-2.745.33s-2.543-.144-2.744-.33h-.206c0 .29 1.32.526 2.95.526 1.63 0 2.95-.236 2.95-.526h-.205z"/>
            <path fill="#FFF" d="M78.2 44.801l-4.41 5.848h13.536l-1.566-5.694zM60.248 44.801l-4.41 5.848h13.535l-1.566-5.694z"/>
        </g>
        <g transform="translate(62.941 41.764)">
            <mask id="N" fill="#fff">
                <use xlink:href="#L"/>
            </mask>
            <path fill="url(#M)" d="M6.624 1.69C5.44 2.838 5.172 2.74 4.844 3.03c-.592.025-1.967.278-2.562.653C.724 4.667.278 5.742.413 6.736c.135.994 2.574-.334 3.487-.895 1.08-.665.87-1.113 1.335-1.48.664-.526 3.073-1.074 4.095-1.622 2.252-1.204 1.962-2.378.89-2.554a5.747 5.747 0 0 0-.919-.097c-.835 0-1.405.364-2.677 1.601" mask="url(#N)"/>
        </g>
        <g transform="translate(56.1 40.395)">
            <mask id="Q" fill="#fff">
                <use xlink:href="#O"/>
            </mask>
            <path fill="url(#P)" d="M1.472 1.117c-.468.656-1.35 3.63-1.35 3.63S3.983.977 3.577.71c-.154-.102-.426-.162-.73-.162-.5 0-1.086.162-1.376.57" mask="url(#Q)"/>
        </g>
        <g>
            <path fill="#EF4955" d="M56.439 38.665s-.04-.184.06-.264c.13-.107.27-.006.27-.006l5.3 6.496.536.992-.865-.723-5.301-6.495z"/>
            <path fill="#C1BEBC" d="M62.07 44.891l.535.992-.864-.722s.045-.281.329-.27"/>
        </g>
        <g transform="translate(28.05 28.765)">
            <mask id="T" fill="#fff">
                <use xlink:href="#R"/>
            </mask>
            <path fill="url(#S)" d="M2.693.346c-2.787 1.322-3.128 4.542-1.11 9.84 1.687 4.428 3.013 11.122 5.023 13.362 1.727 1.923 18.048-3.282 20.752-4.243 1.175-.417 1.434-.563 3.188-2.048 1.766-1.493 1.632-.403 2.182-1.327.392-.658.423-.8.48-2.204.028-.696.154-1.25.148-1.547-.018-.895-1.705-.31-2.597-.034-.724.224-2.728 3.339-3.222 5.005-8.48 1.849-13.28.491-18.636 2.408C8.696 18.944 6.84.225 3.206.223c-.167 0-.338.04-.513.123" mask="url(#T)"/>
        </g>
    </g>
</svg>
